  0
SECTION
  2
HEADER
  9
$ACADVER
  1
AC1024
  9
$ACADMAINTVER
 70
6
  9
$DWGCODEPAGE
  3
ANSI_1252
  9
$LASTSAVEDBY
  1
ezdxf
  9
$INSBASE
 10
0.0
 20
0.0
 30
0.0
  9
$EXTMIN
 10
1e+20
 20
1e+20
 30
1e+20
  9
$EXTMAX
 10
-1e+20
 20
-1e+20
 30
-1e+20
  9
$LIMMIN
 10
0.0
 20
0.0
  9
$LIMMAX
 10
420.0
 20
297.0
  9
$ORTHOMODE
 70
0
  9
$REGENMODE
 70
1
  9
$FILLMODE
 70
1
  9
$QTEXTMODE
 70
0
  9
$MIRRTEXT
 70
1
  9
$LTSCALE
 40
1.0
  9
$ATTMODE
 70
1
  9
$TEXTSIZE
 40
2.5
  9
$TRACEWID
 40
1.0
  9
$TEXTSTYLE
  7
OpenSans
  9
$CLAYER
  8
0
  9
$CELTYPE
  6
ByLayer
  9
$CECOLOR
 62
256
  9
$CELTSCALE
 40
1.0
  9
$DISPSILH
 70
0
  9
$DIMSCALE
 40
1.0
  9
$DIMASZ
 40
0.175
  9
$DIMEXO
 40
0.125
  9
$DIMDLI
 40
3.75
  9
$DIMRND
 40
0.0
  9
$DIMDLE
 40
0.0
  9
$DIMEXE
 40
0.375
  9
$DIMTP
 40
0.0
  9
$DIMTM
 40
0.0
  9
$DIMTXT
 40
0.25
  9
$DIMCEN
 40
2.5
  9
$DIMTSZ
 40
0.0
  9
$DIMTOL
 70
0
  9
$DIMLIM
 70
0
  9
$DIMTIH
 70
0
  9
$DIMTOH
 70
0
  9
$DIMSE1
 70
0
  9
$DIMSE2
 70
0
  9
$DIMTAD
 70
1
  9
$DIMZIN
 70
12
  9
$DIMBLK
  1
ARCHTICK
  9
$DIMASO
 70
1
  9
$DIMSHO
 70
1
  9
$DIMPOST
  1

  9
$DIMAPOST
  1

  9
$DIMALT
 70
0
  9
$DIMALTD
 70
3
  9
$DIMALTF
 40
0.03937007874
  9
$DIMLFAC
 40
100.0
  9
$DIMTOFL
 70
1
  9
$DIMTVP
 40
0.0
  9
$DIMTIX
 70
0
  9
$DIMSOXD
 70
0
  9
$DIMSAH
 70
0
  9
$DIMBLK1
  1

  9
$DIMBLK2
  1

  9
$DIMSTYLE
  2
EZDXF
  9
$DIMCLRD
 70
0
  9
$DIMCLRE
 70
0
  9
$DIMCLRT
 70
0
  9
$DIMTFAC
 40
0.5
  9
$DIMGAP
 40
0.1
  9
$DIMJUST
 70
0
  9
$DIMSD1
 70
0
  9
$DIMSD2
 70
0
  9
$DIMTOLJ
 70
0
  9
$DIMTZIN
 70
8
  9
$DIMALTZ
 70
0
  9
$DIMALTTZ
 70
0
  9
$DIMUPT
 70
1
  9
$DIMDEC
 70
2
  9
$DIMTDEC
 70
2
  9
$DIMALTU
 70
2
  9
$DIMALTTD
 70
3
  9
$DIMTXSTY
  7
OpenSansCondensed-Light
  9
$DIMAUNIT
 70
0
  9
$DIMADEC
 70
2
  9
$DIMALTRND
 40
0.0
  9
$DIMAZIN
 70
3
  9
$DIMDSEP
 70
46
  9
$DIMATFIT
 70
3
  9
$DIMFRAC
 70
0
  9
$DIMLDRBLK
  1

  9
$DIMLUNIT
 70
2
  9
$DIMLWD
 70
-2
  9
$DIMLWE
 70
-2
  9
$DIMTMOVE
 70
2
  9
$DIMFXL
 40
1.0
  9
$DIMFXLON
 70
0
  9
$DIMJOGANG
 40
0.785398163397
  9
$DIMTFILL
 70
0
  9
$DIMTFILLCLR
 70
0
  9
$DIMARCSYM
 70
0
  9
$DIMLTYPE
  6

  9
$DIMLTEX1
  6

  9
$DIMLTEX2
  6

  9
$DIMTXTDIRECTION
 70
0
  9
$LUNITS
 70
2
  9
$LUPREC
 70
4
  9
$SKETCHINC
 40
1.0
  9
$FILLETRAD
 40
10.0
  9
$AUNITS
 70
0
  9
$AUPREC
 70
2
  9
$MENU
  1
.
  9
$ELEVATION
 40
0.0
  9
$PELEVATION
 40
0.0
  9
$THICKNESS
 40
0.0
  9
$LIMCHECK
 70
0
  9
$CHAMFERA
 40
0.0
  9
$CHAMFERB
 40
0.0
  9
$CHAMFERC
 40
0.0
  9
$CHAMFERD
 40
0.0
  9
$SKPOLY
 70
0
  9
$TDCREATE
 40
2461315.584525463
  9
$TDUCREATE
 40
2458532.153996898
  9
$TDUPDATE
 40
2461315.5846064813
  9
$TDUUPDATE
 40
2458532.1544311
  9
$TDINDWG
 40
0.0
  9
$TDUSRTIMER
 40
0.0
  9
$USRTIMER
 70
1
  9
$ANGBASE
 50
0.0
  9
$ANGDIR
 70
0
  9
$PDMODE
 70
0
  9
$PDSIZE
 40
0.0
  9
$PLINEWID
 40
0.0
  9
$SPLFRAME
 70
0
  9
$SPLINETYPE
 70
6
  9
$SPLINESEGS
 70
8
  9
$HANDSEED
  5
372
  9
$SURFTAB1
 70
6
  9
$SURFTAB2
 70
6
  9
$SURFTYPE
 70
6
  9
$SURFU
 70
6
  9
$SURFV
 70
6
  9
$UCSBASE
  2

  9
$UCSNAME
  2

  9
$UCSORG
 10
0.0
 20
0.0
 30
0.0
  9
$UCSXDIR
 10
1.0
 20
0.0
 30
0.0
  9
$UCSYDIR
 10
0.0
 20
1.0
 30
0.0
  9
$UCSORTHOREF
  2

  9
$UCSORTHOVIEW
 70
0
  9
$UCSORGTOP
 10
0.0
 20
0.0
 30
0.0
  9
$UCSORGBOTTOM
 10
0.0
 20
0.0
 30
0.0
  9
$UCSORGLEFT
 10
0.0
 20
0.0
 30
0.0
  9
$UCSORGRIGHT
 10
0.0
 20
0.0
 30
0.0
  9
$UCSORGFRONT
 10
0.0
 20
0.0
 30
0.0
  9
$UCSORGBACK
 10
0.0
 20
0.0
 30
0.0
  9
$PUCSBASE
  2

  9
$PUCSNAME
  2

  9
$PUCSORG
 10
0.0
 20
0.0
 30
0.0
  9
$PUCSXDIR
 10
1.0
 20
0.0
 30
0.0
  9
$PUCSYDIR
 10
0.0
 20
1.0
 30
0.0
  9
$PUCSORTHOREF
  2

  9
$PUCSORTHOVIEW
 70
0
  9
$PUCSORGTOP
 10
0.0
 20
0.0
 30
0.0
  9
$PUCSORGBOTTOM
 10
0.0
 20
0.0
 30
0.0
  9
$PUCSORGLEFT
 10
0.0
 20
0.0
 30
0.0
  9
$PUCSORGRIGHT
 10
0.0
 20
0.0
 30
0.0
  9
$PUCSORGFRONT
 10
0.0
 20
0.0
 30
0.0
  9
$PUCSORGBACK
 10
0.0
 20
0.0
 30
0.0
  9
$USERI1
 70
0
  9
$USERI2
 70
0
  9
$USERI3
 70
0
  9
$USERI4
 70
0
  9
$USERI5
 70
0
  9
$USERR1
 40
0.0
  9
$USERR2
 40
0.0
  9
$USERR3
 40
0.0
  9
$USERR4
 40
0.0
  9
$USERR5
 40
0.0
  9
$WORLDVIEW
 70
1
  9
$SHADEDGE
 70
3
  9
$SHADEDIF
 70
70
  9
$TILEMODE
 70
1
  9
$MAXACTVP
 70
64
  9
$PINSBASE
 10
0.0
 20
0.0
 30
0.0
  9
$PLIMCHECK
 70
0
  9
$PEXTMIN
 10
1e+20
 20
1e+20
 30
1e+20
  9
$PEXTMAX
 10
-1e+20
 20
-1e+20
 30
-1e+20
  9
$PLIMMIN
 10
0.0
 20
0.0
  9
$PLIMMAX
 10
420.0
 20
297.0
  9
$UNITMODE
 70
0
  9
$VISRETAIN
 70
1
  9
$PLINEGEN
 70
0
  9
$PSLTSCALE
 70
1
  9
$TREEDEPTH
 70
3020
  9
$CMLSTYLE
  2
Standard
  9
$CMLJUST
 70
0
  9
$CMLSCALE
 40
20.0
  9
$PROXYGRAPHICS
 70
1
  9
$MEASUREMENT
 70
1
  9
$CELWEIGHT
370
-1
  9
$ENDCAPS
280
0
  9
$JOINSTYLE
280
0
  9
$LWDISPLAY
290
0
  9
$INSUNITS
 70
4
  9
$HYPERLINKBASE
  1

  9
$STYLESHEET
  1

  9
$XEDIT
290
1
  9
$CEPSNTYPE
380
0
  9
$PSTYLEMODE
290
1
  9
$FINGERPRINTGUID
  2
{1AD810E9-4C20-407B-9233-D7108BDC1A00}
  9
$VERSIONGUID
  2
{CE441F01-2B7C-4FA6-87AD-9336C992B99D}
  9
$EXTNAMES
290
1
  9
$PSVPSCALE
 40
0.0
  9
$OLESTARTUP
290
0
  9
$SORTENTS
280
127
  9
$INDEXCTL
280
0
  9
$HIDETEXT
280
1
  9
$XCLIPFRAME
280
1
  9
$HALOGAP
280
0
  9
$OBSCOLOR
 70
257
  9
$OBSLTYPE
280
0
  9
$INTERSECTIONDISPLAY
280
0
  9
$INTERSECTIONCOLOR
 70
257
  9
$DIMASSOC
280
2
  9
$PROJECTNAME
  1

  9
$CAMERADISPLAY
290
0
  9
$LENSLENGTH
 40
50.0
  9
$CAMERAHEIGHT
 40
0.0
  9
$STEPSPERSEC
 40
24.0
  9
$STEPSIZE
 40
100.0
  9
$3DDWFPREC
 40
2.0
  9
$PSOLWIDTH
 40
0.005
  9
$PSOLHEIGHT
 40
0.08
  9
$LOFTANG1
 40
1.570796326795
  9
$LOFTANG2
 40
1.570796326795
  9
$LOFTMAG1
 40
0.0
  9
$LOFTMAG2
 40
0.0
  9
$LOFTPARAM
 70
7
  9
$LOFTNORMALS
280
1
  9
$LATITUDE
 40
37.795
  9
$LONGITUDE
 40
-122.394
  9
$NORTHDIRECTION
 40
0.0
  9
$TIMEZONE
 70
-8000
  9
$LIGHTGLYPHDISPLAY
280
1
  9
$TILEMODELIGHTSYNCH
280
1
  9
$CMATERIAL
347
20
  9
$SOLIDHIST
280
0
  9
$SHOWHIST
280
1
  9
$DWFFRAME
280
2
  9
$DGNFRAME
280
2
  9
$REALWORLDSCALE
290
1
  9
$INTERFERECOLOR
 62
256
  9
$CSHADOW
280
0
  9
$SHADOWPLANELOCATION
 40
0.0
  0
ENDSEC
  0
SECTION
  2
CLASSES
  0
CLASS
  1
ACDBDICTIONARYWDFLT
  2
AcDbDictionaryWithDefault
  3
ObjectDBX Classes
 90
0
 91
0
280
0
281
0
  0
CLASS
  1
SUN
  2
AcDbSun
  3
SCENEOE
 90
1153
 91
0
280
0
281
0
  0
CLASS
  1
VISUALSTYLE
  2
AcDbVisualStyle
  3
ObjectDBX Classes
 90
4095
 91
0
280
0
281
0
  0
CLASS
  1
MATERIAL
  2
AcDbMaterial
  3
ObjectDBX Classes
 90
1153
 91
0
280
0
281
0
  0
CLASS
  1
SCALE
  2
AcDbScale
  3
ObjectDBX Classes
 90
1153
 91
0
280
0
281
0
  0
CLASS
  1
TABLESTYLE
  2
AcDbTableStyle
  3
ObjectDBX Classes
 90
4095
 91
0
280
0
281
0
  0
CLASS
  1
MLEADERSTYLE
  2
AcDbMLeaderStyle
  3
ACDB_MLEADERSTYLE_CLASS
 90
4095
 91
0
280
0
281
0
  0
CLASS
  1
DICTIONARYVAR
  2
AcDbDictionaryVar
  3
ObjectDBX Classes
 90
0
 91
0
280
0
281
0
  0
CLASS
  1
CELLSTYLEMAP
  2
AcDbCellStyleMap
  3
ObjectDBX Classes
 90
1152
 91
0
280
0
281
0
  0
CLASS
  1
MENTALRAYRENDERSETTINGS
  2
AcDbMentalRayRenderSettings
  3
SCENEOE
 90
1024
 91
0
280
0
281
0
  0
CLASS
  1
ACDBDETAILVIEWSTYLE
  2
AcDbDetailViewStyle
  3
ObjectDBX Classes
 90
1025
 91
0
280
0
281
0
  0
CLASS
  1
ACDBSECTIONVIEWSTYLE
  2
AcDbSectionViewStyle
  3
ObjectDBX Classes
 90
1025
 91
0
280
0
281
0
  0
CLASS
  1
RASTERVARIABLES
  2
AcDbRasterVariables
  3
ISM
 90
0
 91
0
280
0
281
0
  0
CLASS
  1
ACDBPLACEHOLDER
  2
AcDbPlaceHolder
  3
ObjectDBX Classes
 90
0
 91
0
280
0
281
0
  0
CLASS
  1
LAYOUT
  2
AcDbLayout
  3
ObjectDBX Classes
 90
0
 91
0
280
0
281
0
  0
ENDSEC
  0
SECTION
  2
TABLES
  0
TABLE
  2
VPORT
  5
8
330
0
100
AcDbSymbolTable
 70
1
  0
VPORT
  5
23
330
8
100
AcDbSymbolTableRecord
100
AcDbViewportTableRecord
  2
*Active
 70
0
 10
0.0
 20
0.0
 11
1.0
 21
1.0
 12
0.0
 22
0.0
 13
0.0
 23
0.0
 14
0.5
 24
0.5
 15
0.5
 25
0.5
 16
0.0
 26
0.0
 36
1.0
 17
0.0
 27
0.0
 37
0.0
 40
1000.0
 41
1.34
 42
50.0
 43
0.0
 44
0.0
 50
0.0
 51
0.0
 71
0
 72
1000
 73
1
 74
3
 75
0
 76
0
 77
0
 78
0
281
0
 65
0
146
0.0
  0
ENDTAB
  0
TABLE
  2
LTYPE
  5
2
330
0
100
AcDbSymbolTable
 70
21
  0
LTYPE
  5
24
330
2
100
AcDbSymbolTableRecord
100
AcDbLinetypeTableRecord
  2
ByBlock
 70
0
  3

 72
65
 73
0
 40
0.0
  0
LTYPE
  5
25
330
2
100
AcDbSymbolTableRecord
100
AcDbLinetypeTableRecord
  2
ByLayer
 70
0
  3

 72
65
 73
0
 40
0.0
  0
LTYPE
  5
26
330
2
100
AcDbSymbolTableRecord
100
AcDbLinetypeTableRecord
  2
Continuous
 70
0
  3

 72
65
 73
0
 40
0.0
  0
LTYPE
  5
2F
330
2
100
AcDbSymbolTableRecord
100
AcDbLinetypeTableRecord
  2
CENTER
 70
0
  3
Center ____ _ ____ _ ____ _ ____ _ ____ _ ____
 72
65
 73
4
 40
5.08
 49
3.175
 74
0
 49
-0.635
 74
0
 49
0.635
 74
0
 49
-0.635
 74
0
  0
LTYPE
  5
30
330
2
100
AcDbSymbolTableRecord
100
AcDbLinetypeTableRecord
  2
CENTERX2
 70
0
  3
Center (2x) ________  __  ________  __  ________
 72
65
 73
4
 40
8.89
 49
6.35
 74
0
 49
-0.635
 74
0
 49
1.27
 74
0
 49
-0.635
 74
0
  0
LTYPE
  5
31
330
2
100
AcDbSymbolTableRecord
100
AcDbLinetypeTableRecord
  2
CENTER2
 70
0
  3
Center (.5x) ____ _ ____ _ ____ _ ____ _ ____
 72
65
 73
4
 40
2.54
 49
1.587
 74
0
 49
-0.318
 74
0
 49
0.318
 74
0
 49
-0.318
 74
0
  0
LTYPE
  5
32
330
2
100
AcDbSymbolTableRecord
100
AcDbLinetypeTableRecord
  2
DASHED
 70
0
  3
Dashed __ __ __ __ __ __ __ __ __ __ __ __ __ _
 72
65
 73
2
 40
1.524
 49
1.27
 74
0
 49
-0.254
 74
0
  0
LTYPE
  5
33
330
2
100
AcDbSymbolTableRecord
100
AcDbLinetypeTableRecord
  2
DASHEDX2
 70
0
  3
Dashed (2x) ____  ____  ____  ____  ____  ____
 72
65
 73
2
 40
3.048
 49
2.54
 74
0
 49
-0.508
 74
0
  0
LTYPE
  5
34
330
2
100
AcDbSymbolTableRecord
100
AcDbLinetypeTableRecord
  2
DASHED2
 70
0
  3
Dashed (.5x) _ _ _ _ _ _ _ _ _ _ _ _ _ _
 72
65
 73
2
 40
0.762
 49
0.635
 74
0
 49
-0.127
 74
0
  0
LTYPE
  5
35
330
2
100
AcDbSymbolTableRecord
100
AcDbLinetypeTableRecord
  2
PHANTOM
 70
0
  3
Phantom ______  __  __  ______  __  __  ______
 72
65
 73
6
 40
6.35
 49
3.175
 74
0
 49
-0.635
 74
0
 49
0.635
 74
0
 49
-0.635
 74
0
 49
0.635
 74
0
 49
-0.635
 74
0
  0
LTYPE
  5
36
330
2
100
AcDbSymbolTableRecord
100
AcDbLinetypeTableRecord
  2
PHANTOMX2
 70
0
  3
Phantom (2x)____________    ____    ____    ____________
 72
65
 73
6
 40
10.795
 49
6.35
 74
0
 49
-0.635
 74
0
 49
1.27
 74
0
 49
-0.635
 74
0
 49
1.27
 74
0
 49
-0.635
 74
0
  0
LTYPE
  5
37
330
2
100
AcDbSymbolTableRecord
100
AcDbLinetypeTableRecord
  2
PHANTOM2
 70
0
  3
Phantom (.5x) ___ _ _ ___ _ _ ___ _ _ ___ _ _ ___
 72
65
 73
6
 40
3.175
 49
1.587
 74
0
 49
-0.318
 74
0
 49
0.318
 74
0
 49
-0.318
 74
0
 49
0.318
 74
0
 49
-0.318
 74
0
  0
LTYPE
  5
38
330
2
100
AcDbSymbolTableRecord
100
AcDbLinetypeTableRecord
  2
DASHDOT
 70
0
  3
Dash dot __ . __ . __ . __ . __ . __ . __ . __
 72
65
 73
4
 40
3.556
 49
2.54
 74
0
 49
-0.508
 74
0
 49
0.0
 74
0
 49
-0.508
 74
0
  0
LTYPE
  5
39
330
2
100
AcDbSymbolTableRecord
100
AcDbLinetypeTableRecord
  2
DASHDOTX2
 70
0
  3
Dash dot (2x) ____  .  ____  .  ____  .  ____
 72
65
 73
4
 40
6.096
 49
5.08
 74
0
 49
-0.508
 74
0
 49
0.0
 74
0
 49
-0.508
 74
0
  0
LTYPE
  5
3A
330
2
100
AcDbSymbolTableRecord
100
AcDbLinetypeTableRecord
  2
DASHDOT2
 70
0
  3
Dash dot (.5x) _ . _ . _ . _ . _ . _ . _ . _
 72
65
 73
4
 40
1.778
 49
1.27
 74
0
 49
-0.254
 74
0
 49
0.0
 74
0
 49
-0.254
 74
0
  0
LTYPE
  5
3B
330
2
100
AcDbSymbolTableRecord
100
AcDbLinetypeTableRecord
  2
DOT
 70
0
  3
Dot .  .  .  .  .  .  .  .  .  .  .  .  .  .  .  .
 72
65
 73
2
 40
0.508
 49
0.0
 74
0
 49
-0.508
 74
0
  0
LTYPE
  5
3C
330
2
100
AcDbSymbolTableRecord
100
AcDbLinetypeTableRecord
  2
DOTX2
 70
0
  3
Dot (2x) .    .    .    .    .    .    .    . 
 72
65
 73
2
 40
1.016
 49
0.0
 74
0
 49
-1.016
 74
0
  0
LTYPE
  5
3D
330
2
100
AcDbSymbolTableRecord
100
AcDbLinetypeTableRecord
  2
DOT2
 70
0
  3
Dot (.5) . . . . . . . . . . . . . . . . . . . 
 72
65
 73
2
 40
0.254
 49
0.0
 74
0
 49
-0.254
 74
0
  0
LTYPE
  5
3E
330
2
100
AcDbSymbolTableRecord
100
AcDbLinetypeTableRecord
  2
DIVIDE
 70
0
  3
Divide __ . . __ . . __ . . __ . . __ . . __
 72
65
 73
6
 40
4.064
 49
2.54
 74
0
 49
-0.508
 74
0
 49
0.0
 74
0
 49
-0.508
 74
0
 49
0.0
 74
0
 49
-0.508
 74
0
  0
LTYPE
  5
3F
330
2
100
AcDbSymbolTableRecord
100
AcDbLinetypeTableRecord
  2
DIVIDEX2
 70
0
  3
Divide (2x) ____  . .  ____  . .  ____  . .  ____
 72
65
 73
6
 40
6.604
 49
5.08
 74
0
 49
-0.508
 74
0
 49
0.0
 74
0
 49
-0.508
 74
0
 49
0.0
 74
0
 49
-0.508
 74
0
  0
LTYPE
  5
40
330
2
100
AcDbSymbolTableRecord
100
AcDbLinetypeTableRecord
  2
DIVIDE2
 70
0
  3
Divide(.5x) _ . _ . _ . _ . _ . _ . _ . _
 72
65
 73
6
 40
2.032
 49
1.27
 74
0
 49
-0.254
 74
0
 49
0.0
 74
0
 49
-0.254
 74
0
 49
0.0
 74
0
 49
-0.254
 74
0
  0
ENDTAB
  0
TABLE
  2
LAYER
  5
1
330
0
100
AcDbSymbolTable
 70
9
  0
LAYER
  5
27
330
1
100
AcDbSymbolTableRecord
100
AcDbLayerTableRecord
  2
0
 70
0
 62
7
  6
Continuous
370
-3
390
13
347
21
  0
LAYER
  5
28
330
1
100
AcDbSymbolTableRecord
100
AcDbLayerTableRecord
  2
Defpoints
 70
0
 62
7
  6
Continuous
290
0
370
-3
390
13
347
21
  0
LAYER
  5
8A
330
1
100
AcDbSymbolTableRecord
100
AcDbLayerTableRecord
  2
MARC
 70
0
 62
7
  6
Continuous
370
70
390
13
347
21
  0
LAYER
  5
8B
330
1
100
AcDbSymbolTableRecord
100
AcDbLayerTableRecord
  2
CAIXETI
 70
0
 62
7
  6
Continuous
370
35
390
13
347
21
  0
LAYER
  5
8C
330
1
100
AcDbSymbolTableRecord
100
AcDbLayerTableRecord
  2
FUSTA
 70
0
 62
7
  6
Continuous
370
50
390
13
347
21
  0
LAYER
  5
8D
330
1
100
AcDbSymbolTableRecord
100
AcDbLayerTableRecord
  2
TELA
 70
0
 62
8
  6
Continuous
370
25
390
13
347
21
  0
LAYER
  5
8E
330
1
100
AcDbSymbolTableRecord
100
AcDbLayerTableRecord
  2
COTES
 70
0
 62
1
  6
Continuous
370
18
390
13
347
21
  0
LAYER
  5
8F
330
1
100
AcDbSymbolTableRecord
100
AcDbLayerTableRecord
  2
EIXOS
 70
0
 62
3
  6
CENTER
370
13
390
13
347
21
  0
LAYER
  5
90
330
1
100
AcDbSymbolTableRecord
100
AcDbLayerTableRecord
  2
TEXT
 70
0
 62
7
  6
Continuous
370
25
390
13
347
21
  0
ENDTAB
  0
TABLE
  2
STYLE
  5
5
330
0
100
AcDbSymbolTable
 70
27
  0
STYLE
  5
29
330
5
100
AcDbSymbolTableRecord
100
AcDbTextStyleTableRecord
  2
Standard
 70
0
 40
0.0
 41
1.0
 50
0.0
 71
0
 42
2.5
  3
txt
  4

  0
STYLE
  5
41
330
5
100
AcDbSymbolTableRecord
100
AcDbTextStyleTableRecord
  2
OpenSans-Light
 70
0
 40
0.0
 41
1.0
 50
0.0
 71
0
 42
2.5
  3
OpenSans-Light.ttf
  4

  0
STYLE
  5
42
330
5
100
AcDbSymbolTableRecord
100
AcDbTextStyleTableRecord
  2
OpenSans-Light-Italic
 70
0
 40
0.0
 41
1.0
 50
0.0
 71
0
 42
2.5
  3
OpenSans-LightItalic.ttf
  4

  0
STYLE
  5
43
330
5
100
AcDbSymbolTableRecord
100
AcDbTextStyleTableRecord
  2
OpenSans
 70
0
 40
0.0
 41
1.0
 50
0.0
 71
0
 42
2.5
  3
OpenSans-Regular.ttf
  4

  0
STYLE
  5
44
330
5
100
AcDbSymbolTableRecord
100
AcDbTextStyleTableRecord
  2
OpenSans-Italic
 70
0
 40
0.0
 41
1.0
 50
0.0
 71
0
 42
2.5
  3
OpenSans-Italic.ttf
  4

  0
STYLE
  5
45
330
5
100
AcDbSymbolTableRecord
100
AcDbTextStyleTableRecord
  2
OpenSans-SemiBold
 70
0
 40
0.0
 41
1.0
 50
0.0
 71
0
 42
2.5
  3
OpenSans-SemiBold.ttf
  4

  0
STYLE
  5
46
330
5
100
AcDbSymbolTableRecord
100
AcDbTextStyleTableRecord
  2
OpenSans-SemiBoldItalic
 70
0
 40
0.0
 41
1.0
 50
0.0
 71
0
 42
2.5
  3
OpenSans-SemiBoldItalic.ttf
  4

  0
STYLE
  5
47
330
5
100
AcDbSymbolTableRecord
100
AcDbTextStyleTableRecord
  2
OpenSans-Bold
 70
0
 40
0.0
 41
1.0
 50
0.0
 71
0
 42
2.5
  3
OpenSans-Bold.ttf
  4

  0
STYLE
  5
48
330
5
100
AcDbSymbolTableRecord
100
AcDbTextStyleTableRecord
  2
OpenSans-BoldItalic
 70
0
 40
0.0
 41
1.0
 50
0.0
 71
0
 42
2.5
  3
OpenSans-BoldItalic.ttf
  4

  0
STYLE
  5
49
330
5
100
AcDbSymbolTableRecord
100
AcDbTextStyleTableRecord
  2
OpenSans-ExtraBold
 70
0
 40
0.0
 41
1.0
 50
0.0
 71
0
 42
2.5
  3
OpenSans-ExtraBold.ttf
  4

  0
STYLE
  5
4A
330
5
100
AcDbSymbolTableRecord
100
AcDbTextStyleTableRecord
  2
OpenSans-ExtraBoldItalic
 70
0
 40
0.0
 41
1.0
 50
0.0
 71
0
 42
2.5
  3
OpenSans-ExtraBoldItalic.ttf
  4

  0
STYLE
  5
4B
330
5
100
AcDbSymbolTableRecord
100
AcDbTextStyleTableRecord
  2
OpenSansCondensed-Bold
 70
0
 40
0.0
 41
1.0
 50
0.0
 71
0
 42
2.5
  3
OpenSansCondensed-Bold.ttf
  4

  0
STYLE
  5
4C
330
5
100
AcDbSymbolTableRecord
100
AcDbTextStyleTableRecord
  2
OpenSansCondensed-Light
 70
0
 40
0.0
 41
1.0
 50
0.0
 71
0
 42
2.5
  3
OpenSansCondensed-Light.ttf
  4

  0
STYLE
  5
4D
330
5
100
AcDbSymbolTableRecord
100
AcDbTextStyleTableRecord
  2
OpenSansCondensed-Italic
 70
0
 40
0.0
 41
1.0
 50
0.0
 71
0
 42
2.5
  3
OpenSansCondensed-LightItalic.ttf
  4

  0
STYLE
  5
4E
330
5
100
AcDbSymbolTableRecord
100
AcDbTextStyleTableRecord
  2
LiberationSans
 70
0
 40
0.0
 41
1.0
 50
0.0
 71
0
 42
2.5
  3
LiberationSans-Regular.ttf
  4

  0
STYLE
  5
4F
330
5
100
AcDbSymbolTableRecord
100
AcDbTextStyleTableRecord
  2
LiberationSans-Bold
 70
0
 40
0.0
 41
1.0
 50
0.0
 71
0
 42
2.5
  3
LiberationSans-Bold.ttf
  4

  0
STYLE
  5
50
330
5
100
AcDbSymbolTableRecord
100
AcDbTextStyleTableRecord
  2
LiberationSans-BoldItalic
 70
0
 40
0.0
 41
1.0
 50
0.0
 71
0
 42
2.5
  3
LiberationSans-BoldItalic.ttf
  4

  0
STYLE
  5
51
330
5
100
AcDbSymbolTableRecord
100
AcDbTextStyleTableRecord
  2
LiberationSans-Italic
 70
0
 40
0.0
 41
1.0
 50
0.0
 71
0
 42
2.5
  3
LiberationSans-Italic.ttf
  4

  0
STYLE
  5
52
330
5
100
AcDbSymbolTableRecord
100
AcDbTextStyleTableRecord
  2
LiberationSerif
 70
0
 40
0.0
 41
1.0
 50
0.0
 71
0
 42
2.5
  3
LiberationSerif-Regular.ttf
  4

  0
STYLE
  5
53
330
5
100
AcDbSymbolTableRecord
100
AcDbTextStyleTableRecord
  2
LiberationSerif-Bold
 70
0
 40
0.0
 41
1.0
 50
0.0
 71
0
 42
2.5
  3
LiberationSerif-Bold.ttf
  4

  0
STYLE
  5
54
330
5
100
AcDbSymbolTableRecord
100
AcDbTextStyleTableRecord
  2
LiberationSerif-BoldItalic
 70
0
 40
0.0
 41
1.0
 50
0.0
 71
0
 42
2.5
  3
LiberationSerif-BoldItalic.ttf
  4

  0
STYLE
  5
55
330
5
100
AcDbSymbolTableRecord
100
AcDbTextStyleTableRecord
  2
LiberationSerif-Italic
 70
0
 40
0.0
 41
1.0
 50
0.0
 71
0
 42
2.5
  3
LiberationSerif-Italic.ttf
  4

  0
STYLE
  5
56
330
5
100
AcDbSymbolTableRecord
100
AcDbTextStyleTableRecord
  2
LiberationMono
 70
0
 40
0.0
 41
1.0
 50
0.0
 71
0
 42
2.5
  3
LiberationMono-Regular.ttf
  4

  0
STYLE
  5
57
330
5
100
AcDbSymbolTableRecord
100
AcDbTextStyleTableRecord
  2
LiberationMono-Bold
 70
0
 40
0.0
 41
1.0
 50
0.0
 71
0
 42
2.5
  3
LiberationMono-Bold.ttf
  4

  0
STYLE
  5
58
330
5
100
AcDbSymbolTableRecord
100
AcDbTextStyleTableRecord
  2
LiberationMono-BoldItalic
 70
0
 40
0.0
 41
1.0
 50
0.0
 71
0
 42
2.5
  3
LiberationMono-BoldItalic.ttf
  4

  0
STYLE
  5
59
330
5
100
AcDbSymbolTableRecord
100
AcDbTextStyleTableRecord
  2
LiberationMono-Italic
 70
0
 40
0.0
 41
1.0
 50
0.0
 71
0
 42
2.5
  3
LiberationMono-Italic.ttf
  4

  0
STYLE
  5
91
330
5
100
AcDbSymbolTableRecord
100
AcDbTextStyleTableRecord
  2
EXAR
 70
0
 40
0.0
 41
1.0
 50
0.0
 71
0
 42
2.5
  3
DejaVuSans.ttf
  4

  0
ENDTAB
  0
TABLE
  2
VIEW
  5
7
330
0
100
AcDbSymbolTable
 70
0
  0
ENDTAB
  0
TABLE
  2
UCS
  5
6
330
0
100
AcDbSymbolTable
 70
0
  0
ENDTAB
  0
TABLE
  2
APPID
  5
3
330
0
100
AcDbSymbolTable
 70
3
  0
APPID
  5
2A
330
3
100
AcDbSymbolTableRecord
100
AcDbRegAppTableRecord
  2
ACAD
 70
0
  0
APPID
  5
36F
330
3
100
AcDbSymbolTableRecord
100
AcDbRegAppTableRecord
  2
HATCHBACKGROUNDCOLOR
 70
0
  0
APPID
  5
370
330
3
100
AcDbSymbolTableRecord
100
AcDbRegAppTableRecord
  2
EZDXF
 70
0
  0
ENDTAB
  0
TABLE
  2
DIMSTYLE
  5
4
330
0
100
AcDbSymbolTable
 70
13
100
AcDbDimStyleTable
  0
DIMSTYLE
105
2B
330
4
100
AcDbSymbolTableRecord
100
AcDbDimStyleTableRecord
  2
Standard
 70
0
 40
1.0
 41
2.5
 42
0.625
 43
3.75
 44
1.25
 45
0.0
 46
0.0
 47
0.0
 48
0.0
 49
2.5
140
2.5
141
2.5
142
0.0
143
0.03937007874
144
1.0
145
0.0
146
1.0
147
0.625
148
0.0
 69
0
 70
0
 71
0
 72
0
 73
0
 74
0
 75
0
 76
0
 77
1
 78
8
 79
3
170
0
171
3
172
1
173
0
174
0
175
0
176
0
177
0
178
0
179
2
271
2
272
2
273
2
274
3
275
0
276
0
277
2
278
44
279
0
280
0
281
0
282
0
283
0
284
8
285
0
286
0
288
0
289
3
290
0
371
-2
372
-2
  0
DIMSTYLE
105
73
330
4
100
AcDbSymbolTableRecord
100
AcDbDimStyleTableRecord
  2
EZDXF
 70
0
 40
1.0
 41
0.175
 42
0.125
 43
3.75
 44
0.375
 45
0.0
 46
0.0
 47
0.0
 48
0.0
 49
2.5
140
0.25
141
2.5
142
0.0
143
0.03937007874
144
100.0
145
0.0
146
0.5
147
0.1
148
0.0
 69
0
 70
0
 71
0
 72
0
 73
0
 74
0
 75
0
 76
0
 77
1
 78
12
 79
3
170
0
171
3
172
1
173
0
174
0
175
0
176
0
177
0
178
0
179
2
271
2
272
2
273
2
274
3
275
0
276
0
277
2
278
46
279
2
280
0
281
0
282
0
283
0
284
8
285
0
286
0
288
1
289
3
290
0
340
4C
342
74
371
-2
372
-2
  0
DIMSTYLE
105
7C
330
4
100
AcDbSymbolTableRecord
100
AcDbDimStyleTableRecord
  2
EZ_M_100_H25_CM
 70
0
 40
1.0
 41
0.25
 42
0.125
 43
3.75
 44
0.375
 45
0.0
 46
0.0
 47
0.0
 48
0.0
 49
2.5
140
0.25
141
2.5
142
0.125
143
0.03937007874
144
100.0
145
0.0
146
0.5
147
0.1
148
0.0
 69
0
 70
0
 71
0
 72
0
 73
0
 74
0
 75
0
 76
0
 77
1
 78
12
 79
3
170
0
171
3
172
1
173
0
174
0
175
0
176
0
177
0
178
0
179
2
271
2
272
2
273
2
274
3
275
0
276
0
277
2
278
46
279
2
280
0
281
0
282
0
283
0
284
8
285
0
286
0
288
1
289
3
290
0
340
4C
371
-2
372
-2
  0
DIMSTYLE
105
7D
330
4
100
AcDbSymbolTableRecord
100
AcDbDimStyleTableRecord
  2
EZ_M_50_H25_CM
 70
0
 40
1.0
 41
0.125
 42
0.0625
 43
3.75
 44
0.1875
 45
0.0
 46
0.0
 47
0.0
 48
0.0
 49
2.5
140
0.125
141
2.5
142
0.0625
143
0.03937007874
144
100.0
145
0.0
146
0.5
147
0.05
148
0.0
 69
0
 70
0
 71
0
 72
0
 73
0
 74
0
 75
0
 76
0
 77
1
 78
12
 79
3
170
0
171
3
172
1
173
0
174
0
175
0
176
0
177
0
178
0
179
2
271
2
272
2
273
2
274
3
275
0
276
0
277
2
278
46
279
2
280
0
281
0
282
0
283
0
284
8
285
0
286
0
288
1
289
3
290
0
340
4C
371
-2
372
-2
  0
DIMSTYLE
105
7E
330
4
100
AcDbSymbolTableRecord
100
AcDbDimStyleTableRecord
  2
EZ_M_25_H25_CM
 70
0
 40
1.0
 41
0.0625
 42
0.03125
 43
3.75
 44
0.09375
 45
0.0
 46
0.0
 47
0.0
 48
0.0
 49
2.5
140
0.0625
141
2.5
142
0.03125
143
0.03937007874
144
100.0
145
0.0
146
0.5
147
0.025
148
0.0
 69
0
 70
0
 71
0
 72
0
 73
0
 74
0
 75
0
 76
0
 77
1
 78
12
 79
3
170
0
171
3
172
1
173
0
174
0
175
0
176
0
177
0
178
0
179
2
271
2
272
2
273
2
274
3
275
0
276
0
277
2
278
46
279
2
280
0
281
0
282
0
283
0
284
8
285
0
286
0
288
1
289
3
290
0
340
4C
371
-2
372
-2
  0
DIMSTYLE
105
7F
330
4
100
AcDbSymbolTableRecord
100
AcDbDimStyleTableRecord
  2
EZ_M_20_H25_CM
 70
0
 40
1.0
 41
0.05
 42
0.025
 43
3.75
 44
0.07500000000000001
 45
0.0
 46
0.0
 47
0.0
 48
0.0
 49
2.5
140
0.05
141
2.5
142
0.025
143
0.03937007874
144
100.0
145
0.0
146
0.5
147
0.020000000000000004
148
0.0
 69
0
 70
0
 71
0
 72
0
 73
0
 74
0
 75
0
 76
0
 77
1
 78
12
 79
3
170
0
171
3
172
1
173
0
174
0
175
0
176
0
177
0
178
0
179
2
271
2
272
2
273
2
274
3
275
0
276
0
277
2
278
46
279
2
280
0
281
0
282
0
283
0
284
8
285
0
286
0
288
1
289
3
290
0
340
4C
371
-2
372
-2
  0
DIMSTYLE
105
80
330
4
100
AcDbSymbolTableRecord
100
AcDbDimStyleTableRecord
  2
EZ_M_10_H25_CM
 70
0
 40
1.0
 41
0.025
 42
0.0125
 43
3.75
 44
0.037500000000000006
 45
0.0
 46
0.0
 47
0.0
 48
0.0
 49
2.5
140
0.025
141
2.5
142
0.0125
143
0.03937007874
144
100.0
145
0.0
146
0.5
147
0.010000000000000002
148
0.0
 69
0
 70
0
 71
0
 72
0
 73
0
 74
0
 75
0
 76
0
 77
1
 78
12
 79
3
170
0
171
3
172
1
173
0
174
0
175
0
176
0
177
0
178
0
179
2
271
2
272
2
273
2
274
3
275
0
276
0
277
2
278
46
279
2
280
0
281
0
282
0
283
0
284
8
285
0
286
0
288
1
289
3
290
0
340
4C
371
-2
372
-2
  0
DIMSTYLE
105
81
330
4
100
AcDbSymbolTableRecord
100
AcDbDimStyleTableRecord
  2
EZ_M_5_H25_CM
 70
0
 40
1.0
 41
0.0125
 42
0.00625
 43
3.75
 44
0.018750000000000003
 45
0.0
 46
0.0
 47
0.0
 48
0.0
 49
2.5
140
0.0125
141
2.5
142
0.00625
143
0.03937007874
144
100.0
145
0.0
146
0.5
147
0.005000000000000001
148
0.0
 69
0
 70
0
 71
0
 72
0
 73
0
 74
0
 75
0
 76
0
 77
1
 78
12
 79
3
170
0
171
3
172
1
173
0
174
0
175
0
176
0
177
0
178
0
179
2
271
2
272
2
273
2
274
3
275
0
276
0
277
2
278
46
279
2
280
0
281
0
282
0
283
0
284
8
285
0
286
0
288
1
289
3
290
0
340
4C
371
-2
372
-2
  0
DIMSTYLE
105
82
330
4
100
AcDbSymbolTableRecord
100
AcDbDimStyleTableRecord
  2
EZ_M_1_H25_CM
 70
0
 40
1.0
 41
0.0025
 42
0.00125
 43
3.75
 44
0.00375
 45
0.0
 46
0.0
 47
0.0
 48
0.0
 49
2.5
140
0.0025
141
2.5
142
0.00125
143
0.03937007874
144
100.0
145
0.0
146
0.5
147
0.001
148
0.0
 69
0
 70
0
 71
0
 72
0
 73
0
 74
0
 75
0
 76
0
 77
1
 78
12
 79
3
170
0
171
3
172
1
173
0
174
0
175
0
176
0
177
0
178
0
179
2
271
2
272
2
273
2
274
3
275
0
276
0
277
2
278
46
279
2
280
0
281
0
282
0
283
0
284
8
285
0
286
0
288
1
289
3
290
0
340
4C
371
-2
372
-2
  0
DIMSTYLE
105
83
330
4
100
AcDbSymbolTableRecord
100
AcDbDimStyleTableRecord
  2
EZ_RADIUS
 70
0
 40
1.0
 41
0.25
 42
0.125
 43
3.75
 44
0.375
 45
0.0
 46
0.0
 47
0.0
 48
0.0
 49
2.5
140
0.25
141
0.0
142
0.0
143
0.03937007874
144
100.0
145
0.0
146
0.5
147
0.1
148
0.0
 69
0
 70
0
 71
0
 72
0
 73
0
 74
0
 75
0
 76
0
 77
1
 78
12
 79
3
170
0
171
3
172
0
173
0
174
0
175
0
176
0
177
0
178
0
179
2
271
2
272
2
273
2
274
3
275
0
276
0
277
2
278
46
279
1
280
0
281
0
282
0
283
0
284
8
285
0
286
0
288
1
289
3
290
0
340
4C
342
84
371
-2
372
-2
  0
DIMSTYLE
105
88
330
4
100
AcDbSymbolTableRecord
100
AcDbDimStyleTableRecord
  2
EZ_RADIUS_INSIDE
 70
0
 40
1.0
 41
0.25
 42
0.125
 43
3.75
 44
0.375
 45
0.0
 46
0.0
 47
0.0
 48
0.0
 49
2.5
140
0.25
141
0.0
142
0.0
143
0.03937007874
144
100.0
145
0.0
146
0.5
147
0.1
148
0.0
 69
0
 70
0
 71
0
 72
0
 73
0
 74
0
 75
0
 76
0
 77
0
 78
12
 79
3
170
0
171
3
172
0
173
0
174
1
175
0
176
0
177
0
178
0
179
2
271
2
272
2
273
2
274
3
275
0
276
0
277
2
278
46
279
0
280
0
281
0
282
0
283
0
284
8
285
0
286
0
288
1
289
0
290
0
340
4C
342
84
371
-2
372
-2
  0
DIMSTYLE
105
89
330
4
100
AcDbSymbolTableRecord
100
AcDbDimStyleTableRecord
  2
EZ_CURVED
 70
0
 40
1.0
 41
0.25
 42
0.125
 43
3.75
 44
0.375
 45
0.0
 46
0.0
 47
0.0
 48
0.0
 49
2.5
140
0.25
141
2.5
142
0.0
143
0.03937007874
144
100.0
145
0.0
146
0.5
147
0.1
148
0.0
 69
0
 70
0
 71
0
 72
0
 73
0
 74
0
 75
0
 76
0
 77
1
 78
12
 79
2
 90
2
170
0
171
3
172
1
173
0
174
0
175
0
176
0
177
0
178
0
179
2
271
2
272
2
273
2
274
3
275
0
276
0
277
2
278
46
279
2
280
0
281
0
282
0
283
0
284
8
285
0
286
0
288
1
289
3
290
0
340
4C
371
-2
372
-2
  0
DIMSTYLE
105
92
330
4
100
AcDbSymbolTableRecord
100
AcDbDimStyleTableRecord
  2
EXAR_1-10
 70
0
 40
10.0
 41
1.8
 42
1.0
 43
3.75
 44
1.2
 45
0.0
 46
0.0
 47
0.0
 48
0.0
 49
2.5
140
2.0
141
2.5
142
0.0
143
0.03937007874
144
1.0
145
0.0
146
1.0
147
0.8
148
0.0
 69
0
 70
0
 71
0
 72
0
 73
0
 74
0
 75
0
 76
0
 77
1
 78
8
 79
3
170
0
171
3
172
1
173
0
174
0
175
0
176
1
177
1
178
7
179
2
271
0
272
2
273
2
274
3
275
0
276
0
277
2
278
44
279
0
280
0
281
0
282
0
283
0
284
8
285
0
286
0
288
0
289
3
290
0
340
91
342
74
371
-2
372
-2
  0
ENDTAB
  0
TABLE
  2
BLOCK_RECORD
  5
9
330
0
100
AcDbSymbolTable
 70
33
  0
BLOCK_RECORD
  5
17
330
9
100
AcDbSymbolTableRecord
100
AcDbBlockTableRecord
  2
*Model_Space
340
1A
 70
0
280
1
281
0
  0
BLOCK_RECORD
  5
1B
330
9
100
AcDbSymbolTableRecord
100
AcDbBlockTableRecord
  2
*Paper_Space
340
1E
 70
0
280
1
281
0
  0
BLOCK_RECORD
  5
74
330
9
100
AcDbSymbolTableRecord
100
AcDbBlockTableRecord
  2
_ARCHTICK
340
0
 70
0
280
1
281
0
  0
BLOCK_RECORD
  5
78
330
9
100
AcDbSymbolTableRecord
100
AcDbBlockTableRecord
  2
_CLOSEDFILLED
340
0
 70
0
280
1
281
0
  0
BLOCK_RECORD
  5
84
330
9
100
AcDbSymbolTableRecord
100
AcDbBlockTableRecord
  2
_CLOSEDBLANK
340
0
 70
0
280
1
281
0
  0
BLOCK_RECORD
  5
146
330
9
100
AcDbSymbolTableRecord
100
AcDbBlockTableRecord
  2
*D1
340
0
 70
0
280
1
281
0
  0
BLOCK_RECORD
  5
155
330
9
100
AcDbSymbolTableRecord
100
AcDbBlockTableRecord
  2
*D2
340
0
 70
0
280
1
281
0
  0
BLOCK_RECORD
  5
164
330
9
100
AcDbSymbolTableRecord
100
AcDbBlockTableRecord
  2
*D3
340
0
 70
0
280
1
281
0
  0
BLOCK_RECORD
  5
173
330
9
100
AcDbSymbolTableRecord
100
AcDbBlockTableRecord
  2
*D4
340
0
 70
0
280
1
281
0
  0
BLOCK_RECORD
  5
182
330
9
100
AcDbSymbolTableRecord
100
AcDbBlockTableRecord
  2
*D5
340
0
 70
0
280
1
281
0
  0
BLOCK_RECORD
  5
191
330
9
100
AcDbSymbolTableRecord
100
AcDbBlockTableRecord
  2
*D6
340
0
 70
0
280
1
281
0
  0
BLOCK_RECORD
  5
1A0
330
9
100
AcDbSymbolTableRecord
100
AcDbBlockTableRecord
  2
*D7
340
0
 70
0
280
1
281
0
  0
BLOCK_RECORD
  5
1AF
330
9
100
AcDbSymbolTableRecord
100
AcDbBlockTableRecord
  2
*D8
340
0
 70
0
280
1
281
0
  0
BLOCK_RECORD
  5
1BE
330
9
100
AcDbSymbolTableRecord
100
AcDbBlockTableRecord
  2
*D9
340
0
 70
0
280
1
281
0
  0
BLOCK_RECORD
  5
1CE
330
9
100
AcDbSymbolTableRecord
100
AcDbBlockTableRecord
  2
*D10
340
0
 70
0
280
1
281
0
  0
BLOCK_RECORD
  5
1DD
330
9
100
AcDbSymbolTableRecord
100
AcDbBlockTableRecord
  2
*D11
340
0
 70
0
280
1
281
0
  0
BLOCK_RECORD
  5
1EC
330
9
100
AcDbSymbolTableRecord
100
AcDbBlockTableRecord
  2
*D12
340
0
 70
0
280
1
281
0
  0
BLOCK_RECORD
  5
1FB
330
9
100
AcDbSymbolTableRecord
100
AcDbBlockTableRecord
  2
*D13
340
0
 70
0
280
1
281
0
  0
BLOCK_RECORD
  5
20A
330
9
100
AcDbSymbolTableRecord
100
AcDbBlockTableRecord
  2
*D14
340
0
 70
0
280
1
281
0
  0
BLOCK_RECORD
  5
219
330
9
100
AcDbSymbolTableRecord
100
AcDbBlockTableRecord
  2
*D15
340
0
 70
0
280
1
281
0
  0
BLOCK_RECORD
  5
228
330
9
100
AcDbSymbolTableRecord
100
AcDbBlockTableRecord
  2
*D16
340
0
 70
0
280
1
281
0
  0
BLOCK_RECORD
  5
237
330
9
100
AcDbSymbolTableRecord
100
AcDbBlockTableRecord
  2
*D17
340
0
 70
0
280
1
281
0
  0
BLOCK_RECORD
  5
246
330
9
100
AcDbSymbolTableRecord
100
AcDbBlockTableRecord
  2
*D18
340
0
 70
0
280
1
281
0
  0
BLOCK_RECORD
  5
255
330
9
100
AcDbSymbolTableRecord
100
AcDbBlockTableRecord
  2
*D19
340
0
 70
0
280
1
281
0
  0
BLOCK_RECORD
  5
264
330
9
100
AcDbSymbolTableRecord
100
AcDbBlockTableRecord
  2
*D20
340
0
 70
0
280
1
281
0
  0
BLOCK_RECORD
  5
273
330
9
100
AcDbSymbolTableRecord
100
AcDbBlockTableRecord
  2
*D21
340
0
 70
0
280
1
281
0
  0
BLOCK_RECORD
  5
283
330
9
100
AcDbSymbolTableRecord
100
AcDbBlockTableRecord
  2
*D22
340
0
 70
0
280
1
281
0
  0
BLOCK_RECORD
  5
292
330
9
100
AcDbSymbolTableRecord
100
AcDbBlockTableRecord
  2
*D23
340
0
 70
0
280
1
281
0
  0
BLOCK_RECORD
  5
2A1
330
9
100
AcDbSymbolTableRecord
100
AcDbBlockTableRecord
  2
*D24
340
0
 70
0
280
1
281
0
  0
BLOCK_RECORD
  5
2B0
330
9
100
AcDbSymbolTableRecord
100
AcDbBlockTableRecord
  2
*D25
340
0
 70
0
280
1
281
0
  0
BLOCK_RECORD
  5
2BF
330
9
100
AcDbSymbolTableRecord
100
AcDbBlockTableRecord
  2
*D26
340
0
 70
0
280
1
281
0
  0
BLOCK_RECORD
  5
2CE
330
9
100
AcDbSymbolTableRecord
100
AcDbBlockTableRecord
  2
*D27
340
0
 70
0
280
1
281
0
  0
BLOCK_RECORD
  5
2DD
330
9
100
AcDbSymbolTableRecord
100
AcDbBlockTableRecord
  2
*D28
340
0
 70
0
280
1
281
0
  0
ENDTAB
  0
ENDSEC
  0
SECTION
  2
BLOCKS
  0
BLOCK
  5
18
330
17
100
AcDbEntity
  8
0
100
AcDbBlockBegin
  2
*Model_Space
 70
0
 10
0.0
 20
0.0
 30
0.0
  3
*Model_Space
  1

  0
ENDBLK
  5
19
330
17
100
AcDbEntity
  8
0
100
AcDbBlockEnd
  0
BLOCK
  5
1C
330
1B
100
AcDbEntity
  8
0
100
AcDbBlockBegin
  2
*Paper_Space
 70
0
 10
0.0
 20
0.0
 30
0.0
  3
*Paper_Space
  1

  0
ENDBLK
  5
1D
330
1B
100
AcDbEntity
  8
0
100
AcDbBlockEnd
  0
BLOCK
  5
75
330
74
100
AcDbEntity
  8
0
100
AcDbBlockBegin
  2
_ARCHTICK
 70
0
 10
0.0
 20
0.0
 30
0.0
  3
_ARCHTICK
  1

  0
LWPOLYLINE
  5
77
330
74
100
AcDbEntity
  8
0
  6
BYBLOCK
 62
0
100
AcDbPolyline
 90
2
 70
0
 43
0.15
 10
-0.5
 20
-0.5
 10
0.5
 20
0.5
  0
ENDBLK
  5
76
330
74
100
AcDbEntity
  8
0
100
AcDbBlockEnd
  0
BLOCK
  5
79
330
78
100
AcDbEntity
  8
0
100
AcDbBlockBegin
  2
_CLOSEDFILLED
 70
0
 10
0.0
 20
0.0
 30
0.0
  3
_CLOSEDFILLED
  1

  0
SOLID
  5
7B
330
78
100
AcDbEntity
  8
0
  6
BYBLOCK
 62
0
100
AcDbTrace
 10
-1.0
 20
0.16439898372402537
 30
0.0
 11
0.0
 21
0.0
 31
0.0
 12
-1.0
 22
-0.16439898372402537
 32
0.0
 13
-1.0
 23
-0.16439898372402537
 33
0.0
  0
ENDBLK
  5
7A
330
78
100
AcDbEntity
  8
0
100
AcDbBlockEnd
  0
BLOCK
  5
85
330
84
100
AcDbEntity
  8
0
100
AcDbBlockBegin
  2
_CLOSEDBLANK
 70
0
 10
0.0
 20
0.0
 30
0.0
  3
_CLOSEDBLANK
  1

  0
LWPOLYLINE
  5
87
330
84
100
AcDbEntity
  8
0
  6
BYBLOCK
 62
0
100
AcDbPolyline
 90
3
 70
1
 10
-1.0
 20
0.16439898372402537
 10
0.0
 20
0.0
 10
-1.0
 20
-0.16439898372402537
  0
ENDBLK
  5
86
330
84
100
AcDbEntity
  8
0
100
AcDbBlockEnd
  0
BLOCK
  5
147
330
146
100
AcDbEntity
  8
0
100
AcDbBlockBegin
  2
*D1
 70
1
 10
0.0
 20
0.0
 30
0.0
  3
*D1
  1

  0
LINE
  5
149
330
146
100
AcDbEntity
  8
0
 62
1
100
AcDbLine
 10
600.0
 20
1410.0
 30
0.0
 11
600.0
 21
1278.0
 31
0.0
  0
LINE
  5
14A
330
146
100
AcDbEntity
  8
0
 62
1
100
AcDbLine
 10
1160.0
 20
1410.0
 30
0.0
 11
1160.0
 21
1278.0
 31
0.0
  0
INSERT
  5
14B
330
146
100
AcDbEntity
  8
COTES
 62
1
100
AcDbBlockReference
  2
_ARCHTICK
 10
600.0
 20
1290.0
 30
0.0
 41
18.0
 42
18.0
 50
180.0
  0
INSERT
  5
14D
330
146
100
AcDbEntity
  8
COTES
 62
1
100
AcDbBlockReference
  2
_ARCHTICK
 10
1160.0
 20
1290.0
 30
0.0
 41
18.0
 42
18.0
  0
LINE
  5
14F
330
146
100
AcDbEntity
  8
0
 62
1
100
AcDbLine
 10
600.0
 20
1290.0
 30
0.0
 11
1160.0
 21
1290.0
 31
0.0
  0
MTEXT
  5
150
330
146
100
AcDbEntity
  8
COTES
 62
7
100
AcDbMText
 10
880.0
 20
1308.0
 30
0.0
 40
20.0
 71
5
  1
560
  7
EXAR
  0
POINT
  5
151
330
146
100
AcDbEntity
  8
Defpoints
100
AcDbPoint
 10
600.0
 20
1290.0
 30
0.0
  0
POINT
  5
152
330
146
100
AcDbEntity
  8
Defpoints
100
AcDbPoint
 10
600.0
 20
1420.0
 30
0.0
  0
POINT
  5
153
330
146
100
AcDbEntity
  8
Defpoints
100
AcDbPoint
 10
1160.0
 20
1420.0
 30
0.0
  0
ENDBLK
  5
148
330
146
100
AcDbEntity
  8
0
100
AcDbBlockEnd
  0
BLOCK
  5
156
330
155
100
AcDbEntity
  8
0
100
AcDbBlockBegin
  2
*D2
 70
1
 10
0.0
 20
0.0
 30
0.0
  3
*D2
  1

  0
LINE
  5
158
330
155
100
AcDbEntity
  8
0
 62
1
100
AcDbLine
 10
600.0
 20
1410.0
 30
0.0
 11
600.0
 21
1348.0
 31
0.0
  0
LINE
  5
159
330
155
100
AcDbEntity
  8
0
 62
1
100
AcDbLine
 10
640.0
 20
1410.0
 30
0.0
 11
640.0
 21
1348.0
 31
0.0
  0
INSERT
  5
15A
330
155
100
AcDbEntity
  8
COTES
 62
1
100
AcDbBlockReference
  2
_ARCHTICK
 10
600.0
 20
1360.0
 30
0.0
 41
18.0
 42
18.0
  0
INSERT
  5
15C
330
155
100
AcDbEntity
  8
COTES
 62
1
100
AcDbBlockReference
  2
_ARCHTICK
 10
640.0
 20
1360.0
 30
0.0
 41
18.0
 42
18.0
 50
180.0
  0
LINE
  5
15E
330
155
100
AcDbEntity
  8
0
 62
1
100
AcDbLine
 10
600.0
 20
1360.0
 30
0.0
 11
640.0
 21
1360.0
 31
0.0
  0
MTEXT
  5
15F
330
155
100
AcDbEntity
  8
COTES
 62
7
100
AcDbMText
 10
620.0
 20
1378.0
 30
0.0
 40
20.0
 71
5
  1
40
  7
EXAR
  0
POINT
  5
160
330
155
100
AcDbEntity
  8
Defpoints
100
AcDbPoint
 10
600.0
 20
1360.0
 30
0.0
  0
POINT
  5
161
330
155
100
AcDbEntity
  8
Defpoints
100
AcDbPoint
 10
600.0
 20
1420.0
 30
0.0
  0
POINT
  5
162
330
155
100
AcDbEntity
  8
Defpoints
100
AcDbPoint
 10
640.0
 20
1420.0
 30
0.0
  0
ENDBLK
  5
157
330
155
100
AcDbEntity
  8
0
100
AcDbBlockEnd
  0
BLOCK
  5
165
330
164
100
AcDbEntity
  8
0
100
AcDbBlockBegin
  2
*D3
 70
1
 10
0.0
 20
0.0
 30
0.0
  3
*D3
  1

  0
LINE
  5
167
330
164
100
AcDbEntity
  8
0
 62
1
100
AcDbLine
 10
640.0
 20
1410.0
 30
0.0
 11
640.0
 21
1348.0
 31
0.0
  0
LINE
  5
168
330
164
100
AcDbEntity
  8
0
 62
1
100
AcDbLine
 10
1120.0
 20
1410.0
 30
0.0
 11
1120.0
 21
1348.0
 31
0.0
  0
INSERT
  5
169
330
164
100
AcDbEntity
  8
COTES
 62
1
100
AcDbBlockReference
  2
_ARCHTICK
 10
640.0
 20
1360.0
 30
0.0
 41
18.0
 42
18.0
 50
180.0
  0
INSERT
  5
16B
330
164
100
AcDbEntity
  8
COTES
 62
1
100
AcDbBlockReference
  2
_ARCHTICK
 10
1120.0
 20
1360.0
 30
0.0
 41
18.0
 42
18.0
  0
LINE
  5
16D
330
164
100
AcDbEntity
  8
0
 62
1
100
AcDbLine
 10
640.0
 20
1360.0
 30
0.0
 11
1120.0
 21
1360.0
 31
0.0
  0
MTEXT
  5
16E
330
164
100
AcDbEntity
  8
COTES
 62
7
100
AcDbMText
 10
880.0
 20
1378.0
 30
0.0
 40
20.0
 71
5
  1
480
  7
EXAR
  0
POINT
  5
16F
330
164
100
AcDbEntity
  8
Defpoints
100
AcDbPoint
 10
640.0
 20
1360.0
 30
0.0
  0
POINT
  5
170
330
164
100
AcDbEntity
  8
Defpoints
100
AcDbPoint
 10
640.0
 20
1420.0
 30
0.0
  0
POINT
  5
171
330
164
100
AcDbEntity
  8
Defpoints
100
AcDbPoint
 10
1120.0
 20
1420.0
 30
0.0
  0
ENDBLK
  5
166
330
164
100
AcDbEntity
  8
0
100
AcDbBlockEnd
  0
BLOCK
  5
174
330
173
100
AcDbEntity
  8
0
100
AcDbBlockBegin
  2
*D4
 70
1
 10
0.0
 20
0.0
 30
0.0
  3
*D4
  1

  0
LINE
  5
176
330
173
100
AcDbEntity
  8
0
 62
1
100
AcDbLine
 10
590.0
 20
1420.0
 30
0.0
 11
328.0
 21
1420.0
 31
0.0
  0
LINE
  5
177
330
173
100
AcDbEntity
  8
0
 62
1
100
AcDbLine
 10
590.0
 20
2380.0
 30
0.0
 11
328.0
 21
2380.0
 31
0.0
  0
INSERT
  5
178
330
173
100
AcDbEntity
  8
COTES
 62
1
100
AcDbBlockReference
  2
_ARCHTICK
 10
340.0
 20
1420.0
 30
0.0
 41
18.0
 42
18.0
 50
270.0
  0
INSERT
  5
17A
330
173
100
AcDbEntity
  8
COTES
 62
1
100
AcDbBlockReference
  2
_ARCHTICK
 10
340.0
 20
2380.0
 30
0.0
 41
18.0
 42
18.0
 50
90.0
  0
LINE
  5
17C
330
173
100
AcDbEntity
  8
0
 62
1
100
AcDbLine
 10
340.0
 20
1420.0
 30
0.0
 11
340.0
 21
2380.0
 31
0.0
  0
MTEXT
  5
17D
330
173
100
AcDbEntity
  8
COTES
 62
7
100
AcDbMText
 10
322.0
 20
1900.0
 30
0.0
 40
20.0
 71
5
  1
960
  7
EXAR
 50
90.0
  0
POINT
  5
17E
330
173
100
AcDbEntity
  8
Defpoints
100
AcDbPoint
 10
340.0
 20
1420.0
 30
0.0
  0
POINT
  5
17F
330
173
100
AcDbEntity
  8
Defpoints
100
AcDbPoint
 10
600.0
 20
1420.0
 30
0.0
  0
POINT
  5
180
330
173
100
AcDbEntity
  8
Defpoints
100
AcDbPoint
 10
600.0
 20
2380.0
 30
0.0
  0
ENDBLK
  5
175
330
173
100
AcDbEntity
  8
0
100
AcDbBlockEnd
  0
BLOCK
  5
183
330
182
100
AcDbEntity
  8
0
100
AcDbBlockBegin
  2
*D5
 70
1
 10
0.0
 20
0.0
 30
0.0
  3
*D5
  1

  0
LINE
  5
185
330
182
100
AcDbEntity
  8
0
 62
1
100
AcDbLine
 10
590.0
 20
1420.0
 30
0.0
 11
458.0
 21
1420.0
 31
0.0
  0
LINE
  5
186
330
182
100
AcDbEntity
  8
0
 62
1
100
AcDbLine
 10
590.0
 20
1660.0
 30
0.0
 11
458.0
 21
1660.0
 31
0.0
  0
INSERT
  5
187
330
182
100
AcDbEntity
  8
COTES
 62
1
100
AcDbBlockReference
  2
_ARCHTICK
 10
470.0
 20
1420.0
 30
0.0
 41
18.0
 42
18.0
 50
270.0
  0
INSERT
  5
189
330
182
100
AcDbEntity
  8
COTES
 62
1
100
AcDbBlockReference
  2
_ARCHTICK
 10
470.0
 20
1660.0
 30
0.0
 41
18.0
 42
18.0
 50
90.0
  0
LINE
  5
18B
330
182
100
AcDbEntity
  8
0
 62
1
100
AcDbLine
 10
470.0
 20
1420.0
 30
0.0
 11
470.0
 21
1660.0
 31
0.0
  0
MTEXT
  5
18C
330
182
100
AcDbEntity
  8
COTES
 62
7
100
AcDbMText
 10
452.0
 20
1540.0
 30
0.0
 40
20.0
 71
5
  1
240
  7
EXAR
 50
90.0
  0
POINT
  5
18D
330
182
100
AcDbEntity
  8
Defpoints
100
AcDbPoint
 10
470.0
 20
1420.0
 30
0.0
  0
POINT
  5
18E
330
182
100
AcDbEntity
  8
Defpoints
100
AcDbPoint
 10
600.0
 20
1420.0
 30
0.0
  0
POINT
  5
18F
330
182
100
AcDbEntity
  8
Defpoints
100
AcDbPoint
 10
600.0
 20
1660.0
 30
0.0
  0
ENDBLK
  5
184
330
182
100
AcDbEntity
  8
0
100
AcDbBlockEnd
  0
BLOCK
  5
192
330
191
100
AcDbEntity
  8
0
100
AcDbBlockBegin
  2
*D6
 70
1
 10
0.0
 20
0.0
 30
0.0
  3
*D6
  1

  0
LINE
  5
194
330
191
100
AcDbEntity
  8
0
 62
1
100
AcDbLine
 10
590.0
 20
1660.0
 30
0.0
 11
458.0
 21
1660.0
 31
0.0
  0
LINE
  5
195
330
191
100
AcDbEntity
  8
0
 62
1
100
AcDbLine
 10
590.0
 20
1860.0
 30
0.0
 11
458.0
 21
1860.0
 31
0.0
  0
INSERT
  5
196
330
191
100
AcDbEntity
  8
COTES
 62
1
100
AcDbBlockReference
  2
_ARCHTICK
 10
470.0
 20
1660.0
 30
0.0
 41
18.0
 42
18.0
 50
270.0
  0
INSERT
  5
198
330
191
100
AcDbEntity
  8
COTES
 62
1
100
AcDbBlockReference
  2
_ARCHTICK
 10
470.0
 20
1860.0
 30
0.0
 41
18.0
 42
18.0
 50
90.0
  0
LINE
  5
19A
330
191
100
AcDbEntity
  8
0
 62
1
100
AcDbLine
 10
470.0
 20
1660.0
 30
0.0
 11
470.0
 21
1860.0
 31
0.0
  0
MTEXT
  5
19B
330
191
100
AcDbEntity
  8
COTES
 62
7
100
AcDbMText
 10
452.0
 20
1760.0
 30
0.0
 40
20.0
 71
5
  1
200
  7
EXAR
 50
90.0
  0
POINT
  5
19C
330
191
100
AcDbEntity
  8
Defpoints
100
AcDbPoint
 10
470.0
 20
1660.0
 30
0.0
  0
POINT
  5
19D
330
191
100
AcDbEntity
  8
Defpoints
100
AcDbPoint
 10
600.0
 20
1660.0
 30
0.0
  0
POINT
  5
19E
330
191
100
AcDbEntity
  8
Defpoints
100
AcDbPoint
 10
600.0
 20
1860.0
 30
0.0
  0
ENDBLK
  5
193
330
191
100
AcDbEntity
  8
0
100
AcDbBlockEnd
  0
BLOCK
  5
1A1
330
1A0
100
AcDbEntity
  8
0
100
AcDbBlockBegin
  2
*D7
 70
1
 10
0.0
 20
0.0
 30
0.0
  3
*D7
  1

  0
LINE
  5
1A3
330
1A0
100
AcDbEntity
  8
0
 62
1
100
AcDbLine
 10
590.0
 20
1860.0
 30
0.0
 11
458.0
 21
1860.0
 31
0.0
  0
LINE
  5
1A4
330
1A0
100
AcDbEntity
  8
0
 62
1
100
AcDbLine
 10
590.0
 20
2060.0
 30
0.0
 11
458.0
 21
2060.0
 31
0.0
  0
INSERT
  5
1A5
330
1A0
100
AcDbEntity
  8
COTES
 62
1
100
AcDbBlockReference
  2
_ARCHTICK
 10
470.0
 20
1860.0
 30
0.0
 41
18.0
 42
18.0
 50
270.0
  0
INSERT
  5
1A7
330
1A0
100
AcDbEntity
  8
COTES
 62
1
100
AcDbBlockReference
  2
_ARCHTICK
 10
470.0
 20
2060.0
 30
0.0
 41
18.0
 42
18.0
 50
90.0
  0
LINE
  5
1A9
330
1A0
100
AcDbEntity
  8
0
 62
1
100
AcDbLine
 10
470.0
 20
1860.0
 30
0.0
 11
470.0
 21
2060.0
 31
0.0
  0
MTEXT
  5
1AA
330
1A0
100
AcDbEntity
  8
COTES
 62
7
100
AcDbMText
 10
452.0
 20
1960.0
 30
0.0
 40
20.0
 71
5
  1
200
  7
EXAR
 50
90.0
  0
POINT
  5
1AB
330
1A0
100
AcDbEntity
  8
Defpoints
100
AcDbPoint
 10
470.0
 20
1860.0
 30
0.0
  0
POINT
  5
1AC
330
1A0
100
AcDbEntity
  8
Defpoints
100
AcDbPoint
 10
600.0
 20
1860.0
 30
0.0
  0
POINT
  5
1AD
330
1A0
100
AcDbEntity
  8
Defpoints
100
AcDbPoint
 10
600.0
 20
2060.0
 30
0.0
  0
ENDBLK
  5
1A2
330
1A0
100
AcDbEntity
  8
0
100
AcDbBlockEnd
  0
BLOCK
  5
1B0
330
1AF
100
AcDbEntity
  8
0
100
AcDbBlockBegin
  2
*D8
 70
1
 10
0.0
 20
0.0
 30
0.0
  3
*D8
  1

  0
LINE
  5
1B2
330
1AF
100
AcDbEntity
  8
0
 62
1
100
AcDbLine
 10
590.0
 20
2060.0
 30
0.0
 11
458.0
 21
2060.0
 31
0.0
  0
LINE
  5
1B3
330
1AF
100
AcDbEntity
  8
0
 62
1
100
AcDbLine
 10
590.0
 20
2100.0
 30
0.0
 11
458.0
 21
2100.0
 31
0.0
  0
INSERT
  5
1B4
330
1AF
100
AcDbEntity
  8
COTES
 62
1
100
AcDbBlockReference
  2
_ARCHTICK
 10
470.0
 20
2060.0
 30
0.0
 41
18.0
 42
18.0
 50
90.0
  0
INSERT
  5
1B6
330
1AF
100
AcDbEntity
  8
COTES
 62
1
100
AcDbBlockReference
  2
_ARCHTICK
 10
470.0
 20
2100.0
 30
0.0
 41
18.0
 42
18.0
 50
270.0
  0
LINE
  5
1B8
330
1AF
100
AcDbEntity
  8
0
 62
1
100
AcDbLine
 10
470.0
 20
2060.0
 30
0.0
 11
470.0
 21
2100.0
 31
0.0
  0
MTEXT
  5
1B9
330
1AF
100
AcDbEntity
  8
COTES
 62
7
100
AcDbMText
 10
452.0
 20
2080.0
 30
0.0
 40
20.0
 71
5
  1
40
  7
EXAR
 50
90.0
  0
POINT
  5
1BA
330
1AF
100
AcDbEntity
  8
Defpoints
100
AcDbPoint
 10
470.0
 20
2060.0
 30
0.0
  0
POINT
  5
1BB
330
1AF
100
AcDbEntity
  8
Defpoints
100
AcDbPoint
 10
600.0
 20
2060.0
 30
0.0
  0
POINT
  5
1BC
330
1AF
100
AcDbEntity
  8
Defpoints
100
AcDbPoint
 10
600.0
 20
2100.0
 30
0.0
  0
ENDBLK
  5
1B1
330
1AF
100
AcDbEntity
  8
0
100
AcDbBlockEnd
  0
BLOCK
  5
1BF
330
1BE
100
AcDbEntity
  8
0
100
AcDbBlockBegin
  2
*D9
 70
1
 10
0.0
 20
0.0
 30
0.0
  3
*D9
  1

  0
LINE
  5
1C1
330
1BE
100
AcDbEntity
  8
0
 62
1
100
AcDbLine
 10
590.0
 20
2100.0
 30
0.0
 11
458.0
 21
2100.0
 31
0.0
  0
LINE
  5
1C2
330
1BE
100
AcDbEntity
  8
0
 62
1
100
AcDbLine
 10
590.0
 20
2380.0
 30
0.0
 11
458.0
 21
2380.0
 31
0.0
  0
INSERT
  5
1C3
330
1BE
100
AcDbEntity
  8
COTES
 62
1
100
AcDbBlockReference
  2
_ARCHTICK
 10
470.0
 20
2100.0
 30
0.0
 41
18.0
 42
18.0
 50
270.0
  0
INSERT
  5
1C5
330
1BE
100
AcDbEntity
  8
COTES
 62
1
100
AcDbBlockReference
  2
_ARCHTICK
 10
470.0
 20
2380.0
 30
0.0
 41
18.0
 42
18.0
 50
90.0
  0
LINE
  5
1C7
330
1BE
100
AcDbEntity
  8
0
 62
1
100
AcDbLine
 10
470.0
 20
2100.0
 30
0.0
 11
470.0
 21
2380.0
 31
0.0
  0
MTEXT
  5
1C8
330
1BE
100
AcDbEntity
  8
COTES
 62
7
100
AcDbMText
 10
452.0
 20
2240.0
 30
0.0
 40
20.0
 71
5
  1
280
  7
EXAR
 50
90.0
  0
POINT
  5
1C9
330
1BE
100
AcDbEntity
  8
Defpoints
100
AcDbPoint
 10
470.0
 20
2100.0
 30
0.0
  0
POINT
  5
1CA
330
1BE
100
AcDbEntity
  8
Defpoints
100
AcDbPoint
 10
600.0
 20
2100.0
 30
0.0
  0
POINT
  5
1CB
330
1BE
100
AcDbEntity
  8
Defpoints
100
AcDbPoint
 10
600.0
 20
2380.0
 30
0.0
  0
ENDBLK
  5
1C0
330
1BE
100
AcDbEntity
  8
0
100
AcDbBlockEnd
  0
BLOCK
  5
1CF
330
1CE
100
AcDbEntity
  8
0
100
AcDbBlockBegin
  2
*D10
 70
1
 10
0.0
 20
0.0
 30
0.0
  3
*D10
  1

  0
LINE
  5
1D1
330
1CE
100
AcDbEntity
  8
0
 62
1
100
AcDbLine
 10
1660.0
 20
1410.0
 30
0.0
 11
1660.0
 21
1278.0
 31
0.0
  0
LINE
  5
1D2
330
1CE
100
AcDbEntity
  8
0
 62
1
100
AcDbLine
 10
2220.0
 20
1410.0
 30
0.0
 11
2220.0
 21
1278.0
 31
0.0
  0
INSERT
  5
1D3
330
1CE
100
AcDbEntity
  8
COTES
 62
1
100
AcDbBlockReference
  2
_ARCHTICK
 10
1660.0
 20
1290.0
 30
0.0
 41
18.0
 42
18.0
 50
180.0
  0
INSERT
  5
1D5
330
1CE
100
AcDbEntity
  8
COTES
 62
1
100
AcDbBlockReference
  2
_ARCHTICK
 10
2220.0
 20
1290.0
 30
0.0
 41
18.0
 42
18.0
  0
LINE
  5
1D7
330
1CE
100
AcDbEntity
  8
0
 62
1
100
AcDbLine
 10
1660.0
 20
1290.0
 30
0.0
 11
2220.0
 21
1290.0
 31
0.0
  0
MTEXT
  5
1D8
330
1CE
100
AcDbEntity
  8
COTES
 62
7
100
AcDbMText
 10
1940.0
 20
1308.0
 30
0.0
 40
20.0
 71
5
  1
560
  7
EXAR
  0
POINT
  5
1D9
330
1CE
100
AcDbEntity
  8
Defpoints
100
AcDbPoint
 10
1660.0
 20
1290.0
 30
0.0
  0
POINT
  5
1DA
330
1CE
100
AcDbEntity
  8
Defpoints
100
AcDbPoint
 10
1660.0
 20
1420.0
 30
0.0
  0
POINT
  5
1DB
330
1CE
100
AcDbEntity
  8
Defpoints
100
AcDbPoint
 10
2220.0
 20
1420.0
 30
0.0
  0
ENDBLK
  5
1D0
330
1CE
100
AcDbEntity
  8
0
100
AcDbBlockEnd
  0
BLOCK
  5
1DE
330
1DD
100
AcDbEntity
  8
0
100
AcDbBlockBegin
  2
*D11
 70
1
 10
0.0
 20
0.0
 30
0.0
  3
*D11
  1

  0
LINE
  5
1E0
330
1DD
100
AcDbEntity
  8
0
 62
1
100
AcDbLine
 10
1660.0
 20
1410.0
 30
0.0
 11
1660.0
 21
1348.0
 31
0.0
  0
LINE
  5
1E1
330
1DD
100
AcDbEntity
  8
0
 62
1
100
AcDbLine
 10
1700.0
 20
1410.0
 30
0.0
 11
1700.0
 21
1348.0
 31
0.0
  0
INSERT
  5
1E2
330
1DD
100
AcDbEntity
  8
COTES
 62
1
100
AcDbBlockReference
  2
_ARCHTICK
 10
1660.0
 20
1360.0
 30
0.0
 41
18.0
 42
18.0
  0
INSERT
  5
1E4
330
1DD
100
AcDbEntity
  8
COTES
 62
1
100
AcDbBlockReference
  2
_ARCHTICK
 10
1700.0
 20
1360.0
 30
0.0
 41
18.0
 42
18.0
 50
180.0
  0
LINE
  5
1E6
330
1DD
100
AcDbEntity
  8
0
 62
1
100
AcDbLine
 10
1660.0
 20
1360.0
 30
0.0
 11
1700.0
 21
1360.0
 31
0.0
  0
MTEXT
  5
1E7
330
1DD
100
AcDbEntity
  8
COTES
 62
7
100
AcDbMText
 10
1680.0
 20
1378.0
 30
0.0
 40
20.0
 71
5
  1
40
  7
EXAR
  0
POINT
  5
1E8
330
1DD
100
AcDbEntity
  8
Defpoints
100
AcDbPoint
 10
1660.0
 20
1360.0
 30
0.0
  0
POINT
  5
1E9
330
1DD
100
AcDbEntity
  8
Defpoints
100
AcDbPoint
 10
1660.0
 20
1420.0
 30
0.0
  0
POINT
  5
1EA
330
1DD
100
AcDbEntity
  8
Defpoints
100
AcDbPoint
 10
1700.0
 20
1420.0
 30
0.0
  0
ENDBLK
  5
1DF
330
1DD
100
AcDbEntity
  8
0
100
AcDbBlockEnd
  0
BLOCK
  5
1ED
330
1EC
100
AcDbEntity
  8
0
100
AcDbBlockBegin
  2
*D12
 70
1
 10
0.0
 20
0.0
 30
0.0
  3
*D12
  1

  0
LINE
  5
1EF
330
1EC
100
AcDbEntity
  8
0
 62
1
100
AcDbLine
 10
1700.0
 20
1410.0
 30
0.0
 11
1700.0
 21
1348.0
 31
0.0
  0
LINE
  5
1F0
330
1EC
100
AcDbEntity
  8
0
 62
1
100
AcDbLine
 10
1780.0
 20
1410.0
 30
0.0
 11
1780.0
 21
1348.0
 31
0.0
  0
INSERT
  5
1F1
330
1EC
100
AcDbEntity
  8
COTES
 62
1
100
AcDbBlockReference
  2
_ARCHTICK
 10
1700.0
 20
1360.0
 30
0.0
 41
18.0
 42
18.0
 50
180.0
  0
INSERT
  5
1F3
330
1EC
100
AcDbEntity
  8
COTES
 62
1
100
AcDbBlockReference
  2
_ARCHTICK
 10
1780.0
 20
1360.0
 30
0.0
 41
18.0
 42
18.0
  0
LINE
  5
1F5
330
1EC
100
AcDbEntity
  8
0
 62
1
100
AcDbLine
 10
1700.0
 20
1360.0
 30
0.0
 11
1780.0
 21
1360.0
 31
0.0
  0
MTEXT
  5
1F6
330
1EC
100
AcDbEntity
  8
COTES
 62
7
100
AcDbMText
 10
1740.0
 20
1378.0
 30
0.0
 40
20.0
 71
5
  1
80
  7
EXAR
  0
POINT
  5
1F7
330
1EC
100
AcDbEntity
  8
Defpoints
100
AcDbPoint
 10
1700.0
 20
1360.0
 30
0.0
  0
POINT
  5
1F8
330
1EC
100
AcDbEntity
  8
Defpoints
100
AcDbPoint
 10
1700.0
 20
1420.0
 30
0.0
  0
POINT
  5
1F9
330
1EC
100
AcDbEntity
  8
Defpoints
100
AcDbPoint
 10
1780.0
 20
1420.0
 30
0.0
  0
ENDBLK
  5
1EE
330
1EC
100
AcDbEntity
  8
0
100
AcDbBlockEnd
  0
BLOCK
  5
1FC
330
1FB
100
AcDbEntity
  8
0
100
AcDbBlockBegin
  2
*D13
 70
1
 10
0.0
 20
0.0
 30
0.0
  3
*D13
  1

  0
LINE
  5
1FE
330
1FB
100
AcDbEntity
  8
0
 62
1
100
AcDbLine
 10
1780.0
 20
1410.0
 30
0.0
 11
1780.0
 21
1348.0
 31
0.0
  0
LINE
  5
1FF
330
1FB
100
AcDbEntity
  8
0
 62
1
100
AcDbLine
 10
1820.0
 20
1410.0
 30
0.0
 11
1820.0
 21
1348.0
 31
0.0
  0
INSERT
  5
200
330
1FB
100
AcDbEntity
  8
COTES
 62
1
100
AcDbBlockReference
  2
_ARCHTICK
 10
1780.0
 20
1360.0
 30
0.0
 41
18.0
 42
18.0
  0
INSERT
  5
202
330
1FB
100
AcDbEntity
  8
COTES
 62
1
100
AcDbBlockReference
  2
_ARCHTICK
 10
1820.0
 20
1360.0
 30
0.0
 41
18.0
 42
18.0
 50
180.0
  0
LINE
  5
204
330
1FB
100
AcDbEntity
  8
0
 62
1
100
AcDbLine
 10
1780.0
 20
1360.0
 30
0.0
 11
1820.0
 21
1360.0
 31
0.0
  0
MTEXT
  5
205
330
1FB
100
AcDbEntity
  8
COTES
 62
7
100
AcDbMText
 10
1800.0
 20
1378.0
 30
0.0
 40
20.0
 71
5
  1
40
  7
EXAR
  0
POINT
  5
206
330
1FB
100
AcDbEntity
  8
Defpoints
100
AcDbPoint
 10
1780.0
 20
1360.0
 30
0.0
  0
POINT
  5
207
330
1FB
100
AcDbEntity
  8
Defpoints
100
AcDbPoint
 10
1780.0
 20
1420.0
 30
0.0
  0
POINT
  5
208
330
1FB
100
AcDbEntity
  8
Defpoints
100
AcDbPoint
 10
1820.0
 20
1420.0
 30
0.0
  0
ENDBLK
  5
1FD
330
1FB
100
AcDbEntity
  8
0
100
AcDbBlockEnd
  0
BLOCK
  5
20B
330
20A
100
AcDbEntity
  8
0
100
AcDbBlockBegin
  2
*D14
 70
1
 10
0.0
 20
0.0
 30
0.0
  3
*D14
  1

  0
LINE
  5
20D
330
20A
100
AcDbEntity
  8
0
 62
1
100
AcDbLine
 10
1820.0
 20
1410.0
 30
0.0
 11
1820.0
 21
1348.0
 31
0.0
  0
LINE
  5
20E
330
20A
100
AcDbEntity
  8
0
 62
1
100
AcDbLine
 10
2180.0
 20
1410.0
 30
0.0
 11
2180.0
 21
1348.0
 31
0.0
  0
INSERT
  5
20F
330
20A
100
AcDbEntity
  8
COTES
 62
1
100
AcDbBlockReference
  2
_ARCHTICK
 10
1820.0
 20
1360.0
 30
0.0
 41
18.0
 42
18.0
 50
180.0
  0
INSERT
  5
211
330
20A
100
AcDbEntity
  8
COTES
 62
1
100
AcDbBlockReference
  2
_ARCHTICK
 10
2180.0
 20
1360.0
 30
0.0
 41
18.0
 42
18.0
  0
LINE
  5
213
330
20A
100
AcDbEntity
  8
0
 62
1
100
AcDbLine
 10
1820.0
 20
1360.0
 30
0.0
 11
2180.0
 21
1360.0
 31
0.0
  0
MTEXT
  5
214
330
20A
100
AcDbEntity
  8
COTES
 62
7
100
AcDbMText
 10
2000.0
 20
1378.0
 30
0.0
 40
20.0
 71
5
  1
360
  7
EXAR
  0
POINT
  5
215
330
20A
100
AcDbEntity
  8
Defpoints
100
AcDbPoint
 10
1820.0
 20
1360.0
 30
0.0
  0
POINT
  5
216
330
20A
100
AcDbEntity
  8
Defpoints
100
AcDbPoint
 10
1820.0
 20
1420.0
 30
0.0
  0
POINT
  5
217
330
20A
100
AcDbEntity
  8
Defpoints
100
AcDbPoint
 10
2180.0
 20
1420.0
 30
0.0
  0
ENDBLK
  5
20C
330
20A
100
AcDbEntity
  8
0
100
AcDbBlockEnd
  0
BLOCK
  5
21A
330
219
100
AcDbEntity
  8
0
100
AcDbBlockBegin
  2
*D15
 70
1
 10
0.0
 20
0.0
 30
0.0
  3
*D15
  1

  0
LINE
  5
21C
330
219
100
AcDbEntity
  8
0
 62
1
100
AcDbLine
 10
2180.0
 20
1410.0
 30
0.0
 11
2180.0
 21
1348.0
 31
0.0
  0
LINE
  5
21D
330
219
100
AcDbEntity
  8
0
 62
1
100
AcDbLine
 10
2220.0
 20
1410.0
 30
0.0
 11
2220.0
 21
1348.0
 31
0.0
  0
INSERT
  5
21E
330
219
100
AcDbEntity
  8
COTES
 62
1
100
AcDbBlockReference
  2
_ARCHTICK
 10
2180.0
 20
1360.0
 30
0.0
 41
18.0
 42
18.0
  0
INSERT
  5
220
330
219
100
AcDbEntity
  8
COTES
 62
1
100
AcDbBlockReference
  2
_ARCHTICK
 10
2220.0
 20
1360.0
 30
0.0
 41
18.0
 42
18.0
 50
180.0
  0
LINE
  5
222
330
219
100
AcDbEntity
  8
0
 62
1
100
AcDbLine
 10
2180.0
 20
1360.0
 30
0.0
 11
2220.0
 21
1360.0
 31
0.0
  0
MTEXT
  5
223
330
219
100
AcDbEntity
  8
COTES
 62
7
100
AcDbMText
 10
2200.0
 20
1378.0
 30
0.0
 40
20.0
 71
5
  1
40
  7
EXAR
  0
POINT
  5
224
330
219
100
AcDbEntity
  8
Defpoints
100
AcDbPoint
 10
2180.0
 20
1360.0
 30
0.0
  0
POINT
  5
225
330
219
100
AcDbEntity
  8
Defpoints
100
AcDbPoint
 10
2180.0
 20
1420.0
 30
0.0
  0
POINT
  5
226
330
219
100
AcDbEntity
  8
Defpoints
100
AcDbPoint
 10
2220.0
 20
1420.0
 30
0.0
  0
ENDBLK
  5
21B
330
219
100
AcDbEntity
  8
0
100
AcDbBlockEnd
  0
BLOCK
  5
229
330
228
100
AcDbEntity
  8
0
100
AcDbBlockBegin
  2
*D16
 70
1
 10
0.0
 20
0.0
 30
0.0
  3
*D16
  1

  0
LINE
  5
22B
330
228
100
AcDbEntity
  8
0
 62
1
100
AcDbLine
 10
1660.0
 20
2110.0
 30
0.0
 11
1660.0
 21
2202.0
 31
0.0
  0
LINE
  5
22C
330
228
100
AcDbEntity
  8
0
 62
1
100
AcDbLine
 10
2140.0
 20
2110.0
 30
0.0
 11
2140.0
 21
2202.0
 31
0.0
  0
INSERT
  5
22D
330
228
100
AcDbEntity
  8
COTES
 62
1
100
AcDbBlockReference
  2
_ARCHTICK
 10
1660.0
 20
2190.0
 30
0.0
 41
18.0
 42
18.0
 50
180.0
  0
INSERT
  5
22F
330
228
100
AcDbEntity
  8
COTES
 62
1
100
AcDbBlockReference
  2
_ARCHTICK
 10
2140.0
 20
2190.0
 30
0.0
 41
18.0
 42
18.0
  0
LINE
  5
231
330
228
100
AcDbEntity
  8
0
 62
1
100
AcDbLine
 10
1660.0
 20
2190.0
 30
0.0
 11
2140.0
 21
2190.0
 31
0.0
  0
MTEXT
  5
232
330
228
100
AcDbEntity
  8
COTES
 62
7
100
AcDbMText
 10
1900.0
 20
2208.0
 30
0.0
 40
20.0
 71
5
  1
480
  7
EXAR
  0
POINT
  5
233
330
228
100
AcDbEntity
  8
Defpoints
100
AcDbPoint
 10
1660.0
 20
2190.0
 30
0.0
  0
POINT
  5
234
330
228
100
AcDbEntity
  8
Defpoints
100
AcDbPoint
 10
1660.0
 20
2100.0
 30
0.0
  0
POINT
  5
235
330
228
100
AcDbEntity
  8
Defpoints
100
AcDbPoint
 10
2140.0
 20
2100.0
 30
0.0
  0
ENDBLK
  5
22A
330
228
100
AcDbEntity
  8
0
100
AcDbBlockEnd
  0
BLOCK
  5
238
330
237
100
AcDbEntity
  8
0
100
AcDbBlockBegin
  2
*D17
 70
1
 10
0.0
 20
0.0
 30
0.0
  3
*D17
  1

  0
LINE
  5
23A
330
237
100
AcDbEntity
  8
0
 62
1
100
AcDbLine
 10
2230.0
 20
1420.0
 30
0.0
 11
2352.0
 21
1420.0
 31
0.0
  0
LINE
  5
23B
330
237
100
AcDbEntity
  8
0
 62
1
100
AcDbLine
 10
2230.0
 20
1780.0
 30
0.0
 11
2352.0
 21
1780.0
 31
0.0
  0
INSERT
  5
23C
330
237
100
AcDbEntity
  8
COTES
 62
1
100
AcDbBlockReference
  2
_ARCHTICK
 10
2340.0
 20
1420.0
 30
0.0
 41
18.0
 42
18.0
 50
270.0
  0
INSERT
  5
23E
330
237
100
AcDbEntity
  8
COTES
 62
1
100
AcDbBlockReference
  2
_ARCHTICK
 10
2340.0
 20
1780.0
 30
0.0
 41
18.0
 42
18.0
 50
90.0
  0
LINE
  5
240
330
237
100
AcDbEntity
  8
0
 62
1
100
AcDbLine
 10
2340.0
 20
1420.0
 30
0.0
 11
2340.0
 21
1780.0
 31
0.0
  0
MTEXT
  5
241
330
237
100
AcDbEntity
  8
COTES
 62
7
100
AcDbMText
 10
2322.0
 20
1600.0
 30
0.0
 40
20.0
 71
5
  1
360
  7
EXAR
 50
90.0
  0
POINT
  5
242
330
237
100
AcDbEntity
  8
Defpoints
100
AcDbPoint
 10
2340.0
 20
1420.0
 30
0.0
  0
POINT
  5
243
330
237
100
AcDbEntity
  8
Defpoints
100
AcDbPoint
 10
2220.0
 20
1420.0
 30
0.0
  0
POINT
  5
244
330
237
100
AcDbEntity
  8
Defpoints
100
AcDbPoint
 10
2220.0
 20
1780.0
 30
0.0
  0
ENDBLK
  5
239
330
237
100
AcDbEntity
  8
0
100
AcDbBlockEnd
  0
BLOCK
  5
247
330
246
100
AcDbEntity
  8
0
100
AcDbBlockBegin
  2
*D18
 70
1
 10
0.0
 20
0.0
 30
0.0
  3
*D18
  1

  0
LINE
  5
249
330
246
100
AcDbEntity
  8
0
 62
1
100
AcDbLine
 10
2230.0
 20
1420.0
 30
0.0
 11
2452.0
 21
1420.0
 31
0.0
  0
LINE
  5
24A
330
246
100
AcDbEntity
  8
0
 62
1
100
AcDbLine
 10
2230.0
 20
1860.0
 30
0.0
 11
2452.0
 21
1860.0
 31
0.0
  0
INSERT
  5
24B
330
246
100
AcDbEntity
  8
COTES
 62
1
100
AcDbBlockReference
  2
_ARCHTICK
 10
2440.0
 20
1420.0
 30
0.0
 41
18.0
 42
18.0
 50
270.0
  0
INSERT
  5
24D
330
246
100
AcDbEntity
  8
COTES
 62
1
100
AcDbBlockReference
  2
_ARCHTICK
 10
2440.0
 20
1860.0
 30
0.0
 41
18.0
 42
18.0
 50
90.0
  0
LINE
  5
24F
330
246
100
AcDbEntity
  8
0
 62
1
100
AcDbLine
 10
2440.0
 20
1420.0
 30
0.0
 11
2440.0
 21
1860.0
 31
0.0
  0
MTEXT
  5
250
330
246
100
AcDbEntity
  8
COTES
 62
7
100
AcDbMText
 10
2422.0
 20
1640.0
 30
0.0
 40
20.0
 71
5
  1
440
  7
EXAR
 50
90.0
  0
POINT
  5
251
330
246
100
AcDbEntity
  8
Defpoints
100
AcDbPoint
 10
2440.0
 20
1420.0
 30
0.0
  0
POINT
  5
252
330
246
100
AcDbEntity
  8
Defpoints
100
AcDbPoint
 10
2220.0
 20
1420.0
 30
0.0
  0
POINT
  5
253
330
246
100
AcDbEntity
  8
Defpoints
100
AcDbPoint
 10
2220.0
 20
1860.0
 30
0.0
  0
ENDBLK
  5
248
330
246
100
AcDbEntity
  8
0
100
AcDbBlockEnd
  0
BLOCK
  5
256
330
255
100
AcDbEntity
  8
0
100
AcDbBlockBegin
  2
*D19
 70
1
 10
0.0
 20
0.0
 30
0.0
  3
*D19
  1

  0
LINE
  5
258
330
255
100
AcDbEntity
  8
0
 62
1
100
AcDbLine
 10
2230.0
 20
1420.0
 30
0.0
 11
2552.0
 21
1420.0
 31
0.0
  0
LINE
  5
259
330
255
100
AcDbEntity
  8
0
 62
1
100
AcDbLine
 10
2230.0
 20
2100.0
 30
0.0
 11
2552.0
 21
2100.0
 31
0.0
  0
INSERT
  5
25A
330
255
100
AcDbEntity
  8
COTES
 62
1
100
AcDbBlockReference
  2
_ARCHTICK
 10
2540.0
 20
1420.0
 30
0.0
 41
18.0
 42
18.0
 50
270.0
  0
INSERT
  5
25C
330
255
100
AcDbEntity
  8
COTES
 62
1
100
AcDbBlockReference
  2
_ARCHTICK
 10
2540.0
 20
2100.0
 30
0.0
 41
18.0
 42
18.0
 50
90.0
  0
LINE
  5
25E
330
255
100
AcDbEntity
  8
0
 62
1
100
AcDbLine
 10
2540.0
 20
1420.0
 30
0.0
 11
2540.0
 21
2100.0
 31
0.0
  0
MTEXT
  5
25F
330
255
100
AcDbEntity
  8
COTES
 62
7
100
AcDbMText
 10
2522.0
 20
1760.0
 30
0.0
 40
20.0
 71
5
  1
680
  7
EXAR
 50
90.0
  0
POINT
  5
260
330
255
100
AcDbEntity
  8
Defpoints
100
AcDbPoint
 10
2540.0
 20
1420.0
 30
0.0
  0
POINT
  5
261
330
255
100
AcDbEntity
  8
Defpoints
100
AcDbPoint
 10
2220.0
 20
1420.0
 30
0.0
  0
POINT
  5
262
330
255
100
AcDbEntity
  8
Defpoints
100
AcDbPoint
 10
2220.0
 20
2100.0
 30
0.0
  0
ENDBLK
  5
257
330
255
100
AcDbEntity
  8
0
100
AcDbBlockEnd
  0
BLOCK
  5
265
330
264
100
AcDbEntity
  8
0
100
AcDbBlockBegin
  2
*D20
 70
1
 10
0.0
 20
0.0
 30
0.0
  3
*D20
  1

  0
LINE
  5
267
330
264
100
AcDbEntity
  8
0
 62
1
100
AcDbLine
 10
1650.0
 20
1900.0
 30
0.0
 11
1528.0
 21
1900.0
 31
0.0
  0
LINE
  5
268
330
264
100
AcDbEntity
  8
0
 62
1
100
AcDbLine
 10
1650.0
 20
2020.0
 30
0.0
 11
1528.0
 21
2020.0
 31
0.0
  0
INSERT
  5
269
330
264
100
AcDbEntity
  8
COTES
 62
1
100
AcDbBlockReference
  2
_ARCHTICK
 10
1540.0
 20
1900.0
 30
0.0
 41
18.0
 42
18.0
 50
270.0
  0
INSERT
  5
26B
330
264
100
AcDbEntity
  8
COTES
 62
1
100
AcDbBlockReference
  2
_ARCHTICK
 10
1540.0
 20
2020.0
 30
0.0
 41
18.0
 42
18.0
 50
90.0
  0
LINE
  5
26D
330
264
100
AcDbEntity
  8
0
 62
1
100
AcDbLine
 10
1540.0
 20
1900.0
 30
0.0
 11
1540.0
 21
2020.0
 31
0.0
  0
MTEXT
  5
26E
330
264
100
AcDbEntity
  8
COTES
 62
7
100
AcDbMText
 10
1522.0
 20
1960.0
 30
0.0
 40
20.0
 71
5
  1
120
  7
EXAR
 50
90.0
  0
POINT
  5
26F
330
264
100
AcDbEntity
  8
Defpoints
100
AcDbPoint
 10
1540.0
 20
1900.0
 30
0.0
  0
POINT
  5
270
330
264
100
AcDbEntity
  8
Defpoints
100
AcDbPoint
 10
1660.0
 20
1900.0
 30
0.0
  0
POINT
  5
271
330
264
100
AcDbEntity
  8
Defpoints
100
AcDbPoint
 10
1660.0
 20
2020.0
 30
0.0
  0
ENDBLK
  5
266
330
264
100
AcDbEntity
  8
0
100
AcDbBlockEnd
  0
BLOCK
  5
274
330
273
100
AcDbEntity
  8
0
100
AcDbBlockBegin
  2
*D21
 70
1
 10
0.0
 20
0.0
 30
0.0
  3
*D21
  1

  0
LINE
  5
276
330
273
100
AcDbEntity
  8
0
 62
1
100
AcDbLine
 10
1650.0
 20
2260.0
 30
0.0
 11
1528.0
 21
2260.0
 31
0.0
  0
LINE
  5
277
330
273
100
AcDbEntity
  8
0
 62
1
100
AcDbLine
 10
1650.0
 20
2360.0
 30
0.0
 11
1528.0
 21
2360.0
 31
0.0
  0
INSERT
  5
278
330
273
100
AcDbEntity
  8
COTES
 62
1
100
AcDbBlockReference
  2
_ARCHTICK
 10
1540.0
 20
2260.0
 30
0.0
 41
18.0
 42
18.0
 50
270.0
  0
INSERT
  5
27A
330
273
100
AcDbEntity
  8
COTES
 62
1
100
AcDbBlockReference
  2
_ARCHTICK
 10
1540.0
 20
2360.0
 30
0.0
 41
18.0
 42
18.0
 50
90.0
  0
LINE
  5
27C
330
273
100
AcDbEntity
  8
0
 62
1
100
AcDbLine
 10
1540.0
 20
2260.0
 30
0.0
 11
1540.0
 21
2360.0
 31
0.0
  0
MTEXT
  5
27D
330
273
100
AcDbEntity
  8
COTES
 62
7
100
AcDbMText
 10
1522.0
 20
2310.0
 30
0.0
 40
20.0
 71
5
  1
100
  7
EXAR
 50
90.0
  0
POINT
  5
27E
330
273
100
AcDbEntity
  8
Defpoints
100
AcDbPoint
 10
1540.0
 20
2260.0
 30
0.0
  0
POINT
  5
27F
330
273
100
AcDbEntity
  8
Defpoints
100
AcDbPoint
 10
1660.0
 20
2260.0
 30
0.0
  0
POINT
  5
280
330
273
100
AcDbEntity
  8
Defpoints
100
AcDbPoint
 10
1660.0
 20
2360.0
 30
0.0
  0
ENDBLK
  5
275
330
273
100
AcDbEntity
  8
0
100
AcDbBlockEnd
  0
BLOCK
  5
284
330
283
100
AcDbEntity
  8
0
100
AcDbBlockBegin
  2
*D22
 70
1
 10
0.0
 20
0.0
 30
0.0
  3
*D22
  1

  0
LINE
  5
286
330
283
100
AcDbEntity
  8
0
 62
1
100
AcDbLine
 10
600.0
 20
950.0
 30
0.0
 11
600.0
 21
1062.0
 31
0.0
  0
LINE
  5
287
330
283
100
AcDbEntity
  8
0
 62
1
100
AcDbLine
 10
1160.0
 20
950.0
 30
0.0
 11
1160.0
 21
1062.0
 31
0.0
  0
INSERT
  5
288
330
283
100
AcDbEntity
  8
COTES
 62
1
100
AcDbBlockReference
  2
_ARCHTICK
 10
600.0
 20
1050.0
 30
0.0
 41
18.0
 42
18.0
 50
180.0
  0
INSERT
  5
28A
330
283
100
AcDbEntity
  8
COTES
 62
1
100
AcDbBlockReference
  2
_ARCHTICK
 10
1160.0
 20
1050.0
 30
0.0
 41
18.0
 42
18.0
  0
LINE
  5
28C
330
283
100
AcDbEntity
  8
0
 62
1
100
AcDbLine
 10
600.0
 20
1050.0
 30
0.0
 11
1160.0
 21
1050.0
 31
0.0
  0
MTEXT
  5
28D
330
283
100
AcDbEntity
  8
COTES
 62
7
100
AcDbMText
 10
880.0
 20
1068.0
 30
0.0
 40
20.0
 71
5
  1
560
  7
EXAR
  0
POINT
  5
28E
330
283
100
AcDbEntity
  8
Defpoints
100
AcDbPoint
 10
600.0
 20
1050.0
 30
0.0
  0
POINT
  5
28F
330
283
100
AcDbEntity
  8
Defpoints
100
AcDbPoint
 10
600.0
 20
940.0
 30
0.0
  0
POINT
  5
290
330
283
100
AcDbEntity
  8
Defpoints
100
AcDbPoint
 10
1160.0
 20
940.0
 30
0.0
  0
ENDBLK
  5
285
330
283
100
AcDbEntity
  8
0
100
AcDbBlockEnd
  0
BLOCK
  5
293
330
292
100
AcDbEntity
  8
0
100
AcDbBlockBegin
  2
*D23
 70
1
 10
0.0
 20
0.0
 30
0.0
  3
*D23
  1

  0
LINE
  5
295
330
292
100
AcDbEntity
  8
0
 62
1
100
AcDbLine
 10
590.0
 20
380.0
 30
0.0
 11
458.0
 21
380.0
 31
0.0
  0
LINE
  5
296
330
292
100
AcDbEntity
  8
0
 62
1
100
AcDbLine
 10
590.0
 20
940.0
 30
0.0
 11
458.0
 21
940.0
 31
0.0
  0
INSERT
  5
297
330
292
100
AcDbEntity
  8
COTES
 62
1
100
AcDbBlockReference
  2
_ARCHTICK
 10
470.0
 20
380.0
 30
0.0
 41
18.0
 42
18.0
 50
270.0
  0
INSERT
  5
299
330
292
100
AcDbEntity
  8
COTES
 62
1
100
AcDbBlockReference
  2
_ARCHTICK
 10
470.0
 20
940.0
 30
0.0
 41
18.0
 42
18.0
 50
90.0
  0
LINE
  5
29B
330
292
100
AcDbEntity
  8
0
 62
1
100
AcDbLine
 10
470.0
 20
380.0
 30
0.0
 11
470.0
 21
940.0
 31
0.0
  0
MTEXT
  5
29C
330
292
100
AcDbEntity
  8
COTES
 62
7
100
AcDbMText
 10
452.0
 20
660.0
 30
0.0
 40
20.0
 71
5
  1
560
  7
EXAR
 50
90.0
  0
POINT
  5
29D
330
292
100
AcDbEntity
  8
Defpoints
100
AcDbPoint
 10
470.0
 20
380.0
 30
0.0
  0
POINT
  5
29E
330
292
100
AcDbEntity
  8
Defpoints
100
AcDbPoint
 10
600.0
 20
380.0
 30
0.0
  0
POINT
  5
29F
330
292
100
AcDbEntity
  8
Defpoints
100
AcDbPoint
 10
600.0
 20
940.0
 30
0.0
  0
ENDBLK
  5
294
330
292
100
AcDbEntity
  8
0
100
AcDbBlockEnd
  0
BLOCK
  5
2A2
330
2A1
100
AcDbEntity
  8
0
100
AcDbBlockBegin
  2
*D24
 70
1
 10
0.0
 20
0.0
 30
0.0
  3
*D24
  1

  0
LINE
  5
2A4
330
2A1
100
AcDbEntity
  8
0
 62
1
100
AcDbLine
 10
1170.0
 20
380.0
 30
0.0
 11
1262.0
 21
380.0
 31
0.0
  0
LINE
  5
2A5
330
2A1
100
AcDbEntity
  8
0
 62
1
100
AcDbLine
 10
1170.0
 20
460.0
 30
0.0
 11
1262.0
 21
460.0
 31
0.0
  0
INSERT
  5
2A6
330
2A1
100
AcDbEntity
  8
COTES
 62
1
100
AcDbBlockReference
  2
_ARCHTICK
 10
1250.0
 20
380.0
 30
0.0
 41
18.0
 42
18.0
 50
270.0
  0
INSERT
  5
2A8
330
2A1
100
AcDbEntity
  8
COTES
 62
1
100
AcDbBlockReference
  2
_ARCHTICK
 10
1250.0
 20
460.0
 30
0.0
 41
18.0
 42
18.0
 50
90.0
  0
LINE
  5
2AA
330
2A1
100
AcDbEntity
  8
0
 62
1
100
AcDbLine
 10
1250.0
 20
380.0
 30
0.0
 11
1250.0
 21
460.0
 31
0.0
  0
MTEXT
  5
2AB
330
2A1
100
AcDbEntity
  8
COTES
 62
7
100
AcDbMText
 10
1232.0
 20
420.0
 30
0.0
 40
20.0
 71
5
  1
80
  7
EXAR
 50
90.0
  0
POINT
  5
2AC
330
2A1
100
AcDbEntity
  8
Defpoints
100
AcDbPoint
 10
1250.0
 20
380.0
 30
0.0
  0
POINT
  5
2AD
330
2A1
100
AcDbEntity
  8
Defpoints
100
AcDbPoint
 10
1160.0
 20
380.0
 30
0.0
  0
POINT
  5
2AE
330
2A1
100
AcDbEntity
  8
Defpoints
100
AcDbPoint
 10
1160.0
 20
460.0
 30
0.0
  0
ENDBLK
  5
2A3
330
2A1
100
AcDbEntity
  8
0
100
AcDbBlockEnd
  0
BLOCK
  5
2B1
330
2B0
100
AcDbEntity
  8
0
100
AcDbBlockBegin
  2
*D25
 70
1
 10
0.0
 20
0.0
 30
0.0
  3
*D25
  1

  0
LINE
  5
2B3
330
2B0
100
AcDbEntity
  8
0
 62
1
100
AcDbLine
 10
1170.0
 20
780.0
 30
0.0
 11
1262.0
 21
780.0
 31
0.0
  0
LINE
  5
2B4
330
2B0
100
AcDbEntity
  8
0
 62
1
100
AcDbLine
 10
1170.0
 20
820.0
 30
0.0
 11
1262.0
 21
820.0
 31
0.0
  0
INSERT
  5
2B5
330
2B0
100
AcDbEntity
  8
COTES
 62
1
100
AcDbBlockReference
  2
_ARCHTICK
 10
1250.0
 20
780.0
 30
0.0
 41
18.0
 42
18.0
 50
90.0
  0
INSERT
  5
2B7
330
2B0
100
AcDbEntity
  8
COTES
 62
1
100
AcDbBlockReference
  2
_ARCHTICK
 10
1250.0
 20
820.0
 30
0.0
 41
18.0
 42
18.0
 50
270.0
  0
LINE
  5
2B9
330
2B0
100
AcDbEntity
  8
0
 62
1
100
AcDbLine
 10
1250.0
 20
780.0
 30
0.0
 11
1250.0
 21
820.0
 31
0.0
  0
MTEXT
  5
2BA
330
2B0
100
AcDbEntity
  8
COTES
 62
7
100
AcDbMText
 10
1232.0
 20
800.0
 30
0.0
 40
20.0
 71
5
  1
40
  7
EXAR
 50
90.0
  0
POINT
  5
2BB
330
2B0
100
AcDbEntity
  8
Defpoints
100
AcDbPoint
 10
1250.0
 20
780.0
 30
0.0
  0
POINT
  5
2BC
330
2B0
100
AcDbEntity
  8
Defpoints
100
AcDbPoint
 10
1160.0
 20
780.0
 30
0.0
  0
POINT
  5
2BD
330
2B0
100
AcDbEntity
  8
Defpoints
100
AcDbPoint
 10
1160.0
 20
820.0
 30
0.0
  0
ENDBLK
  5
2B2
330
2B0
100
AcDbEntity
  8
0
100
AcDbBlockEnd
  0
BLOCK
  5
2C0
330
2BF
100
AcDbEntity
  8
0
100
AcDbBlockBegin
  2
*D26
 70
1
 10
0.0
 20
0.0
 30
0.0
  3
*D26
  1

  0
LINE
  5
2C2
330
2BF
100
AcDbEntity
  8
0
 62
1
100
AcDbLine
 10
1170.0
 20
460.0
 30
0.0
 11
1262.0
 21
460.0
 31
0.0
  0
LINE
  5
2C3
330
2BF
100
AcDbEntity
  8
0
 62
1
100
AcDbLine
 10
1170.0
 20
780.0
 30
0.0
 11
1262.0
 21
780.0
 31
0.0
  0
INSERT
  5
2C4
330
2BF
100
AcDbEntity
  8
COTES
 62
1
100
AcDbBlockReference
  2
_ARCHTICK
 10
1250.0
 20
460.0
 30
0.0
 41
18.0
 42
18.0
 50
270.0
  0
INSERT
  5
2C6
330
2BF
100
AcDbEntity
  8
COTES
 62
1
100
AcDbBlockReference
  2
_ARCHTICK
 10
1250.0
 20
780.0
 30
0.0
 41
18.0
 42
18.0
 50
90.0
  0
LINE
  5
2C8
330
2BF
100
AcDbEntity
  8
0
 62
1
100
AcDbLine
 10
1250.0
 20
460.0
 30
0.0
 11
1250.0
 21
780.0
 31
0.0
  0
MTEXT
  5
2C9
330
2BF
100
AcDbEntity
  8
COTES
 62
7
100
AcDbMText
 10
1232.0
 20
620.0
 30
0.0
 40
20.0
 71
5
  1
320
  7
EXAR
 50
90.0
  0
POINT
  5
2CA
330
2BF
100
AcDbEntity
  8
Defpoints
100
AcDbPoint
 10
1250.0
 20
460.0
 30
0.0
  0
POINT
  5
2CB
330
2BF
100
AcDbEntity
  8
Defpoints
100
AcDbPoint
 10
1160.0
 20
460.0
 30
0.0
  0
POINT
  5
2CC
330
2BF
100
AcDbEntity
  8
Defpoints
100
AcDbPoint
 10
1160.0
 20
780.0
 30
0.0
  0
ENDBLK
  5
2C1
330
2BF
100
AcDbEntity
  8
0
100
AcDbBlockEnd
  0
BLOCK
  5
2CF
330
2CE
100
AcDbEntity
  8
0
100
AcDbBlockBegin
  2
*D27
 70
1
 10
0.0
 20
0.0
 30
0.0
  3
*D27
  1

  0
LINE
  5
2D1
330
2CE
100
AcDbEntity
  8
0
 62
1
100
AcDbLine
 10
1170.0
 20
820.0
 30
0.0
 11
1262.0
 21
820.0
 31
0.0
  0
LINE
  5
2D2
330
2CE
100
AcDbEntity
  8
0
 62
1
100
AcDbLine
 10
1170.0
 20
900.0
 30
0.0
 11
1262.0
 21
900.0
 31
0.0
  0
INSERT
  5
2D3
330
2CE
100
AcDbEntity
  8
COTES
 62
1
100
AcDbBlockReference
  2
_ARCHTICK
 10
1250.0
 20
820.0
 30
0.0
 41
18.0
 42
18.0
 50
270.0
  0
INSERT
  5
2D5
330
2CE
100
AcDbEntity
  8
COTES
 62
1
100
AcDbBlockReference
  2
_ARCHTICK
 10
1250.0
 20
900.0
 30
0.0
 41
18.0
 42
18.0
 50
90.0
  0
LINE
  5
2D7
330
2CE
100
AcDbEntity
  8
0
 62
1
100
AcDbLine
 10
1250.0
 20
820.0
 30
0.0
 11
1250.0
 21
900.0
 31
0.0
  0
MTEXT
  5
2D8
330
2CE
100
AcDbEntity
  8
COTES
 62
7
100
AcDbMText
 10
1232.0
 20
860.0
 30
0.0
 40
20.0
 71
5
  1
80
  7
EXAR
 50
90.0
  0
POINT
  5
2D9
330
2CE
100
AcDbEntity
  8
Defpoints
100
AcDbPoint
 10
1250.0
 20
820.0
 30
0.0
  0
POINT
  5
2DA
330
2CE
100
AcDbEntity
  8
Defpoints
100
AcDbPoint
 10
1160.0
 20
820.0
 30
0.0
  0
POINT
  5
2DB
330
2CE
100
AcDbEntity
  8
Defpoints
100
AcDbPoint
 10
1160.0
 20
900.0
 30
0.0
  0
ENDBLK
  5
2D0
330
2CE
100
AcDbEntity
  8
0
100
AcDbBlockEnd
  0
BLOCK
  5
2DE
330
2DD
100
AcDbEntity
  8
0
100
AcDbBlockBegin
  2
*D28
 70
1
 10
0.0
 20
0.0
 30
0.0
  3
*D28
  1

  0
LINE
  5
2E0
330
2DD
100
AcDbEntity
  8
0
 62
1
100
AcDbLine
 10
1170.0
 20
900.0
 30
0.0
 11
1262.0
 21
900.0
 31
0.0
  0
LINE
  5
2E1
330
2DD
100
AcDbEntity
  8
0
 62
1
100
AcDbLine
 10
1170.0
 20
940.0
 30
0.0
 11
1262.0
 21
940.0
 31
0.0
  0
INSERT
  5
2E2
330
2DD
100
AcDbEntity
  8
COTES
 62
1
100
AcDbBlockReference
  2
_ARCHTICK
 10
1250.0
 20
900.0
 30
0.0
 41
18.0
 42
18.0
 50
90.0
  0
INSERT
  5
2E4
330
2DD
100
AcDbEntity
  8
COTES
 62
1
100
AcDbBlockReference
  2
_ARCHTICK
 10
1250.0
 20
940.0
 30
0.0
 41
18.0
 42
18.0
 50
270.0
  0
LINE
  5
2E6
330
2DD
100
AcDbEntity
  8
0
 62
1
100
AcDbLine
 10
1250.0
 20
900.0
 30
0.0
 11
1250.0
 21
940.0
 31
0.0
  0
MTEXT
  5
2E7
330
2DD
100
AcDbEntity
  8
COTES
 62
7
100
AcDbMText
 10
1232.0
 20
920.0
 30
0.0
 40
20.0
 71
5
  1
40
  7
EXAR
 50
90.0
  0
POINT
  5
2E8
330
2DD
100
AcDbEntity
  8
Defpoints
100
AcDbPoint
 10
1250.0
 20
900.0
 30
0.0
  0
POINT
  5
2E9
330
2DD
100
AcDbEntity
  8
Defpoints
100
AcDbPoint
 10
1160.0
 20
900.0
 30
0.0
  0
POINT
  5
2EA
330
2DD
100
AcDbEntity
  8
Defpoints
100
AcDbPoint
 10
1160.0
 20
940.0
 30
0.0
  0
ENDBLK
  5
2DF
330
2DD
100
AcDbEntity
  8
0
100
AcDbBlockEnd
  0
ENDSEC
  0
SECTION
  2
ENTITIES
  0
LWPOLYLINE
  5
93
330
17
100
AcDbEntity
  8
CAIXETI
370
13
100
AcDbPolyline
 90
4
 70
1
 10
0.0
 20
0.0
 10
4200.0
 20
0.0
 10
4200.0
 20
2970.0
 10
0.0
 20
2970.0
  0
LWPOLYLINE
  5
94
330
17
100
AcDbEntity
  8
MARC
100
AcDbPolyline
 90
4
 70
1
 10
100.0
 20
100.0
 10
4100.0
 20
100.0
 10
4100.0
 20
2870.0
 10
100.0
 20
2870.0
  0
LINE
  5
95
330
17
100
AcDbEntity
  8
CAIXETI
100
AcDbLine
 10
100.0
 20
2590.0
 30
0.0
 11
4100.0
 21
2590.0
 31
0.0
  0
TEXT
  5
96
330
17
100
AcDbEntity
  8
TEXT
100
AcDbText
 10
160.0
 20
2760.0
 30
0.0
 40
40.0
  1
L1 - APLICACIÓ A LA COMPOSICIÓ I PROPORCIÓ
  7
EXAR
 11
160.0
 21
2760.0
 31
0.0
100
AcDbText
 73
1
  0
TEXT
  5
97
330
17
100
AcDbEntity
  8
TEXT
100
AcDbText
 10
160.0
 20
2660.0
 30
0.0
 40
60.0
  1
SLATTED CHAIR  "TI 1A"  ·  Marcel Breuer, 1922-24
  7
EXAR
 11
160.0
 21
2660.0
 31
0.0
100
AcDbText
 73
1
  0
TEXT
  5
98
330
17
100
AcDbEntity
  8
TEXT
100
AcDbText
 10
3000.0
 20
2790.0
 30
0.0
 40
30.0
  1
Alumne: COGNOMS, NOM
  7
EXAR
 11
3000.0
 21
2790.0
 31
0.0
100
AcDbText
 73
1
  0
TEXT
  5
99
330
17
100
AcDbEntity
  8
TEXT
100
AcDbText
 10
3000.0
 20
2740.0
 30
0.0
 40
30.0
  1
Professor: ______________
  7
EXAR
 11
3000.0
 21
2740.0
 31
0.0
100
AcDbText
 73
1
  0
TEXT
  5
9A
330
17
100
AcDbEntity
  8
TEXT
100
AcDbText
 10
3000.0
 20
2690.0
 30
0.0
 40
30.0
  1
Assignatura: EXAR
  7
EXAR
 11
3000.0
 21
2690.0
 31
0.0
100
AcDbText
 73
1
  0
TEXT
  5
9B
330
17
100
AcDbEntity
  8
TEXT
100
AcDbText
 10
3000.0
 20
2640.0
 30
0.0
 40
30.0
  1
Data: 05/10/2026
  7
EXAR
 11
3000.0
 21
2640.0
 31
0.0
100
AcDbText
 73
1
  0
TEXT
  5
9C
330
17
100
AcDbEntity
  8
TEXT
100
AcDbText
 10
2840.0
 20
2530.0
 30
0.0
 40
25.0
  1
Escala 1:10  ·  Cotes en mm  ·  Sistema europeu
  7
EXAR
 11
2840.0
 21
2530.0
 31
0.0
100
AcDbText
 73
1
  0
LWPOLYLINE
  5
9D
330
17
100
AcDbEntity
  8
CAIXETI
100
AcDbPolyline
 90
4
 70
1
 10
2840.0
 20
2620.0
 10
2940.0
 20
2620.0
 10
2940.0
 20
2820.0
 10
2840.0
 20
2820.0
  0
TEXT
  5
9E
330
17
100
AcDbEntity
  8
TEXT
100
AcDbText
 10
2890.0
 20
2720.0
 30
0.0
 40
20.0
  1
LOGO
  7
EXAR
 72
1
 11
2890.0
 21
2720.0
 31
0.0
100
AcDbText
 73
2
  0
LINE
  5
9F
330
17
100
AcDbEntity
  8
FUSTA
100
AcDbLine
 10
600.0
 20
1420.0
 30
0.0
 11
640.0
 21
1420.0
 31
0.0
  0
LINE
  5
A0
330
17
100
AcDbEntity
  8
FUSTA
100
AcDbLine
 10
600.0
 20
1420.0
 30
0.0
 11
600.0
 21
1860.0
 31
0.0
  0
LINE
  5
A1
330
17
100
AcDbEntity
  8
FUSTA
100
AcDbLine
 10
640.0
 20
1420.0
 30
0.0
 11
640.0
 21
1860.0
 31
0.0
  0
LINE
  5
A2
330
17
100
AcDbEntity
  8
FUSTA
100
AcDbLine
 10
600.0
 20
1860.0
 30
0.0
 11
640.0
 21
1860.0
 31
0.0
  0
LINE
  5
A3
330
17
100
AcDbEntity
  8
FUSTA
100
AcDbLine
 10
600.0
 20
1420.0
 30
0.0
 11
600.0
 21
2060.0
 31
0.0
  0
LINE
  5
A4
330
17
100
AcDbEntity
  8
FUSTA
100
AcDbLine
 10
640.0
 20
1420.0
 30
0.0
 11
640.0
 21
2060.0
 31
0.0
  0
LINE
  5
A5
330
17
100
AcDbEntity
  8
FUSTA
100
AcDbLine
 10
600.0
 20
2060.0
 30
0.0
 11
640.0
 21
2060.0
 31
0.0
  0
LINE
  5
A6
330
17
100
AcDbEntity
  8
FUSTA
100
AcDbLine
 10
600.0
 20
1660.0
 30
0.0
 11
640.0
 21
1660.0
 31
0.0
  0
LINE
  5
A7
330
17
100
AcDbEntity
  8
FUSTA
100
AcDbLine
 10
600.0
 20
1660.0
 30
0.0
 11
600.0
 21
1700.0
 31
0.0
  0
LINE
  5
A8
330
17
100
AcDbEntity
  8
FUSTA
100
AcDbLine
 10
640.0
 20
1660.0
 30
0.0
 11
640.0
 21
1700.0
 31
0.0
  0
LINE
  5
A9
330
17
100
AcDbEntity
  8
FUSTA
100
AcDbLine
 10
600.0
 20
1700.0
 30
0.0
 11
640.0
 21
1700.0
 31
0.0
  0
LINE
  5
AA
330
17
100
AcDbEntity
  8
FUSTA
100
AcDbLine
 10
600.0
 20
1660.0
 30
0.0
 11
600.0
 21
2380.0
 31
0.0
  0
LINE
  5
AB
330
17
100
AcDbEntity
  8
FUSTA
100
AcDbLine
 10
640.0
 20
1660.0
 30
0.0
 11
640.0
 21
2380.0
 31
0.0
  0
LINE
  5
AC
330
17
100
AcDbEntity
  8
FUSTA
100
AcDbLine
 10
600.0
 20
2380.0
 30
0.0
 11
640.0
 21
2380.0
 31
0.0
  0
LINE
  5
AD
330
17
100
AcDbEntity
  8
FUSTA
100
AcDbLine
 10
600.0
 20
2060.0
 30
0.0
 11
600.0
 21
2100.0
 31
0.0
  0
LINE
  5
AE
330
17
100
AcDbEntity
  8
FUSTA
100
AcDbLine
 10
640.0
 20
2060.0
 30
0.0
 11
640.0
 21
2100.0
 31
0.0
  0
LINE
  5
AF
330
17
100
AcDbEntity
  8
FUSTA
100
AcDbLine
 10
600.0
 20
2100.0
 30
0.0
 11
640.0
 21
2100.0
 31
0.0
  0
LINE
  5
B0
330
17
100
AcDbEntity
  8
FUSTA
100
AcDbLine
 10
1120.0
 20
1420.0
 30
0.0
 11
1160.0
 21
1420.0
 31
0.0
  0
LINE
  5
B1
330
17
100
AcDbEntity
  8
FUSTA
100
AcDbLine
 10
1120.0
 20
1420.0
 30
0.0
 11
1120.0
 21
1860.0
 31
0.0
  0
LINE
  5
B2
330
17
100
AcDbEntity
  8
FUSTA
100
AcDbLine
 10
1160.0
 20
1420.0
 30
0.0
 11
1160.0
 21
1860.0
 31
0.0
  0
LINE
  5
B3
330
17
100
AcDbEntity
  8
FUSTA
100
AcDbLine
 10
1120.0
 20
1860.0
 30
0.0
 11
1160.0
 21
1860.0
 31
0.0
  0
LINE
  5
B4
330
17
100
AcDbEntity
  8
FUSTA
100
AcDbLine
 10
1120.0
 20
1420.0
 30
0.0
 11
1120.0
 21
2060.0
 31
0.0
  0
LINE
  5
B5
330
17
100
AcDbEntity
  8
FUSTA
100
AcDbLine
 10
1160.0
 20
1420.0
 30
0.0
 11
1160.0
 21
2060.0
 31
0.0
  0
LINE
  5
B6
330
17
100
AcDbEntity
  8
FUSTA
100
AcDbLine
 10
1120.0
 20
2060.0
 30
0.0
 11
1160.0
 21
2060.0
 31
0.0
  0
LINE
  5
B7
330
17
100
AcDbEntity
  8
FUSTA
100
AcDbLine
 10
1120.0
 20
1660.0
 30
0.0
 11
1160.0
 21
1660.0
 31
0.0
  0
LINE
  5
B8
330
17
100
AcDbEntity
  8
FUSTA
100
AcDbLine
 10
1120.0
 20
1660.0
 30
0.0
 11
1120.0
 21
1700.0
 31
0.0
  0
LINE
  5
B9
330
17
100
AcDbEntity
  8
FUSTA
100
AcDbLine
 10
1160.0
 20
1660.0
 30
0.0
 11
1160.0
 21
1700.0
 31
0.0
  0
LINE
  5
BA
330
17
100
AcDbEntity
  8
FUSTA
100
AcDbLine
 10
1120.0
 20
1700.0
 30
0.0
 11
1160.0
 21
1700.0
 31
0.0
  0
LINE
  5
BB
330
17
100
AcDbEntity
  8
FUSTA
100
AcDbLine
 10
1120.0
 20
1660.0
 30
0.0
 11
1120.0
 21
2380.0
 31
0.0
  0
LINE
  5
BC
330
17
100
AcDbEntity
  8
FUSTA
100
AcDbLine
 10
1160.0
 20
1660.0
 30
0.0
 11
1160.0
 21
2380.0
 31
0.0
  0
LINE
  5
BD
330
17
100
AcDbEntity
  8
FUSTA
100
AcDbLine
 10
1120.0
 20
2380.0
 30
0.0
 11
1160.0
 21
2380.0
 31
0.0
  0
LINE
  5
BE
330
17
100
AcDbEntity
  8
FUSTA
100
AcDbLine
 10
1120.0
 20
2060.0
 30
0.0
 11
1120.0
 21
2100.0
 31
0.0
  0
LINE
  5
BF
330
17
100
AcDbEntity
  8
FUSTA
100
AcDbLine
 10
1160.0
 20
2060.0
 30
0.0
 11
1160.0
 21
2100.0
 31
0.0
  0
LINE
  5
C0
330
17
100
AcDbEntity
  8
FUSTA
100
AcDbLine
 10
1120.0
 20
2100.0
 30
0.0
 11
1160.0
 21
2100.0
 31
0.0
  0
LINE
  5
C1
330
17
100
AcDbEntity
  8
FUSTA
100
AcDbLine
 10
640.0
 20
1820.0
 30
0.0
 11
1120.0
 21
1820.0
 31
0.0
  0
LINE
  5
C2
330
17
100
AcDbEntity
  8
FUSTA
100
AcDbLine
 10
640.0
 20
1820.0
 30
0.0
 11
640.0
 21
1860.0
 31
0.0
  0
LINE
  5
C3
330
17
100
AcDbEntity
  8
FUSTA
100
AcDbLine
 10
1120.0
 20
1820.0
 30
0.0
 11
1120.0
 21
1860.0
 31
0.0
  0
LINE
  5
C4
330
17
100
AcDbEntity
  8
FUSTA
100
AcDbLine
 10
640.0
 20
1860.0
 30
0.0
 11
1120.0
 21
1860.0
 31
0.0
  0
LINE
  5
C5
330
17
100
AcDbEntity
  8
FUSTA
100
AcDbLine
 10
640.0
 20
1740.0
 30
0.0
 11
1120.0
 21
1740.0
 31
0.0
  0
LINE
  5
C6
330
17
100
AcDbEntity
  8
FUSTA
100
AcDbLine
 10
640.0
 20
1740.0
 30
0.0
 11
640.0
 21
1780.0
 31
0.0
  0
LINE
  5
C7
330
17
100
AcDbEntity
  8
FUSTA
100
AcDbLine
 10
1120.0
 20
1740.0
 30
0.0
 11
1120.0
 21
1780.0
 31
0.0
  0
LINE
  5
C8
330
17
100
AcDbEntity
  8
FUSTA
100
AcDbLine
 10
640.0
 20
1780.0
 30
0.0
 11
1120.0
 21
1780.0
 31
0.0
  0
LINE
  5
C9
330
17
100
AcDbEntity
  8
FUSTA
100
AcDbLine
 10
640.0
 20
1660.0
 30
0.0
 11
1120.0
 21
1660.0
 31
0.0
  0
LINE
  5
CA
330
17
100
AcDbEntity
  8
FUSTA
100
AcDbLine
 10
640.0
 20
1700.0
 30
0.0
 11
1120.0
 21
1700.0
 31
0.0
  0
LINE
  5
CB
330
17
100
AcDbEntity
  8
TELA
100
AcDbLine
 10
640.0
 20
1860.0
 30
0.0
 11
640.0
 21
1780.0
 31
0.0
  0
LINE
  5
CC
330
17
100
AcDbEntity
  8
TELA
100
AcDbLine
 10
640.0
 20
1860.0
 30
0.0
 11
640.0
 21
1864.0
 31
0.0
  0
LINE
  5
CD
330
17
100
AcDbEntity
  8
TELA
100
AcDbLine
 10
640.0
 20
1780.0
 30
0.0
 11
640.0
 21
1784.0
 31
0.0
  0
LINE
  5
CE
330
17
100
AcDbEntity
  8
TELA
100
AcDbLine
 10
640.0
 20
1784.0
 30
0.0
 11
640.0
 21
1864.0
 31
0.0
  0
LINE
  5
CF
330
17
100
AcDbEntity
  8
TELA
100
AcDbLine
 10
640.0
 20
1864.0
 30
0.0
 11
1120.0
 21
1864.0
 31
0.0
  0
LINE
  5
D0
330
17
100
AcDbEntity
  8
TELA
100
AcDbLine
 10
1120.0
 20
1860.0
 30
0.0
 11
1120.0
 21
1780.0
 31
0.0
  0
LINE
  5
D1
330
17
100
AcDbEntity
  8
TELA
100
AcDbLine
 10
1120.0
 20
1860.0
 30
0.0
 11
1120.0
 21
1864.0
 31
0.0
  0
LINE
  5
D2
330
17
100
AcDbEntity
  8
TELA
100
AcDbLine
 10
1120.0
 20
1780.0
 30
0.0
 11
1120.0
 21
1784.0
 31
0.0
  0
LINE
  5
D3
330
17
100
AcDbEntity
  8
TELA
100
AcDbLine
 10
1120.0
 20
1784.0
 30
0.0
 11
1120.0
 21
1864.0
 31
0.0
  0
LINE
  5
D4
330
17
100
AcDbEntity
  8
TELA
100
AcDbLine
 10
640.0
 20
1900.0
 30
0.0
 11
1120.0
 21
1900.0
 31
0.0
  0
LINE
  5
D5
330
17
100
AcDbEntity
  8
TELA
100
AcDbLine
 10
640.0
 20
1900.0
 30
0.0
 11
640.0
 21
2020.0
 31
0.0
  0
LINE
  5
D6
330
17
100
AcDbEntity
  8
TELA
100
AcDbLine
 10
1120.0
 20
1900.0
 30
0.0
 11
1120.0
 21
2020.0
 31
0.0
  0
LINE
  5
D7
330
17
100
AcDbEntity
  8
TELA
100
AcDbLine
 10
640.0
 20
2020.0
 30
0.0
 11
1120.0
 21
2020.0
 31
0.0
  0
LINE
  5
D8
330
17
100
AcDbEntity
  8
TELA
100
AcDbLine
 10
640.0
 20
2260.0
 30
0.0
 11
1120.0
 21
2260.0
 31
0.0
  0
LINE
  5
D9
330
17
100
AcDbEntity
  8
TELA
100
AcDbLine
 10
640.0
 20
2260.0
 30
0.0
 11
640.0
 21
2360.0
 31
0.0
  0
LINE
  5
DA
330
17
100
AcDbEntity
  8
TELA
100
AcDbLine
 10
1120.0
 20
2260.0
 30
0.0
 11
1120.0
 21
2360.0
 31
0.0
  0
LINE
  5
DB
330
17
100
AcDbEntity
  8
TELA
100
AcDbLine
 10
640.0
 20
2360.0
 30
0.0
 11
1120.0
 21
2360.0
 31
0.0
  0
LINE
  5
DC
330
17
100
AcDbEntity
  8
FUSTA
100
AcDbLine
 10
2220.0
 20
1420.0
 30
0.0
 11
2180.0
 21
1420.0
 31
0.0
  0
LINE
  5
DD
330
17
100
AcDbEntity
  8
FUSTA
100
AcDbLine
 10
2220.0
 20
1420.0
 30
0.0
 11
2220.0
 21
1860.0
 31
0.0
  0
LINE
  5
DE
330
17
100
AcDbEntity
  8
FUSTA
100
AcDbLine
 10
2180.0
 20
1420.0
 30
0.0
 11
2180.0
 21
1660.0
 31
0.0
  0
LINE
  5
DF
330
17
100
AcDbEntity
  8
FUSTA
100
AcDbLine
 10
2180.0
 20
1700.0
 30
0.0
 11
2180.0
 21
1860.0
 31
0.0
  0
LINE
  5
E0
330
17
100
AcDbEntity
  8
FUSTA
100
AcDbLine
 10
2180.0
 20
1420.0
 30
0.0
 11
2180.0
 21
1860.0
 31
0.0
  0
LINE
  5
E1
330
17
100
AcDbEntity
  8
FUSTA
100
AcDbLine
 10
2220.0
 20
1860.0
 30
0.0
 11
2180.0
 21
1860.0
 31
0.0
  0
LINE
  5
E2
330
17
100
AcDbEntity
  8
FUSTA
100
AcDbLine
 10
1820.0
 20
1420.0
 30
0.0
 11
1780.0
 21
1420.0
 31
0.0
  0
LINE
  5
E3
330
17
100
AcDbEntity
  8
FUSTA
100
AcDbLine
 10
1820.0
 20
1420.0
 30
0.0
 11
1820.0
 21
2060.0
 31
0.0
  0
LINE
  5
E4
330
17
100
AcDbEntity
  8
FUSTA
100
AcDbLine
 10
1820.0
 20
1420.0
 30
0.0
 11
1820.0
 21
1660.0
 31
0.0
  0
LINE
  5
E5
330
17
100
AcDbEntity
  8
FUSTA
100
AcDbLine
 10
1820.0
 20
1700.0
 30
0.0
 11
1820.0
 21
2060.0
 31
0.0
  0
LINE
  5
E6
330
17
100
AcDbEntity
  8
FUSTA
100
AcDbLine
 10
1780.0
 20
1420.0
 30
0.0
 11
1780.0
 21
1660.0
 31
0.0
  0
LINE
  5
E7
330
17
100
AcDbEntity
  8
FUSTA
100
AcDbLine
 10
1780.0
 20
1700.0
 30
0.0
 11
1780.0
 21
2060.0
 31
0.0
  0
LINE
  5
E8
330
17
100
AcDbEntity
  8
FUSTA
100
AcDbLine
 10
1780.0
 20
1420.0
 30
0.0
 11
1780.0
 21
2060.0
 31
0.0
  0
LINE
  5
E9
330
17
100
AcDbEntity
  8
FUSTA
100
AcDbLine
 10
1820.0
 20
2060.0
 30
0.0
 11
1780.0
 21
2060.0
 31
0.0
  0
LINE
  5
EA
330
17
100
AcDbEntity
  8
FUSTA
100
AcDbLine
 10
2220.0
 20
1660.0
 30
0.0
 11
1660.0
 21
1660.0
 31
0.0
  0
LINE
  5
EB
330
17
100
AcDbEntity
  8
FUSTA
100
AcDbLine
 10
2220.0
 20
1660.0
 30
0.0
 11
2220.0
 21
1700.0
 31
0.0
  0
LINE
  5
EC
330
17
100
AcDbEntity
  8
FUSTA
100
AcDbLine
 10
2180.0
 20
1660.0
 30
0.0
 11
1820.0
 21
1660.0
 31
0.0
  0
LINE
  5
ED
330
17
100
AcDbEntity
  8
FUSTA
100
AcDbLine
 10
1780.0
 20
1660.0
 30
0.0
 11
1660.0
 21
1660.0
 31
0.0
  0
LINE
  5
EE
330
17
100
AcDbEntity
  8
FUSTA
100
AcDbLine
 10
1660.0
 20
1660.0
 30
0.0
 11
1660.0
 21
1700.0
 31
0.0
  0
LINE
  5
EF
330
17
100
AcDbEntity
  8
FUSTA
100
AcDbLine
 10
2220.0
 20
1700.0
 30
0.0
 11
1660.0
 21
1700.0
 31
0.0
  0
LINE
  5
F0
330
17
100
AcDbEntity
  8
FUSTA
100
AcDbLine
 10
2180.0
 20
1700.0
 30
0.0
 11
1820.0
 21
1700.0
 31
0.0
  0
LINE
  5
F1
330
17
100
AcDbEntity
  8
FUSTA
100
AcDbLine
 10
1780.0
 20
1700.0
 30
0.0
 11
1700.0
 21
1700.0
 31
0.0
  0
LINE
  5
F2
330
17
100
AcDbEntity
  8
FUSTA
100
AcDbLine
 10
1700.0
 20
1660.0
 30
0.0
 11
1660.0
 21
1660.0
 31
0.0
  0
LINE
  5
F3
330
17
100
AcDbEntity
  8
FUSTA
100
AcDbLine
 10
1700.0
 20
1660.0
 30
0.0
 11
1700.0
 21
2380.0
 31
0.0
  0
LINE
  5
F4
330
17
100
AcDbEntity
  8
FUSTA
100
AcDbLine
 10
1700.0
 20
1700.0
 30
0.0
 11
1700.0
 21
2060.0
 31
0.0
  0
LINE
  5
F5
330
17
100
AcDbEntity
  8
FUSTA
100
AcDbLine
 10
1700.0
 20
2100.0
 30
0.0
 11
1700.0
 21
2380.0
 31
0.0
  0
LINE
  5
F6
330
17
100
AcDbEntity
  8
FUSTA
100
AcDbLine
 10
1660.0
 20
1660.0
 30
0.0
 11
1660.0
 21
2380.0
 31
0.0
  0
LINE
  5
F7
330
17
100
AcDbEntity
  8
FUSTA
100
AcDbLine
 10
1700.0
 20
2380.0
 30
0.0
 11
1660.0
 21
2380.0
 31
0.0
  0
LINE
  5
F8
330
17
100
AcDbEntity
  8
FUSTA
100
AcDbLine
 10
2140.0
 20
2060.0
 30
0.0
 11
1660.0
 21
2060.0
 31
0.0
  0
LINE
  5
F9
330
17
100
AcDbEntity
  8
FUSTA
100
AcDbLine
 10
2140.0
 20
2060.0
 30
0.0
 11
2140.0
 21
2100.0
 31
0.0
  0
LINE
  5
FA
330
17
100
AcDbEntity
  8
FUSTA
100
AcDbLine
 10
2140.0
 20
2060.0
 30
0.0
 11
1700.0
 21
2060.0
 31
0.0
  0
LINE
  5
FB
330
17
100
AcDbEntity
  8
FUSTA
100
AcDbLine
 10
1660.0
 20
2060.0
 30
0.0
 11
1660.0
 21
2100.0
 31
0.0
  0
LINE
  5
FC
330
17
100
AcDbEntity
  8
FUSTA
100
AcDbLine
 10
2140.0
 20
2100.0
 30
0.0
 11
1660.0
 21
2100.0
 31
0.0
  0
LINE
  5
FD
330
17
100
AcDbEntity
  8
FUSTA
100
AcDbLine
 10
2140.0
 20
2100.0
 30
0.0
 11
1700.0
 21
2100.0
 31
0.0
  0
LINE
  5
FE
330
17
100
AcDbEntity
  8
FUSTA
100
AcDbLine
 10
2180.0
 20
1700.0
 30
0.0
 11
2180.0
 21
1852.0
 31
0.0
  0
LINE
  5
FF
330
17
100
AcDbEntity
  8
FUSTA
100
AcDbLine
 10
2180.0
 20
1858.0
 30
0.0
 11
2180.0
 21
1860.0
 31
0.0
  0
LINE
  5
100
330
17
100
AcDbEntity
  8
FUSTA
100
AcDbLine
 10
2198.0
 20
1860.0
 30
0.0
 11
2180.0
 21
1860.0
 31
0.0
  0
LINE
  5
101
330
17
100
AcDbEntity
  8
FUSTA
100
AcDbLine
 10
1820.0
 20
1700.0
 30
0.0
 11
1820.0
 21
1786.0
 31
0.0
  0
LINE
  5
102
330
17
100
AcDbEntity
  8
FUSTA
100
AcDbLine
 10
1820.0
 20
1792.0
 30
0.0
 11
1820.0
 21
2060.0
 31
0.0
  0
LINE
  5
103
330
17
100
AcDbEntity
  8
FUSTA
100
AcDbLine
 10
2220.0
 20
1820.0
 30
0.0
 11
2220.0
 21
1860.0
 31
0.0
  0
LINE
  5
104
330
17
100
AcDbEntity
  8
FUSTA
100
AcDbLine
 10
2180.0
 20
1820.0
 30
0.0
 11
2180.0
 21
1852.0
 31
0.0
  0
LINE
  5
105
330
17
100
AcDbEntity
  8
FUSTA
100
AcDbLine
 10
2180.0
 20
1820.0
 30
0.0
 11
2180.0
 21
1860.0
 31
0.0
  0
LINE
  5
106
330
17
100
AcDbEntity
  8
FUSTA
100
AcDbLine
 10
1820.0
 20
1740.0
 30
0.0
 11
1820.0
 21
1780.0
 31
0.0
  0
LINE
  5
107
330
17
100
AcDbEntity
  8
FUSTA
100
AcDbLine
 10
1780.0
 20
1740.0
 30
0.0
 11
1780.0
 21
1780.0
 31
0.0
  0
LINE
  5
108
330
17
100
AcDbEntity
  8
TELA
100
AcDbLine
 10
2178.5650224215246
 20
1852.4663677130045
 30
0.0
 11
1821.4349775784754
 21
1787.5336322869955
 31
0.0
  0
LINE
  5
109
330
17
100
AcDbEntity
  8
TELA
100
AcDbLine
 10
2220.0
 20
1860.0
 30
0.0
 11
2220.0
 21
1864.0
 31
0.0
  0
LINE
  5
10A
330
17
100
AcDbEntity
  8
TELA
100
AcDbLine
 10
1780.0
 20
1780.0
 30
0.0
 11
1780.0
 21
1784.0
 31
0.0
  0
LINE
  5
10B
330
17
100
AcDbEntity
  8
TELA
100
AcDbLine
 10
1821.4349775784754
 20
1791.5336322869955
 30
0.0
 11
2178.5650224215246
 21
1856.4663677130045
 31
0.0
  0
LINE
  5
10C
330
17
100
AcDbEntity
  8
TELA
100
AcDbLine
 10
2198.2959641255607
 20
1860.053811659193
 30
0.0
 11
2220.0
 21
1864.0
 31
0.0
  0
LINE
  5
10D
330
17
100
AcDbEntity
  8
TELA
100
AcDbLine
 10
1824.0
 20
1900.0
 30
0.0
 11
1820.0
 21
1900.0
 31
0.0
  0
LINE
  5
10E
330
17
100
AcDbEntity
  8
TELA
100
AcDbLine
 10
1824.0
 20
1900.0
 30
0.0
 11
1824.0
 21
2020.0
 31
0.0
  0
LINE
  5
10F
330
17
100
AcDbEntity
  8
TELA
100
AcDbLine
 10
1820.0
 20
1900.0
 30
0.0
 11
1820.0
 21
2020.0
 31
0.0
  0
LINE
  5
110
330
17
100
AcDbEntity
  8
TELA
100
AcDbLine
 10
1824.0
 20
2020.0
 30
0.0
 11
1820.0
 21
2020.0
 31
0.0
  0
LINE
  5
111
330
17
100
AcDbEntity
  8
TELA
100
AcDbLine
 10
1704.0
 20
2260.0
 30
0.0
 11
1700.0
 21
2260.0
 31
0.0
  0
LINE
  5
112
330
17
100
AcDbEntity
  8
TELA
100
AcDbLine
 10
1704.0
 20
2260.0
 30
0.0
 11
1704.0
 21
2360.0
 31
0.0
  0
LINE
  5
113
330
17
100
AcDbEntity
  8
TELA
100
AcDbLine
 10
1700.0
 20
2260.0
 30
0.0
 11
1700.0
 21
2360.0
 31
0.0
  0
LINE
  5
114
330
17
100
AcDbEntity
  8
TELA
100
AcDbLine
 10
1704.0
 20
2360.0
 30
0.0
 11
1700.0
 21
2360.0
 31
0.0
  0
LINE
  5
115
330
17
100
AcDbEntity
  8
FUSTA
100
AcDbLine
 10
600.0
 20
380.0
 30
0.0
 11
640.0
 21
380.0
 31
0.0
  0
LINE
  5
116
330
17
100
AcDbEntity
  8
FUSTA
100
AcDbLine
 10
600.0
 20
380.0
 30
0.0
 11
600.0
 21
420.0
 31
0.0
  0
LINE
  5
117
330
17
100
AcDbEntity
  8
FUSTA
100
AcDbLine
 10
640.0
 20
380.0
 30
0.0
 11
640.0
 21
420.0
 31
0.0
  0
LINE
  5
118
330
17
100
AcDbEntity
  8
FUSTA
100
AcDbLine
 10
640.0
 20
420.0
 30
0.0
 11
600.0
 21
420.0
 31
0.0
  0
LINE
  5
119
330
17
100
AcDbEntity
  8
FUSTA
100
AcDbLine
 10
600.0
 20
780.0
 30
0.0
 11
600.0
 21
820.0
 31
0.0
  0
LINE
  5
11A
330
17
100
AcDbEntity
  8
FUSTA
100
AcDbLine
 10
640.0
 20
780.0
 30
0.0
 11
640.0
 21
820.0
 31
0.0
  0
LINE
  5
11B
330
17
100
AcDbEntity
  8
FUSTA
100
AcDbLine
 10
600.0
 20
380.0
 30
0.0
 11
600.0
 21
940.0
 31
0.0
  0
LINE
  5
11C
330
17
100
AcDbEntity
  8
FUSTA
100
AcDbLine
 10
640.0
 20
380.0
 30
0.0
 11
640.0
 21
940.0
 31
0.0
  0
LINE
  5
11D
330
17
100
AcDbEntity
  8
FUSTA
100
AcDbLine
 10
640.0
 20
940.0
 30
0.0
 11
600.0
 21
940.0
 31
0.0
  0
LINE
  5
11E
330
17
100
AcDbEntity
  8
FUSTA
100
AcDbLine
 10
600.0
 20
900.0
 30
0.0
 11
600.0
 21
940.0
 31
0.0
  0
LINE
  5
11F
330
17
100
AcDbEntity
  8
FUSTA
100
AcDbLine
 10
640.0
 20
900.0
 30
0.0
 11
640.0
 21
940.0
 31
0.0
  0
LINE
  5
120
330
17
100
AcDbEntity
  8
FUSTA
100
AcDbLine
 10
600.0
 20
900.0
 30
0.0
 11
640.0
 21
900.0
 31
0.0
  0
LINE
  5
121
330
17
100
AcDbEntity
  8
FUSTA
100
AcDbLine
 10
600.0
 20
460.0
 30
0.0
 11
640.0
 21
460.0
 31
0.0
  0
LINE
  5
122
330
17
100
AcDbEntity
  8
FUSTA
100
AcDbLine
 10
600.0
 20
460.0
 30
0.0
 11
600.0
 21
940.0
 31
0.0
  0
LINE
  5
123
330
17
100
AcDbEntity
  8
FUSTA
100
AcDbLine
 10
640.0
 20
460.0
 30
0.0
 11
640.0
 21
940.0
 31
0.0
  0
LINE
  5
124
330
17
100
AcDbEntity
  8
FUSTA
100
AcDbLine
 10
1120.0
 20
380.0
 30
0.0
 11
1160.0
 21
380.0
 31
0.0
  0
LINE
  5
125
330
17
100
AcDbEntity
  8
FUSTA
100
AcDbLine
 10
1120.0
 20
380.0
 30
0.0
 11
1120.0
 21
420.0
 31
0.0
  0
LINE
  5
126
330
17
100
AcDbEntity
  8
FUSTA
100
AcDbLine
 10
1160.0
 20
380.0
 30
0.0
 11
1160.0
 21
420.0
 31
0.0
  0
LINE
  5
127
330
17
100
AcDbEntity
  8
FUSTA
100
AcDbLine
 10
1160.0
 20
420.0
 30
0.0
 11
1120.0
 21
420.0
 31
0.0
  0
LINE
  5
128
330
17
100
AcDbEntity
  8
FUSTA
100
AcDbLine
 10
1120.0
 20
780.0
 30
0.0
 11
1120.0
 21
820.0
 31
0.0
  0
LINE
  5
129
330
17
100
AcDbEntity
  8
FUSTA
100
AcDbLine
 10
1160.0
 20
780.0
 30
0.0
 11
1160.0
 21
820.0
 31
0.0
  0
LINE
  5
12A
330
17
100
AcDbEntity
  8
FUSTA
100
AcDbLine
 10
1120.0
 20
380.0
 30
0.0
 11
1120.0
 21
940.0
 31
0.0
  0
LINE
  5
12B
330
17
100
AcDbEntity
  8
FUSTA
100
AcDbLine
 10
1160.0
 20
380.0
 30
0.0
 11
1160.0
 21
940.0
 31
0.0
  0
LINE
  5
12C
330
17
100
AcDbEntity
  8
FUSTA
100
AcDbLine
 10
1160.0
 20
940.0
 30
0.0
 11
1120.0
 21
940.0
 31
0.0
  0
LINE
  5
12D
330
17
100
AcDbEntity
  8
FUSTA
100
AcDbLine
 10
1120.0
 20
900.0
 30
0.0
 11
1120.0
 21
940.0
 31
0.0
  0
LINE
  5
12E
330
17
100
AcDbEntity
  8
FUSTA
100
AcDbLine
 10
1160.0
 20
900.0
 30
0.0
 11
1160.0
 21
940.0
 31
0.0
  0
LINE
  5
12F
330
17
100
AcDbEntity
  8
FUSTA
100
AcDbLine
 10
1120.0
 20
900.0
 30
0.0
 11
1160.0
 21
900.0
 31
0.0
  0
LINE
  5
130
330
17
100
AcDbEntity
  8
FUSTA
100
AcDbLine
 10
1120.0
 20
460.0
 30
0.0
 11
1160.0
 21
460.0
 31
0.0
  0
LINE
  5
131
330
17
100
AcDbEntity
  8
FUSTA
100
AcDbLine
 10
1120.0
 20
460.0
 30
0.0
 11
1120.0
 21
940.0
 31
0.0
  0
LINE
  5
132
330
17
100
AcDbEntity
  8
FUSTA
100
AcDbLine
 10
1160.0
 20
460.0
 30
0.0
 11
1160.0
 21
940.0
 31
0.0
  0
LINE
  5
133
330
17
100
AcDbEntity
  8
FUSTA
100
AcDbLine
 10
640.0
 20
380.0
 30
0.0
 11
1120.0
 21
380.0
 31
0.0
  0
LINE
  5
134
330
17
100
AcDbEntity
  8
FUSTA
100
AcDbLine
 10
1120.0
 20
420.0
 30
0.0
 11
640.0
 21
420.0
 31
0.0
  0
LINE
  5
135
330
17
100
AcDbEntity
  8
FUSTA
100
AcDbLine
 10
1120.0
 20
820.0
 30
0.0
 11
640.0
 21
820.0
 31
0.0
  0
LINE
  5
136
330
17
100
AcDbEntity
  8
FUSTA
100
AcDbLine
 10
640.0
 20
900.0
 30
0.0
 11
1120.0
 21
900.0
 31
0.0
  0
LINE
  5
137
330
17
100
AcDbEntity
  8
FUSTA
100
AcDbLine
 10
1120.0
 20
940.0
 30
0.0
 11
640.0
 21
940.0
 31
0.0
  0
LINE
  5
138
330
17
100
AcDbEntity
  8
TELA
100
AcDbLine
 10
640.0
 20
380.0
 30
0.0
 11
640.0
 21
820.0
 31
0.0
  0
LINE
  5
139
330
17
100
AcDbEntity
  8
TELA
100
AcDbLine
 10
1120.0
 20
380.0
 30
0.0
 11
1120.0
 21
820.0
 31
0.0
  0
LINE
  5
13A
330
17
100
AcDbEntity
  8
TELA
100
AcDbLine
 10
640.0
 20
776.0
 30
0.0
 11
1120.0
 21
776.0
 31
0.0
  0
LINE
  5
13B
330
17
100
AcDbEntity
  8
TELA
100
AcDbLine
 10
640.0
 20
776.0
 30
0.0
 11
640.0
 21
780.0
 31
0.0
  0
LINE
  5
13C
330
17
100
AcDbEntity
  8
TELA
100
AcDbLine
 10
1120.0
 20
776.0
 30
0.0
 11
1120.0
 21
780.0
 31
0.0
  0
LINE
  5
13D
330
17
100
AcDbEntity
  8
TELA
100
AcDbLine
 10
1120.0
 20
780.0
 30
0.0
 11
640.0
 21
780.0
 31
0.0
  0
LINE
  5
13E
330
17
100
AcDbEntity
  8
TELA
100
AcDbLine
 10
640.0
 20
896.0
 30
0.0
 11
1120.0
 21
896.0
 31
0.0
  0
LINE
  5
13F
330
17
100
AcDbEntity
  8
TELA
100
AcDbLine
 10
640.0
 20
896.0
 30
0.0
 11
640.0
 21
900.0
 31
0.0
  0
LINE
  5
140
330
17
100
AcDbEntity
  8
TELA
100
AcDbLine
 10
1120.0
 20
896.0
 30
0.0
 11
1120.0
 21
900.0
 31
0.0
  0
LINE
  5
141
330
17
100
AcDbEntity
  8
FUSTA
100
AcDbLine
 10
540.0
 20
1420.0
 30
0.0
 11
1220.0
 21
1420.0
 31
0.0
  0
LINE
  5
142
330
17
100
AcDbEntity
  8
FUSTA
100
AcDbLine
 10
1600.0
 20
1420.0
 30
0.0
 11
2280.0
 21
1420.0
 31
0.0
  0
LINE
  5
143
330
17
100
AcDbEntity
  8
EIXOS
100
AcDbLine
 10
880.0
 20
1380.0
 30
0.0
 11
880.0
 21
2420.0
 31
0.0
  0
LINE
  5
144
330
17
100
AcDbEntity
  8
EIXOS
100
AcDbLine
 10
880.0
 20
340.0
 30
0.0
 11
880.0
 21
980.0
 31
0.0
  0
DIMENSION
  5
145
330
17
100
AcDbEntity
  8
COTES
100
AcDbDimension
280
0
  2
*D1
  3
EXAR_1-10
 10
600.0
 20
1290.0
 30
0.0
 11
880.0
 21
1308.0
 31
0.0
 70
32
 71
5
  1
<>
100
AcDbAlignedDimension
 13
600.0
 23
1420.0
 33
0.0
 14
1160.0
 24
1420.0
 34
0.0
 50
0.0
100
AcDbRotatedDimension
  0
DIMENSION
  5
154
330
17
100
AcDbEntity
  8
COTES
100
AcDbDimension
280
0
  2
*D2
  3
EXAR_1-10
 10
600.0
 20
1360.0
 30
0.0
 11
620.0
 21
1378.0
 31
0.0
 70
32
 71
5
  1
<>
100
AcDbAlignedDimension
 13
600.0
 23
1420.0
 33
0.0
 14
640.0
 24
1420.0
 34
0.0
 50
0.0
100
AcDbRotatedDimension
  0
DIMENSION
  5
163
330
17
100
AcDbEntity
  8
COTES
100
AcDbDimension
280
0
  2
*D3
  3
EXAR_1-10
 10
640.0
 20
1360.0
 30
0.0
 11
880.0
 21
1378.0
 31
0.0
 70
32
 71
5
  1
<>
100
AcDbAlignedDimension
 13
640.0
 23
1420.0
 33
0.0
 14
1120.0
 24
1420.0
 34
0.0
 50
0.0
100
AcDbRotatedDimension
  0
DIMENSION
  5
172
330
17
100
AcDbEntity
  8
COTES
100
AcDbDimension
280
0
  2
*D4
  3
EXAR_1-10
 10
340.0
 20
1420.0
 30
0.0
 11
322.0
 21
1900.0
 31
0.0
 70
32
 71
5
  1
<>
100
AcDbAlignedDimension
 13
600.0
 23
1420.0
 33
0.0
 14
600.0
 24
2380.0
 34
0.0
 50
90.0
100
AcDbRotatedDimension
  0
DIMENSION
  5
181
330
17
100
AcDbEntity
  8
COTES
100
AcDbDimension
280
0
  2
*D5
  3
EXAR_1-10
 10
470.0
 20
1420.0
 30
0.0
 11
452.0
 21
1540.0
 31
0.0
 70
32
 71
5
  1
<>
100
AcDbAlignedDimension
 13
600.0
 23
1420.0
 33
0.0
 14
600.0
 24
1660.0
 34
0.0
 50
90.0
100
AcDbRotatedDimension
  0
DIMENSION
  5
190
330
17
100
AcDbEntity
  8
COTES
100
AcDbDimension
280
0
  2
*D6
  3
EXAR_1-10
 10
470.0
 20
1660.0
 30
0.0
 11
452.0
 21
1760.0
 31
0.0
 70
32
 71
5
  1
<>
100
AcDbAlignedDimension
 13
600.0
 23
1660.0
 33
0.0
 14
600.0
 24
1860.0
 34
0.0
 50
90.0
100
AcDbRotatedDimension
  0
DIMENSION
  5
19F
330
17
100
AcDbEntity
  8
COTES
100
AcDbDimension
280
0
  2
*D7
  3
EXAR_1-10
 10
470.0
 20
1860.0
 30
0.0
 11
452.0
 21
1960.0
 31
0.0
 70
32
 71
5
  1
<>
100
AcDbAlignedDimension
 13
600.0
 23
1860.0
 33
0.0
 14
600.0
 24
2060.0
 34
0.0
 50
90.0
100
AcDbRotatedDimension
  0
DIMENSION
  5
1AE
330
17
100
AcDbEntity
  8
COTES
100
AcDbDimension
280
0
  2
*D8
  3
EXAR_1-10
 10
470.0
 20
2060.0
 30
0.0
 11
452.0
 21
2080.0
 31
0.0
 70
32
 71
5
  1
<>
100
AcDbAlignedDimension
 13
600.0
 23
2060.0
 33
0.0
 14
600.0
 24
2100.0
 34
0.0
 50
90.0
100
AcDbRotatedDimension
  0
DIMENSION
  5
1BD
330
17
100
AcDbEntity
  8
COTES
100
AcDbDimension
280
0
  2
*D9
  3
EXAR_1-10
 10
470.0
 20
2100.0
 30
0.0
 11
452.0
 21
2240.0
 31
0.0
 70
32
 71
5
  1
<>
100
AcDbAlignedDimension
 13
600.0
 23
2100.0
 33
0.0
 14
600.0
 24
2380.0
 34
0.0
 50
90.0
100
AcDbRotatedDimension
  0
TEXT
  5
1CC
330
17
100
AcDbEntity
  8
TEXT
100
AcDbText
 10
880.0
 20
2500.0
 30
0.0
 40
30.0
  1
ALÇAT
  7
EXAR
 72
1
 11
880.0
 21
2500.0
 31
0.0
100
AcDbText
 73
1
  0
DIMENSION
  5
1CD
330
17
100
AcDbEntity
  8
COTES
100
AcDbDimension
280
0
  2
*D10
  3
EXAR_1-10
 10
1660.0
 20
1290.0
 30
0.0
 11
1940.0
 21
1308.0
 31
0.0
 70
32
 71
5
  1
<>
100
AcDbAlignedDimension
 13
1660.0
 23
1420.0
 33
0.0
 14
2220.0
 24
1420.0
 34
0.0
 50
0.0
100
AcDbRotatedDimension
  0
DIMENSION
  5
1DC
330
17
100
AcDbEntity
  8
COTES
100
AcDbDimension
280
0
  2
*D11
  3
EXAR_1-10
 10
1660.0
 20
1360.0
 30
0.0
 11
1680.0
 21
1378.0
 31
0.0
 70
32
 71
5
  1
<>
100
AcDbAlignedDimension
 13
1660.0
 23
1420.0
 33
0.0
 14
1700.0
 24
1420.0
 34
0.0
 50
0.0
100
AcDbRotatedDimension
  0
DIMENSION
  5
1EB
330
17
100
AcDbEntity
  8
COTES
100
AcDbDimension
280
0
  2
*D12
  3
EXAR_1-10
 10
1700.0
 20
1360.0
 30
0.0
 11
1740.0
 21
1378.0
 31
0.0
 70
32
 71
5
  1
<>
100
AcDbAlignedDimension
 13
1700.0
 23
1420.0
 33
0.0
 14
1780.0
 24
1420.0
 34
0.0
 50
0.0
100
AcDbRotatedDimension
  0
DIMENSION
  5
1FA
330
17
100
AcDbEntity
  8
COTES
100
AcDbDimension
280
0
  2
*D13
  3
EXAR_1-10
 10
1780.0
 20
1360.0
 30
0.0
 11
1800.0
 21
1378.0
 31
0.0
 70
32
 71
5
  1
<>
100
AcDbAlignedDimension
 13
1780.0
 23
1420.0
 33
0.0
 14
1820.0
 24
1420.0
 34
0.0
 50
0.0
100
AcDbRotatedDimension
  0
DIMENSION
  5
209
330
17
100
AcDbEntity
  8
COTES
100
AcDbDimension
280
0
  2
*D14
  3
EXAR_1-10
 10
1820.0
 20
1360.0
 30
0.0
 11
2000.0
 21
1378.0
 31
0.0
 70
32
 71
5
  1
<>
100
AcDbAlignedDimension
 13
1820.0
 23
1420.0
 33
0.0
 14
2180.0
 24
1420.0
 34
0.0
 50
0.0
100
AcDbRotatedDimension
  0
DIMENSION
  5
218
330
17
100
AcDbEntity
  8
COTES
100
AcDbDimension
280
0
  2
*D15
  3
EXAR_1-10
 10
2180.0
 20
1360.0
 30
0.0
 11
2200.0
 21
1378.0
 31
0.0
 70
32
 71
5
  1
<>
100
AcDbAlignedDimension
 13
2180.0
 23
1420.0
 33
0.0
 14
2220.0
 24
1420.0
 34
0.0
 50
0.0
100
AcDbRotatedDimension
  0
DIMENSION
  5
227
330
17
100
AcDbEntity
  8
COTES
100
AcDbDimension
280
0
  2
*D16
  3
EXAR_1-10
 10
1660.0
 20
2190.0
 30
0.0
 11
1900.0
 21
2208.0
 31
0.0
 70
32
 71
5
  1
<>
100
AcDbAlignedDimension
 13
1660.0
 23
2100.0
 33
0.0
 14
2140.0
 24
2100.0
 34
0.0
 50
0.0
100
AcDbRotatedDimension
  0
DIMENSION
  5
236
330
17
100
AcDbEntity
  8
COTES
100
AcDbDimension
280
0
  2
*D17
  3
EXAR_1-10
 10
2340.0
 20
1420.0
 30
0.0
 11
2322.0
 21
1600.0
 31
0.0
 70
32
 71
5
  1
<>
100
AcDbAlignedDimension
 13
2220.0
 23
1420.0
 33
0.0
 14
2220.0
 24
1780.0
 34
0.0
 50
90.0
100
AcDbRotatedDimension
  0
DIMENSION
  5
245
330
17
100
AcDbEntity
  8
COTES
100
AcDbDimension
280
0
  2
*D18
  3
EXAR_1-10
 10
2440.0
 20
1420.0
 30
0.0
 11
2422.0
 21
1640.0
 31
0.0
 70
32
 71
5
  1
<>
100
AcDbAlignedDimension
 13
2220.0
 23
1420.0
 33
0.0
 14
2220.0
 24
1860.0
 34
0.0
 50
90.0
100
AcDbRotatedDimension
  0
DIMENSION
  5
254
330
17
100
AcDbEntity
  8
COTES
100
AcDbDimension
280
0
  2
*D19
  3
EXAR_1-10
 10
2540.0
 20
1420.0
 30
0.0
 11
2522.0
 21
1760.0
 31
0.0
 70
32
 71
5
  1
<>
100
AcDbAlignedDimension
 13
2220.0
 23
1420.0
 33
0.0
 14
2220.0
 24
2100.0
 34
0.0
 50
90.0
100
AcDbRotatedDimension
  0
DIMENSION
  5
263
330
17
100
AcDbEntity
  8
COTES
100
AcDbDimension
280
0
  2
*D20
  3
EXAR_1-10
 10
1540.0
 20
1900.0
 30
0.0
 11
1522.0
 21
1960.0
 31
0.0
 70
32
 71
5
  1
<>
100
AcDbAlignedDimension
 13
1660.0
 23
1900.0
 33
0.0
 14
1660.0
 24
2020.0
 34
0.0
 50
90.0
100
AcDbRotatedDimension
  0
DIMENSION
  5
272
330
17
100
AcDbEntity
  8
COTES
100
AcDbDimension
280
0
  2
*D21
  3
EXAR_1-10
 10
1540.0
 20
2260.0
 30
0.0
 11
1522.0
 21
2310.0
 31
0.0
 70
32
 71
5
  1
<>
100
AcDbAlignedDimension
 13
1660.0
 23
2260.0
 33
0.0
 14
1660.0
 24
2360.0
 34
0.0
 50
90.0
100
AcDbRotatedDimension
  0
TEXT
  5
281
330
17
100
AcDbEntity
  8
TEXT
100
AcDbText
 10
1940.0
 20
2500.0
 30
0.0
 40
30.0
  1
PERFIL ESQUERRE
  7
EXAR
 72
1
 11
1940.0
 21
2500.0
 31
0.0
100
AcDbText
 73
1
  0
DIMENSION
  5
282
330
17
100
AcDbEntity
  8
COTES
100
AcDbDimension
280
0
  2
*D22
  3
EXAR_1-10
 10
600.0
 20
1050.0
 30
0.0
 11
880.0
 21
1068.0
 31
0.0
 70
32
 71
5
  1
<>
100
AcDbAlignedDimension
 13
600.0
 23
940.0
 33
0.0
 14
1160.0
 24
940.0
 34
0.0
 50
0.0
100
AcDbRotatedDimension
  0
DIMENSION
  5
291
330
17
100
AcDbEntity
  8
COTES
100
AcDbDimension
280
0
  2
*D23
  3
EXAR_1-10
 10
470.0
 20
380.0
 30
0.0
 11
452.0
 21
660.0
 31
0.0
 70
32
 71
5
  1
<>
100
AcDbAlignedDimension
 13
600.0
 23
380.0
 33
0.0
 14
600.0
 24
940.0
 34
0.0
 50
90.0
100
AcDbRotatedDimension
  0
DIMENSION
  5
2A0
330
17
100
AcDbEntity
  8
COTES
100
AcDbDimension
280
0
  2
*D24
  3
EXAR_1-10
 10
1250.0
 20
380.0
 30
0.0
 11
1232.0
 21
420.0
 31
0.0
 70
32
 71
5
  1
<>
100
AcDbAlignedDimension
 13
1160.0
 23
380.0
 33
0.0
 14
1160.0
 24
460.0
 34
0.0
 50
90.0
100
AcDbRotatedDimension
  0
DIMENSION
  5
2AF
330
17
100
AcDbEntity
  8
COTES
100
AcDbDimension
280
0
  2
*D25
  3
EXAR_1-10
 10
1250.0
 20
780.0
 30
0.0
 11
1232.0
 21
800.0
 31
0.0
 70
32
 71
5
  1
<>
100
AcDbAlignedDimension
 13
1160.0
 23
780.0
 33
0.0
 14
1160.0
 24
820.0
 34
0.0
 50
90.0
100
AcDbRotatedDimension
  0
DIMENSION
  5
2BE
330
17
100
AcDbEntity
  8
COTES
100
AcDbDimension
280
0
  2
*D26
  3
EXAR_1-10
 10
1250.0
 20
460.0
 30
0.0
 11
1232.0
 21
620.0
 31
0.0
 70
32
 71
5
  1
<>
100
AcDbAlignedDimension
 13
1160.0
 23
460.0
 33
0.0
 14
1160.0
 24
780.0
 34
0.0
 50
90.0
100
AcDbRotatedDimension
  0
DIMENSION
  5
2CD
330
17
100
AcDbEntity
  8
COTES
100
AcDbDimension
280
0
  2
*D27
  3
EXAR_1-10
 10
1250.0
 20
820.0
 30
0.0
 11
1232.0
 21
860.0
 31
0.0
 70
32
 71
5
  1
<>
100
AcDbAlignedDimension
 13
1160.0
 23
820.0
 33
0.0
 14
1160.0
 24
900.0
 34
0.0
 50
90.0
100
AcDbRotatedDimension
  0
DIMENSION
  5
2DC
330
17
100
AcDbEntity
  8
COTES
100
AcDbDimension
280
0
  2
*D28
  3
EXAR_1-10
 10
1250.0
 20
900.0
 30
0.0
 11
1232.0
 21
920.0
 31
0.0
 70
32
 71
5
  1
<>
100
AcDbAlignedDimension
 13
1160.0
 23
900.0
 33
0.0
 14
1160.0
 24
940.0
 34
0.0
 50
90.0
100
AcDbRotatedDimension
  0
TEXT
  5
2EB
330
17
100
AcDbEntity
  8
TEXT
100
AcDbText
 10
880.0
 20
150.0
 30
0.0
 40
30.0
  1
PLANTA
  7
EXAR
 72
1
 11
880.0
 21
150.0
 31
0.0
100
AcDbText
 73
1
  0
LINE
  5
2EC
330
17
100
AcDbEntity
  8
FUSTA
100
AcDbLine
 10
2815.0257738807145
 20
660.0
 30
0.0
 11
2849.666790032092
 21
640.0
 31
0.0
  0
LINE
  5
2ED
330
17
100
AcDbEntity
  8
FUSTA
100
AcDbLine
 10
2815.0257738807145
 20
660.0
 30
0.0
 11
2815.0257738807145
 21
1100.0
 31
0.0
  0
LINE
  5
2EE
330
17
100
AcDbEntity
  8
FUSTA
100
AcDbLine
 10
2849.666790032092
 20
640.0
 30
0.0
 11
2884.3078061834694
 21
660.0
 31
0.0
  0
LINE
  5
2EF
330
17
100
AcDbEntity
  8
FUSTA
100
AcDbLine
 10
2849.666790032092
 20
640.0
 30
0.0
 11
2849.666790032092
 21
1080.0
 31
0.0
  0
LINE
  5
2F0
330
17
100
AcDbEntity
  8
FUSTA
100
AcDbLine
 10
2884.3078061834694
 20
660.0
 30
0.0
 11
2884.3078061834694
 21
1020.0
 31
0.0
  0
LINE
  5
2F1
330
17
100
AcDbEntity
  8
FUSTA
100
AcDbLine
 10
2815.0257738807145
 20
1100.0
 30
0.0
 11
2849.666790032092
 21
1080.0
 31
0.0
  0
LINE
  5
2F2
330
17
100
AcDbEntity
  8
FUSTA
100
AcDbLine
 10
2815.0257738807145
 20
1100.0
 30
0.0
 11
2849.666790032092
 21
1120.0
 31
0.0
  0
LINE
  5
2F3
330
17
100
AcDbEntity
  8
FUSTA
100
AcDbLine
 10
2868.7193489153497
 20
1091.0
 30
0.0
 11
2884.3078061834694
 21
1100.0
 31
0.0
  0
LINE
  5
2F4
330
17
100
AcDbEntity
  8
FUSTA
100
AcDbLine
 10
2884.3078061834694
 20
1100.0
 30
0.0
 11
2849.666790032092
 21
1120.0
 31
0.0
  0
LINE
  5
2F5
330
17
100
AcDbEntity
  8
FUSTA
100
AcDbLine
 10
3161.43593539449
 20
860.0
 30
0.0
 11
3196.0769515458674
 21
840.0
 31
0.0
  0
LINE
  5
2F6
330
17
100
AcDbEntity
  8
FUSTA
100
AcDbLine
 10
3161.43593539449
 20
1200.0
 30
0.0
 11
3161.43593539449
 21
1460.0
 31
0.0
  0
LINE
  5
2F7
330
17
100
AcDbEntity
  8
FUSTA
100
AcDbLine
 10
3196.0769515458674
 20
1212.0
 30
0.0
 11
3196.0769515458674
 21
1316.0
 31
0.0
  0
LINE
  5
2F8
330
17
100
AcDbEntity
  8
FUSTA
100
AcDbLine
 10
3196.0769515458674
 20
1440.0
 30
0.0
 11
3196.0769515458674
 21
1480.0
 31
0.0
  0
LINE
  5
2F9
330
17
100
AcDbEntity
  8
FUSTA
100
AcDbLine
 10
3230.717967697245
 20
1224.0
 30
0.0
 11
3230.717967697245
 21
1296.0
 31
0.0
  0
LINE
  5
2FA
330
17
100
AcDbEntity
  8
FUSTA
100
AcDbLine
 10
3230.717967697245
 20
1420.0
 30
0.0
 11
3230.717967697245
 21
1500.0
 31
0.0
  0
LINE
  5
2FB
330
17
100
AcDbEntity
  8
FUSTA
100
AcDbLine
 10
3196.0769515458674
 20
1480.0
 30
0.0
 11
3230.717967697245
 21
1500.0
 31
0.0
  0
LINE
  5
2FC
330
17
100
AcDbEntity
  8
FUSTA
100
AcDbLine
 10
2815.0257738807145
 20
900.0
 30
0.0
 11
2849.666790032092
 21
880.0
 31
0.0
  0
LINE
  5
2FD
330
17
100
AcDbEntity
  8
FUSTA
100
AcDbLine
 10
2815.0257738807145
 20
900.0
 30
0.0
 11
2815.0257738807145
 21
940.0
 31
0.0
  0
LINE
  5
2FE
330
17
100
AcDbEntity
  8
FUSTA
100
AcDbLine
 10
2849.666790032092
 20
880.0
 30
0.0
 11
2988.230854637602
 21
960.0
 31
0.0
  0
LINE
  5
2FF
330
17
100
AcDbEntity
  8
FUSTA
100
AcDbLine
 10
2849.666790032092
 20
880.0
 30
0.0
 11
2849.666790032092
 21
920.0
 31
0.0
  0
LINE
  5
300
330
17
100
AcDbEntity
  8
FUSTA
100
AcDbLine
 10
2815.0257738807145
 20
940.0
 30
0.0
 11
2849.666790032092
 21
920.0
 31
0.0
  0
LINE
  5
301
330
17
100
AcDbEntity
  8
FUSTA
100
AcDbLine
 10
2884.3078061834694
 20
980.0
 30
0.0
 11
2918.948822334847
 21
1000.0
 31
0.0
  0
LINE
  5
302
330
17
100
AcDbEntity
  8
FUSTA
100
AcDbLine
 10
2849.666790032092
 20
920.0
 30
0.0
 11
2953.589838486225
 21
980.0
 31
0.0
  0
LINE
  5
303
330
17
100
AcDbEntity
  8
FUSTA
100
AcDbLine
 10
3303.464101615138
 20
1182.0
 30
0.0
 11
3334.6410161513777
 21
1200.0
 31
0.0
  0
LINE
  5
304
330
17
100
AcDbEntity
  8
FUSTA
100
AcDbLine
 10
3265.3589838486228
 20
1204.0
 30
0.0
 11
3265.3589838486228
 21
1276.0
 31
0.0
  0
LINE
  5
305
330
17
100
AcDbEntity
  8
FUSTA
100
AcDbLine
 10
3265.3589838486228
 20
1400.0
 30
0.0
 11
3265.3589838486228
 21
1520.0
 31
0.0
  0
LINE
  5
306
330
17
100
AcDbEntity
  8
FUSTA
100
AcDbLine
 10
3265.3589838486228
 20
1600.0
 30
0.0
 11
3265.3589838486228
 21
1880.0
 31
0.0
  0
LINE
  5
307
330
17
100
AcDbEntity
  8
FUSTA
100
AcDbLine
 10
3300.0
 20
1184.0
 30
0.0
 11
3300.0
 21
1256.0
 31
0.0
  0
LINE
  5
308
330
17
100
AcDbEntity
  8
FUSTA
100
AcDbLine
 10
3300.0
 20
1380.0
 30
0.0
 11
3300.0
 21
1736.0
 31
0.0
  0
LINE
  5
309
330
17
100
AcDbEntity
  8
FUSTA
100
AcDbLine
 10
3300.0
 20
1840.0000000000002
 30
0.0
 11
3300.0
 21
1860.0
 31
0.0
  0
LINE
  5
30A
330
17
100
AcDbEntity
  8
FUSTA
100
AcDbLine
 10
3334.6410161513777
 20
1200.0
 30
0.0
 11
3334.6410161513777
 21
1236.0
 31
0.0
  0
LINE
  5
30B
330
17
100
AcDbEntity
  8
FUSTA
100
AcDbLine
 10
3334.6410161513777
 20
1360.0
 30
0.0
 11
3334.6410161513777
 21
1716.0
 31
0.0
  0
LINE
  5
30C
330
17
100
AcDbEntity
  8
FUSTA
100
AcDbLine
 10
3334.6410161513777
 20
1820.0
 30
0.0
 11
3334.6410161513777
 21
1880.0
 31
0.0
  0
LINE
  5
30D
330
17
100
AcDbEntity
  8
FUSTA
100
AcDbLine
 10
3265.3589838486228
 20
1880.0
 30
0.0
 11
3300.0
 21
1860.0
 31
0.0
  0
LINE
  5
30E
330
17
100
AcDbEntity
  8
FUSTA
100
AcDbLine
 10
3265.3589838486228
 20
1880.0
 30
0.0
 11
3300.0
 21
1900.0
 31
0.0
  0
LINE
  5
30F
330
17
100
AcDbEntity
  8
FUSTA
100
AcDbLine
 10
3300.0
 20
1860.0
 30
0.0
 11
3334.6410161513777
 21
1880.0
 31
0.0
  0
LINE
  5
310
330
17
100
AcDbEntity
  8
FUSTA
100
AcDbLine
 10
3334.6410161513777
 20
1880.0
 30
0.0
 11
3300.0
 21
1900.0
 31
0.0
  0
LINE
  5
311
330
17
100
AcDbEntity
  8
FUSTA
100
AcDbLine
 10
2884.3078061834694
 20
1340.0
 30
0.0
 11
2918.948822334847
 21
1320.0
 31
0.0
  0
LINE
  5
312
330
17
100
AcDbEntity
  8
FUSTA
100
AcDbLine
 10
2884.3078061834694
 20
1340.0
 30
0.0
 11
2884.3078061834694
 21
1380.0
 31
0.0
  0
LINE
  5
313
330
17
100
AcDbEntity
  8
FUSTA
100
AcDbLine
 10
2918.948822334847
 20
1320.0
 30
0.0
 11
3334.6410161513777
 21
1560.0
 31
0.0
  0
LINE
  5
314
330
17
100
AcDbEntity
  8
FUSTA
100
AcDbLine
 10
2918.948822334847
 20
1320.0
 30
0.0
 11
2918.948822334847
 21
1360.0
 31
0.0
  0
LINE
  5
315
330
17
100
AcDbEntity
  8
FUSTA
100
AcDbLine
 10
3334.6410161513777
 20
1560.0
 30
0.0
 11
3334.6410161513777
 21
1600.0
 31
0.0
  0
LINE
  5
316
330
17
100
AcDbEntity
  8
FUSTA
100
AcDbLine
 10
2884.3078061834694
 20
1380.0
 30
0.0
 11
2918.948822334847
 21
1360.0
 31
0.0
  0
LINE
  5
317
330
17
100
AcDbEntity
  8
FUSTA
100
AcDbLine
 10
2884.3078061834694
 20
1380.0
 30
0.0
 11
3265.3589838486228
 21
1600.0
 31
0.0
  0
LINE
  5
318
330
17
100
AcDbEntity
  8
FUSTA
100
AcDbLine
 10
2918.948822334847
 20
1360.0
 30
0.0
 11
3334.6410161513777
 21
1600.0
 31
0.0
  0
LINE
  5
319
330
17
100
AcDbEntity
  8
FUSTA
100
AcDbLine
 10
3265.3589838486228
 20
400.0
 30
0.0
 11
3300.0
 21
380.0
 31
0.0
  0
LINE
  5
31A
330
17
100
AcDbEntity
  8
FUSTA
100
AcDbLine
 10
3265.3589838486228
 20
400.0
 30
0.0
 11
3265.3589838486228
 21
840.0
 31
0.0
  0
LINE
  5
31B
330
17
100
AcDbEntity
  8
FUSTA
100
AcDbLine
 10
3300.0
 20
380.0
 30
0.0
 11
3334.6410161513777
 21
400.0
 31
0.0
  0
LINE
  5
31C
330
17
100
AcDbEntity
  8
FUSTA
100
AcDbLine
 10
3300.0
 20
380.0
 30
0.0
 11
3300.0
 21
820.0
 31
0.0
  0
LINE
  5
31D
330
17
100
AcDbEntity
  8
FUSTA
100
AcDbLine
 10
3334.6410161513777
 20
400.0
 30
0.0
 11
3334.6410161513777
 21
840.0
 31
0.0
  0
LINE
  5
31E
330
17
100
AcDbEntity
  8
FUSTA
100
AcDbLine
 10
3265.3589838486228
 20
840.0
 30
0.0
 11
3300.0
 21
820.0
 31
0.0
  0
LINE
  5
31F
330
17
100
AcDbEntity
  8
FUSTA
100
AcDbLine
 10
3265.3589838486228
 20
840.0
 30
0.0
 11
3300.0
 21
860.0
 31
0.0
  0
LINE
  5
320
330
17
100
AcDbEntity
  8
FUSTA
100
AcDbLine
 10
3300.0
 20
820.0
 30
0.0
 11
3334.6410161513777
 21
840.0
 31
0.0
  0
LINE
  5
321
330
17
100
AcDbEntity
  8
FUSTA
100
AcDbLine
 10
3334.6410161513777
 20
840.0
 30
0.0
 11
3300.0
 21
860.0
 31
0.0
  0
LINE
  5
322
330
17
100
AcDbEntity
  8
FUSTA
100
AcDbLine
 10
3611.769145362398
 20
600.0
 30
0.0
 11
3646.4101615137756
 21
580.0
 31
0.0
  0
LINE
  5
323
330
17
100
AcDbEntity
  8
FUSTA
100
AcDbLine
 10
3611.769145362398
 20
600.0
 30
0.0
 11
3611.769145362398
 21
800.0
 31
0.0
  0
LINE
  5
324
330
17
100
AcDbEntity
  8
FUSTA
100
AcDbLine
 10
3611.769145362398
 20
880.0
 30
0.0
 11
3611.769145362398
 21
1200.0
 31
0.0
  0
LINE
  5
325
330
17
100
AcDbEntity
  8
FUSTA
100
AcDbLine
 10
3646.4101615137756
 20
580.0
 30
0.0
 11
3681.051177665153
 21
600.0
 31
0.0
  0
LINE
  5
326
330
17
100
AcDbEntity
  8
FUSTA
100
AcDbLine
 10
3646.4101615137756
 20
580.0
 30
0.0
 11
3646.4101615137756
 21
1220.0
 31
0.0
  0
LINE
  5
327
330
17
100
AcDbEntity
  8
FUSTA
100
AcDbLine
 10
3681.051177665153
 20
600.0
 30
0.0
 11
3681.051177665153
 21
1240.0
 31
0.0
  0
LINE
  5
328
330
17
100
AcDbEntity
  8
FUSTA
100
AcDbLine
 10
3646.4101615137756
 20
1220.0
 30
0.0
 11
3681.051177665153
 21
1240.0
 31
0.0
  0
LINE
  5
329
330
17
100
AcDbEntity
  8
FUSTA
100
AcDbLine
 10
3265.3589838486228
 20
640.0
 30
0.0
 11
3300.0
 21
620.0
 31
0.0
  0
LINE
  5
32A
330
17
100
AcDbEntity
  8
FUSTA
100
AcDbLine
 10
3265.3589838486228
 20
640.0
 30
0.0
 11
3265.3589838486228
 21
680.0
 31
0.0
  0
LINE
  5
32B
330
17
100
AcDbEntity
  8
FUSTA
100
AcDbLine
 10
3300.0
 20
620.0
 30
0.0
 11
3784.974226119286
 21
900.0
 31
0.0
  0
LINE
  5
32C
330
17
100
AcDbEntity
  8
FUSTA
100
AcDbLine
 10
3300.0
 20
620.0
 30
0.0
 11
3300.0
 21
660.0
 31
0.0
  0
LINE
  5
32D
330
17
100
AcDbEntity
  8
FUSTA
100
AcDbLine
 10
3784.974226119286
 20
900.0
 30
0.0
 11
3784.974226119286
 21
940.0
 31
0.0
  0
LINE
  5
32E
330
17
100
AcDbEntity
  8
FUSTA
100
AcDbLine
 10
3265.3589838486228
 20
680.0
 30
0.0
 11
3300.0
 21
660.0
 31
0.0
  0
LINE
  5
32F
330
17
100
AcDbEntity
  8
FUSTA
100
AcDbLine
 10
3334.6410161513777
 20
720.0
 30
0.0
 11
3611.769145362398
 21
880.0
 31
0.0
  0
LINE
  5
330
330
17
100
AcDbEntity
  8
FUSTA
100
AcDbLine
 10
3681.051177665153
 20
920.0
 30
0.0
 11
3715.6921938165306
 21
940.0
 31
0.0
  0
LINE
  5
331
330
17
100
AcDbEntity
  8
FUSTA
100
AcDbLine
 10
3300.0
 20
660.0
 30
0.0
 11
3784.974226119286
 21
940.0
 31
0.0
  0
LINE
  5
332
330
17
100
AcDbEntity
  8
FUSTA
100
AcDbLine
 10
3715.6921938165306
 20
940.0
 30
0.0
 11
3715.6921938165306
 21
1260.0
 31
0.0
  0
LINE
  5
333
330
17
100
AcDbEntity
  8
FUSTA
100
AcDbLine
 10
3715.6921938165306
 20
1340.0
 30
0.0
 11
3715.6921938165306
 21
1620.0
 31
0.0
  0
LINE
  5
334
330
17
100
AcDbEntity
  8
FUSTA
100
AcDbLine
 10
3750.3332099679083
 20
880.0
 30
0.0
 11
3784.974226119286
 21
900.0
 31
0.0
  0
LINE
  5
335
330
17
100
AcDbEntity
  8
FUSTA
100
AcDbLine
 10
3750.3332099679083
 20
880.0
 30
0.0
 11
3750.3332099679083
 21
1600.0
 31
0.0
  0
LINE
  5
336
330
17
100
AcDbEntity
  8
FUSTA
100
AcDbLine
 10
3784.974226119286
 20
900.0
 30
0.0
 11
3784.974226119286
 21
1620.0
 31
0.0
  0
LINE
  5
337
330
17
100
AcDbEntity
  8
FUSTA
100
AcDbLine
 10
3715.6921938165306
 20
1620.0
 30
0.0
 11
3750.3332099679083
 21
1600.0
 31
0.0
  0
LINE
  5
338
330
17
100
AcDbEntity
  8
FUSTA
100
AcDbLine
 10
3715.6921938165306
 20
1620.0
 30
0.0
 11
3750.3332099679083
 21
1640.0
 31
0.0
  0
LINE
  5
339
330
17
100
AcDbEntity
  8
FUSTA
100
AcDbLine
 10
3750.3332099679083
 20
1600.0
 30
0.0
 11
3784.974226119286
 21
1620.0
 31
0.0
  0
LINE
  5
33A
330
17
100
AcDbEntity
  8
FUSTA
100
AcDbLine
 10
3784.974226119286
 20
1620.0
 30
0.0
 11
3750.3332099679083
 21
1640.0
 31
0.0
  0
LINE
  5
33B
330
17
100
AcDbEntity
  8
FUSTA
100
AcDbLine
 10
3334.6410161513777
 20
1080.0
 30
0.0
 11
3369.2820323027554
 21
1060.0
 31
0.0
  0
LINE
  5
33C
330
17
100
AcDbEntity
  8
FUSTA
100
AcDbLine
 10
3334.6410161513777
 20
1080.0
 30
0.0
 11
3334.6410161513777
 21
1120.0
 31
0.0
  0
LINE
  5
33D
330
17
100
AcDbEntity
  8
FUSTA
100
AcDbLine
 10
3369.2820323027554
 20
1060.0
 30
0.0
 11
3784.974226119286
 21
1300.0
 31
0.0
  0
LINE
  5
33E
330
17
100
AcDbEntity
  8
FUSTA
100
AcDbLine
 10
3369.2820323027554
 20
1060.0
 30
0.0
 11
3369.2820323027554
 21
1100.0
 31
0.0
  0
LINE
  5
33F
330
17
100
AcDbEntity
  8
FUSTA
100
AcDbLine
 10
3784.974226119286
 20
1300.0
 30
0.0
 11
3784.974226119286
 21
1340.0
 31
0.0
  0
LINE
  5
340
330
17
100
AcDbEntity
  8
FUSTA
100
AcDbLine
 10
3334.6410161513777
 20
1120.0
 30
0.0
 11
3369.2820323027554
 21
1100.0
 31
0.0
  0
LINE
  5
341
330
17
100
AcDbEntity
  8
FUSTA
100
AcDbLine
 10
3334.6410161513777
 20
1120.0
 30
0.0
 11
3715.6921938165306
 21
1340.0
 31
0.0
  0
LINE
  5
342
330
17
100
AcDbEntity
  8
FUSTA
100
AcDbLine
 10
3369.2820323027554
 20
1100.0
 30
0.0
 11
3784.974226119286
 21
1340.0
 31
0.0
  0
LINE
  5
343
330
17
100
AcDbEntity
  8
FUSTA
100
AcDbLine
 10
2849.666790032092
 20
1040.0
 30
0.0
 11
3265.3589838486228
 21
800.0
 31
0.0
  0
LINE
  5
344
330
17
100
AcDbEntity
  8
FUSTA
100
AcDbLine
 10
2849.666790032092
 20
1040.0
 30
0.0
 11
2849.666790032092
 21
1080.0
 31
0.0
  0
LINE
  5
345
330
17
100
AcDbEntity
  8
FUSTA
100
AcDbLine
 10
3265.3589838486228
 20
800.0
 30
0.0
 11
3265.3589838486228
 21
840.0
 31
0.0
  0
LINE
  5
346
330
17
100
AcDbEntity
  8
FUSTA
100
AcDbLine
 10
2849.666790032092
 20
1080.0
 30
0.0
 11
3265.3589838486228
 21
840.0
 31
0.0
  0
LINE
  5
347
330
17
100
AcDbEntity
  8
FUSTA
100
AcDbLine
 10
3300.0
 20
860.0
 30
0.0
 11
2884.3078061834694
 21
1100.0
 31
0.0
  0
LINE
  5
348
330
17
100
AcDbEntity
  8
FUSTA
100
AcDbLine
 10
3563.2717227504695
 20
948.0
 30
0.0
 11
3611.769145362398
 21
920.0
 31
0.0
  0
LINE
  5
349
330
17
100
AcDbEntity
  8
FUSTA
100
AcDbLine
 10
3611.769145362398
 20
920.0
 30
0.0
 11
3611.769145362398
 21
960.0
 31
0.0
  0
LINE
  5
34A
330
17
100
AcDbEntity
  8
FUSTA
100
AcDbLine
 10
3604.8409421321226
 20
964.0
 30
0.0
 11
3611.769145362398
 21
960.0
 31
0.0
  0
LINE
  5
34B
330
17
100
AcDbEntity
  8
FUSTA
100
AcDbLine
 10
3681.051177665153
 20
960.0
 30
0.0
 11
3715.6921938165306
 21
940.0
 31
0.0
  0
LINE
  5
34C
330
17
100
AcDbEntity
  8
FUSTA
100
AcDbLine
 10
3715.6921938165306
 20
980.0
 30
0.0
 11
3681.051177665153
 21
1000.0
 31
0.0
  0
LINE
  5
34D
330
17
100
AcDbEntity
  8
FUSTA
100
AcDbLine
 10
3611.769145362398
 20
1040.0
 30
0.0
 11
3473.2050807568876
 21
1120.0
 31
0.0
  0
LINE
  5
34E
330
17
100
AcDbEntity
  8
FUSTA
100
AcDbLine
 10
3403.9230484541326
 20
1160.0
 30
0.0
 11
3334.6410161513777
 21
1200.0
 31
0.0
  0
LINE
  5
34F
330
17
100
AcDbEntity
  8
TELA
100
AcDbLine
 10
2849.666790032092
 20
1080.0
 30
0.0
 11
2849.666790032092
 21
1084.0
 31
0.0
  0
LINE
  5
350
330
17
100
AcDbEntity
  8
TELA
100
AcDbLine
 10
3230.717967697245
 20
1224.0
 30
0.0
 11
2888.968032571547
 21
1098.439461883408
 31
0.0
  0
LINE
  5
351
330
17
100
AcDbEntity
  8
TELA
100
AcDbLine
 10
2868.463036464005
 20
1090.9058295964126
 30
0.0
 11
2849.666790032092
 21
1084.0
 31
0.0
  0
LINE
  5
352
330
17
100
AcDbEntity
  8
TELA
100
AcDbLine
 10
3230.717967697245
 20
1224.0
 30
0.0
 11
3372.746133917893
 21
1142.0
 31
0.0
  0
LINE
  5
353
330
17
100
AcDbEntity
  8
TELA
100
AcDbLine
 10
3442.028166220648
 20
1102.0
 30
0.0
 11
3611.769145362398
 21
1004.0
 31
0.0
  0
LINE
  5
354
330
17
100
AcDbEntity
  8
TELA
100
AcDbLine
 10
2849.666790032092
 20
1084.0
 30
0.0
 11
3265.3589838486228
 21
844.0
 31
0.0
  0
LINE
  5
355
330
17
100
AcDbEntity
  8
TELA
100
AcDbLine
 10
3308.0777257393347
 20
855.695067264574
 30
0.0
 11
3610.526418325577
 21
966.8161434977578
 31
0.0
  0
LINE
  5
356
330
17
100
AcDbEntity
  8
TELA
100
AcDbLine
 10
3265.3589838486228
 20
840.0
 30
0.0
 11
3265.3589838486228
 21
844.0
 31
0.0
  0
LINE
  5
357
330
17
100
AcDbEntity
  8
TELA
100
AcDbLine
 10
3610.526418325577
 20
970.8161434977578
 30
0.0
 11
3304.6602263880777
 21
858.4394618834081
 31
0.0
  0
LINE
  5
358
330
17
100
AcDbEntity
  8
TELA
100
AcDbLine
 10
3284.1552302805358
 20
850.9058295964126
 30
0.0
 11
3265.3589838486228
 21
844.0
 31
0.0
  0
LINE
  5
359
330
17
100
AcDbEntity
  8
TELA
100
AcDbLine
 10
3192.6128499307297
 20
1318.0
 30
0.0
 11
3435.0999629903727
 21
1178.0
 31
0.0
  0
LINE
  5
35A
330
17
100
AcDbEntity
  8
TELA
100
AcDbLine
 10
3504.3819952931276
 20
1138.0
 30
0.0
 11
3608.3050437472602
 21
1078.0
 31
0.0
  0
LINE
  5
35B
330
17
100
AcDbEntity
  8
TELA
100
AcDbLine
 10
3192.6128499307297
 20
1318.0
 30
0.0
 11
3192.6128499307297
 21
1438.0
 31
0.0
  0
LINE
  5
35C
330
17
100
AcDbEntity
  8
TELA
100
AcDbLine
 10
3608.3050437472602
 20
1078.0
 30
0.0
 11
3611.769145362398
 21
1080.0
 31
0.0
  0
LINE
  5
35D
330
17
100
AcDbEntity
  8
TELA
100
AcDbLine
 10
3608.3050437472602
 20
1078.0
 30
0.0
 11
3608.3050437472602
 21
1198.0
 31
0.0
  0
LINE
  5
35E
330
17
100
AcDbEntity
  8
TELA
100
AcDbLine
 10
3611.769145362398
 20
1080.0
 30
0.0
 11
3611.769145362398
 21
1200.0
 31
0.0
  0
LINE
  5
35F
330
17
100
AcDbEntity
  8
TELA
100
AcDbLine
 10
3192.6128499307297
 20
1438.0
 30
0.0
 11
3539.0230114445053
 21
1238.0
 31
0.0
  0
LINE
  5
360
330
17
100
AcDbEntity
  8
TELA
100
AcDbLine
 10
3192.6128499307297
 20
1438.0
 30
0.0
 11
3196.0769515458674
 21
1440.0
 31
0.0
  0
LINE
  5
361
330
17
100
AcDbEntity
  8
TELA
100
AcDbLine
 10
3608.3050437472602
 20
1198.0
 30
0.0
 11
3611.769145362398
 21
1200.0
 31
0.0
  0
LINE
  5
362
330
17
100
AcDbEntity
  8
TELA
100
AcDbLine
 10
3542.487113059643
 20
1240.0
 30
0.0
 11
3196.0769515458674
 21
1440.0
 31
0.0
  0
LINE
  5
363
330
17
100
AcDbEntity
  8
TELA
100
AcDbLine
 10
3296.5358983848623
 20
1738.0
 30
0.0
 11
3712.228092201393
 21
1498.0
 31
0.0
  0
LINE
  5
364
330
17
100
AcDbEntity
  8
TELA
100
AcDbLine
 10
3296.5358983848623
 20
1738.0
 30
0.0
 11
3296.5358983848623
 21
1838.0000000000002
 31
0.0
  0
LINE
  5
365
330
17
100
AcDbEntity
  8
TELA
100
AcDbLine
 10
3712.228092201393
 20
1498.0
 30
0.0
 11
3715.6921938165306
 21
1500.0
 31
0.0
  0
LINE
  5
366
330
17
100
AcDbEntity
  8
TELA
100
AcDbLine
 10
3712.228092201393
 20
1498.0
 30
0.0
 11
3712.228092201393
 21
1598.0
 31
0.0
  0
LINE
  5
367
330
17
100
AcDbEntity
  8
TELA
100
AcDbLine
 10
3715.6921938165306
 20
1500.0
 30
0.0
 11
3715.6921938165306
 21
1600.0
 31
0.0
  0
LINE
  5
368
330
17
100
AcDbEntity
  8
TELA
100
AcDbLine
 10
3296.5358983848623
 20
1838.0000000000002
 30
0.0
 11
3712.228092201393
 21
1598.0
 31
0.0
  0
LINE
  5
369
330
17
100
AcDbEntity
  8
TELA
100
AcDbLine
 10
3296.5358983848623
 20
1838.0000000000002
 30
0.0
 11
3300.0
 21
1840.0000000000002
 31
0.0
  0
LINE
  5
36A
330
17
100
AcDbEntity
  8
TELA
100
AcDbLine
 10
3712.228092201393
 20
1598.0
 30
0.0
 11
3715.6921938165306
 21
1600.0
 31
0.0
  0
LINE
  5
36B
330
17
100
AcDbEntity
  8
TELA
100
AcDbLine
 10
3715.6921938165306
 20
1600.0
 30
0.0
 11
3300.0
 21
1840.0000000000002
 31
0.0
  0
TEXT
  5
36C
330
17
100
AcDbEntity
  8
TEXT
100
AcDbText
 10
3300.0
 20
2020.0
 30
0.0
 40
30.0
  1
PERSPECTIVA ISOMÈTRICA
  7
EXAR
 72
1
 11
3300.0
 21
2020.0
 31
0.0
100
AcDbText
 73
1
  0
TEXT
  5
36D
330
17
100
AcDbEntity
  8
TEXT
100
AcDbText
 10
1550.0
 20
160.0
 30
0.0
 40
25.0
  1
Mòdul base  M = 40 mm  (secció dels llistons 40x40)
  7
EXAR
 11
1550.0
 21
160.0
 31
0.0
100
AcDbText
 73
1
  0
TEXT
  5
36E
330
17
100
AcDbEntity
  8
TEXT
100
AcDbText
 10
1550.0
 20
220.0
 30
0.0
 40
25.0
  1
Amplada 14M · Profunditat 14M · Alçada 24M
  7
EXAR
 11
1550.0
 21
220.0
 31
0.0
100
AcDbText
 73
1
  0
ENDSEC
  0
SECTION
  2
OBJECTS
  0
DICTIONARY
  5
A
330
0
100
AcDbDictionary
281
1
  3
ACAD_COLOR
350
B
  3
ACAD_GROUP
350
C
  3
ACAD_LAYOUT
350
D
  3
ACAD_MATERIAL
350
E
  3
ACAD_MLEADERSTYLE
350
F
  3
ACAD_MLINESTYLE
350
10
  3
ACAD_PLOTSETTINGS
350
11
  3
ACAD_PLOTSTYLENAME
350
12
  3
ACAD_SCALELIST
350
14
  3
ACAD_TABLESTYLE
350
15
  3
ACAD_VISUALSTYLE
350
16
  3
EZDXF_META
350
2D
  0
DICTIONARY
  5
B
330
A
100
AcDbDictionary
281
1
  0
DICTIONARY
  5
C
330
A
100
AcDbDictionary
281
1
  0
DICTIONARY
  5
D
330
A
100
AcDbDictionary
281
1
  3
Model
350
1A
  3
Layout1
350
1E
  0
DICTIONARY
  5
E
330
A
100
AcDbDictionary
281
1
  3
ByBlock
350
1F
  3
ByLayer
350
20
  3
Global
350
21
  0
DICTIONARY
  5
F
330
A
100
AcDbDictionary
281
1
  3
Standard
350
2C
  0
DICTIONARY
  5
10
330
A
100
AcDbDictionary
281
1
  3
Standard
350
22
  0
DICTIONARY
  5
11
330
A
100
AcDbDictionary
281
1
  0
ACDBDICTIONARYWDFLT
  5
12
330
A
100
AcDbDictionary
281
1
  3
Normal
350
13
100
AcDbDictionaryWithDefault
340
13
  0
ACDBPLACEHOLDER
  5
13
330
12
  0
DICTIONARY
  5
14
330
A
100
AcDbDictionary
281
1
  0
DICTIONARY
  5
15
330
A
100
AcDbDictionary
281
1
  0
DICTIONARY
  5
16
330
A
100
AcDbDictionary
281
1
  3
2dWireframe
350
5A
  3
Basic
350
5B
  3
Brighten
350
5C
  3
ColorChange
350
5D
  3
Conceptual
350
5E
  3
Dim
350
5F
  3
EdgeColorOff
350
60
  3
Facepattern
350
61
  3
Flat
350
62
  3
FlatWithEdges
350
63
  3
Gouraud
350
64
  3
GouraudWithEdges
350
65
  3
Hidden
350
66
  3
JitterOff
350
67
  3
Linepattern
350
68
  3
Modeling
350
69
  3
OverhangOff
350
6A
  3
Realistic
350
6B
  3
Shaded
350
6C
  3
Shaded with edges
350
6D
  3
Shades of Gray
350
6E
  3
Sketchy
350
6F
  3
Thicken
350
70
  3
Wireframe
350
71
  3
X-Ray
350
72
  0
LAYOUT
  5
1A
330
D
100
AcDbPlotSettings
  1

  4
A3
  6

 40
7.5
 41
20.0
 42
7.5
 43
20.0
 44
420.0
 45
297.0
 46
0.0
 47
0.0
 48
0.0
 49
0.0
140
0.0
141
0.0
142
1.0
143
1.0
 70
1024
 72
1
 73
0
 74
5
  7

 75
16
 76
0
 77
2
 78
300
147
1.0
148
0.0
149
0.0
100
AcDbLayout
  1
Model
 70
1
 71
0
 10
0.0
 20
0.0
 11
420.0
 21
297.0
 12
0.0
 22
0.0
 32
0.0
 14
1e+20
 24
1e+20
 34
1e+20
 15
-1e+20
 25
-1e+20
 35
-1e+20
146
0.0
 13
0.0
 23
0.0
 33
0.0
 16
1.0
 26
0.0
 36
0.0
 17
0.0
 27
1.0
 37
0.0
 76
1
330
17
  0
LAYOUT
  5
1E
330
D
100
AcDbPlotSettings
  1

  4
A3
  6

 40
7.5
 41
20.0
 42
7.5
 43
20.0
 44
420.0
 45
297.0
 46
0.0
 47
0.0
 48
0.0
 49
0.0
140
0.0
141
0.0
142
1.0
143
1.0
 70
0
 72
1
 73
0
 74
5
  7

 75
16
 76
0
 77
2
 78
300
147
1.0
148
0.0
149
0.0
100
AcDbLayout
  1
Layout1
 70
1
 71
1
 10
0.0
 20
0.0
 11
420.0
 21
297.0
 12
0.0
 22
0.0
 32
0.0
 14
1e+20
 24
1e+20
 34
1e+20
 15
-1e+20
 25
-1e+20
 35
-1e+20
146
0.0
 13
0.0
 23
0.0
 33
0.0
 16
1.0
 26
0.0
 36
0.0
 17
0.0
 27
1.0
 37
0.0
 76
1
330
1B
  0
MATERIAL
  5
1F
102
{ACAD_REACTORS
330
E
102
}
330
E
100
AcDbMaterial
  1
ByBlock
  2

 70
0
 40
1.0
 71
1
 41
1.0
 91
-1023410177
 42
1.0
 72
1
  3

 73
1
 74
1
 75
1
 44
0.5
 73
0
 45
1.0
 46
1.0
 77
1
  4

 78
1
 79
1
170
1
 48
1.0
171
1
  6

172
1
173
1
174
1
140
1.0
141
1.0
175
1
  7

176
1
177
1
178
1
143
1.0
179
1
  8

270
1
271
1
272
1
145
1.0
146
1.0
273
1
  9

274
1
275
1
276
1
 42
1.0
 72
1
  3

 73
1
 74
1
 75
1
 94
63
  0
MATERIAL
  5
20
102
{ACAD_REACTORS
330
E
102
}
330
E
100
AcDbMaterial
  1
ByLayer
  2

 70
0
 40
1.0
 71
1
 41
1.0
 91
-1023410177
 42
1.0
 72
1
  3

 73
1
 74
1
 75
1
 44
0.5
 73
0
 45
1.0
 46
1.0
 77
1
  4

 78
1
 79
1
170
1
 48
1.0
171
1
  6

172
1
173
1
174
1
140
1.0
141
1.0
175
1
  7

176
1
177
1
178
1
143
1.0
179
1
  8

270
1
271
1
272
1
145
1.0
146
1.0
273
1
  9

274
1
275
1
276
1
 42
1.0
 72
1
  3

 73
1
 74
1
 75
1
 94
63
  0
MATERIAL
  5
21
102
{ACAD_REACTORS
330
E
102
}
330
E
100
AcDbMaterial
  1
Global
  2

 70
0
 40
1.0
 71
1
 41
1.0
 91
-1023410177
 42
1.0
 72
1
  3

 73
1
 74
1
 75
1
 44
0.5
 73
0
 45
1.0
 46
1.0
 77
1
  4

 78
1
 79
1
170
1
 48
1.0
171
1
  6

172
1
173
1
174
1
140
1.0
141
1.0
175
1
  7

176
1
177
1
178
1
143
1.0
179
1
  8

270
1
271
1
272
1
145
1.0
146
1.0
273
1
  9

274
1
275
1
276
1
 42
1.0
 72
1
  3

 73
1
 74
1
 75
1
 94
63
  0
MLINESTYLE
  5
22
102
{ACAD_REACTORS
330
10
102
}
330
10
100
AcDbMlineStyle
  2
Standard
 70
0
  3

 62
256
 51
90.0
 52
90.0
 71
2
 49
0.5
 62
256
  6
BYLAYER
 49
-0.5
 62
256
  6
BYLAYER
  0
MLEADERSTYLE
  5
2C
102
{ACAD_REACTORS
330
F
102
}
330
F
100
AcDbMLeaderStyle
179
2
170
2
171
1
172
0
 90
2
 40
0.0
 41
0.0
173
1
 91
-1056964608
 92
-2
290
1
 42
2.0
291
1
 43
8.0
  3
Standard
 44
4.0
300

342
29
174
1
175
1
176
0
178
1
 93
-1056964608
 45
4.0
292
0
297
0
 46
4.0
 94
-1056964608
 47
1.0
 49
1.0
140
1.0
294
1
141
0.0
177
0
142
1.0
295
0
296
0
143
3.75
271
0
272
9
273
9
  0
DICTIONARY
  5
2D
330
A
100
AcDbDictionary
280
1
281
1
  3
CREATED_BY_EZDXF
350
2E
  3
WRITTEN_BY_EZDXF
350
371
  0
DICTIONARYVAR
  5
2E
330
2D
100
DictionaryVariables
280
0
  1
1.4.4 @ 2026-10-01T14:01:43.420838+00:00
  0
VISUALSTYLE
  5
5A
102
{ACAD_REACTORS
330
16
102
}
330
16
100
AcDbVisualStyle
  2
2dWireframe
 70
4
 90
0
 40
0.6
 62
7
290
0
291
0
  0
VISUALSTYLE
  5
5B
102
{ACAD_REACTORS
330
16
102
}
330
16
100
AcDbVisualStyle
  2
Basic
 70
7
 90
1
 40
0.6
 62
7
290
0
291
1
  0
VISUALSTYLE
  5
5C
102
{ACAD_REACTORS
330
16
102
}
330
16
100
AcDbVisualStyle
  2
Brighten
 70
12
 90
2
 40
0.6
 62
7
290
0
291
1
  0
VISUALSTYLE
  5
5D
102
{ACAD_REACTORS
330
16
102
}
330
16
100
AcDbVisualStyle
  2
ColorChange
 70
16
 90
2
 40
0.6
 62
8
290
0
291
1
  0
VISUALSTYLE
  5
5E
102
{ACAD_REACTORS
330
16
102
}
330
16
100
AcDbVisualStyle
  2
Conceptual
 70
9
 90
3
 40
0.6
 62
7
290
0
291
0
  0
VISUALSTYLE
  5
5F
102
{ACAD_REACTORS
330
16
102
}
330
16
100
AcDbVisualStyle
  2
Dim
 70
11
 90
2
 40
0.6
 62
7
290
0
291
1
  0
VISUALSTYLE
  5
60
102
{ACAD_REACTORS
330
16
102
}
330
16
100
AcDbVisualStyle
  2
EdgeColorOff
 70
22
 90
2
 40
0.6
 62
7
290
0
291
1
  0
VISUALSTYLE
  5
61
102
{ACAD_REACTORS
330
16
102
}
330
16
100
AcDbVisualStyle
  2
Facepattern
 70
15
 90
2
 40
0.6
 62
7
290
0
291
1
  0
VISUALSTYLE
  5
62
102
{ACAD_REACTORS
330
16
102
}
330
16
100
AcDbVisualStyle
  2
Flat
 70
0
 90
2
 40
0.6
 62
7
290
0
291
1
  0
VISUALSTYLE
  5
63
102
{ACAD_REACTORS
330
16
102
}
330
16
100
AcDbVisualStyle
  2
FlatWithEdges
 70
1
 90
2
 40
0.6
 62
7
290
0
291
1
  0
VISUALSTYLE
  5
64
102
{ACAD_REACTORS
330
16
102
}
330
16
100
AcDbVisualStyle
  2
Gouraud
 70
2
 90
2
 40
0.6
 62
7
290
0
291
1
  0
VISUALSTYLE
  5
65
102
{ACAD_REACTORS
330
16
102
}
330
16
100
AcDbVisualStyle
  2
GouraudWithEdges
 70
3
 90
2
 40
0.6
 62
7
290
0
291
1
  0
VISUALSTYLE
  5
66
102
{ACAD_REACTORS
330
16
102
}
330
16
100
AcDbVisualStyle
  2
Hidden
 70
6
 90
1
 40
0.6
 62
7
290
0
291
0
  0
VISUALSTYLE
  5
67
102
{ACAD_REACTORS
330
16
102
}
330
16
100
AcDbVisualStyle
  2
JitterOff
 70
20
 90
2
 40
0.6
 62
7
290
0
291
1
  0
VISUALSTYLE
  5
68
102
{ACAD_REACTORS
330
16
102
}
330
16
100
AcDbVisualStyle
  2
Linepattern
 70
14
 90
2
 40
0.6
 62
7
290
0
291
1
  0
VISUALSTYLE
  5
69
102
{ACAD_REACTORS
330
16
102
}
330
16
100
AcDbVisualStyle
  2
Modeling
 70
10
 90
2
 40
0.6
 62
7
290
0
291
0
  0
VISUALSTYLE
  5
6A
102
{ACAD_REACTORS
330
16
102
}
330
16
100
AcDbVisualStyle
  2
OverhangOff
 70
21
 90
2
 40
0.6
 62
7
290
0
291
1
  0
VISUALSTYLE
  5
6B
102
{ACAD_REACTORS
330
16
102
}
330
16
100
AcDbVisualStyle
  2
Realistic
 70
8
 90
2
 40
0.6
 62
7
290
0
291
0
  0
VISUALSTYLE
  5
6C
102
{ACAD_REACTORS
330
16
102
}
330
16
100
AcDbVisualStyle
  2
Shaded
 70
27
 90
2
 40
0.6
 62
7
290
0
291
0
  0
VISUALSTYLE
  5
6D
102
{ACAD_REACTORS
330
16
102
}
330
16
100
AcDbVisualStyle
  2
Shaded with edges
 70
26
 90
2
 40
0.6
 62
7
290
0
291
0
  0
VISUALSTYLE
  5
6E
102
{ACAD_REACTORS
330
16
102
}
330
16
100
AcDbVisualStyle
  2
Shades of Gray
 70
23
 90
2
 40
0.6
 62
7
290
0
291
0
  0
VISUALSTYLE
  5
6F
102
{ACAD_REACTORS
330
16
102
}
330
16
100
AcDbVisualStyle
  2
Sketchy
 70
24
 90
1
 40
0.6
 62
7
290
0
291
0
  0
VISUALSTYLE
  5
70
102
{ACAD_REACTORS
330
16
102
}
330
16
100
AcDbVisualStyle
  2
Thicken
 70
13
 90
2
 40
0.6
 62
7
290
0
291
1
  0
VISUALSTYLE
  5
71
102
{ACAD_REACTORS
330
16
102
}
330
16
100
AcDbVisualStyle
  2
Wireframe
 70
5
 90
0
 40
0.6
 62
7
290
0
291
0
  0
VISUALSTYLE
  5
72
102
{ACAD_REACTORS
330
16
102
}
330
16
100
AcDbVisualStyle
  2
X-Ray
 70
25
 90
2
 40
0.5
 62
7
290
0
291
0
  0
DICTIONARYVAR
  5
371
330
2D
100
DictionaryVariables
280
0
  1
1.4.4 @ 2026-10-01T14:01:50.238640+00:00
  0
ENDSEC
  0
EOF
